<svg width="238" height="238" viewBox="0 0 238 238" fill="none" xmlns="http://www.w3.org/2000/svg">
<rect width="238" height="238" fill="#ECE2FF"/>
<path d="M50.4618 168.59C49.5985 168.59 48.5502 168.282 47.3168 167.665C46.7002 167.295 46.2068 166.802 45.8368 166.185C45.7135 165.815 45.4052 165.815 44.9118 166.185C44.5418 166.432 44.2335 166.432 43.9868 166.185C43.6168 165.815 43.2468 165.568 42.8768 165.445C42.3835 165.445 42.1368 165.26 42.1368 164.89C42.1368 164.52 42.0752 164.212 41.9518 163.965C41.9518 163.595 41.8285 163.287 41.5818 163.04C40.8418 162.793 40.3485 162.177 40.1018 161.19C39.9785 160.82 39.8552 160.512 39.7318 160.265C39.6085 159.895 39.4235 159.525 39.1768 159.155C38.9302 158.662 38.8068 158.23 38.8068 157.86C38.6835 157.49 38.5602 157.182 38.4368 156.935C38.4368 156.565 38.3135 156.195 38.0668 155.825C37.9435 154.962 37.6968 154.16 37.3268 153.42C36.9568 152.68 36.6485 151.878 36.4018 151.015C36.1552 150.522 36.0318 149.843 36.0318 148.98C36.0318 146.76 36.4018 144.725 37.1418 142.875C37.7585 141.765 37.9435 140.655 37.6968 139.545C37.5735 139.052 37.5735 138.558 37.6968 138.065C37.9435 137.572 38.0052 137.078 37.8818 136.585C37.7585 136.092 37.6352 135.66 37.5118 135.29C37.5118 134.92 37.5118 134.488 37.5118 133.995C37.3885 133.748 37.3268 133.44 37.3268 133.07C37.3268 132.33 37.3268 131.59 37.3268 130.85C37.3268 129.987 37.2035 129.123 36.9568 128.26C36.8335 127.89 36.7718 127.335 36.7718 126.595V119.75C36.6485 118.147 36.4635 116.543 36.2168 114.94C35.9702 113.337 35.6618 111.733 35.2918 110.13C35.2918 109.76 35.2302 109.39 35.1068 109.02C35.1068 108.65 35.1068 108.28 35.1068 107.91C35.1068 105.197 34.6752 102.545 33.8118 99.955V98.29C34.0585 96.9333 33.9352 95.885 33.4418 95.145C33.3185 94.6517 33.2568 93.9733 33.2568 93.11V92.925C33.2568 91.6917 33.1952 90.4583 33.0718 89.225C33.0718 87.9917 33.1335 86.7583 33.2568 85.525C33.5035 83.305 33.5035 80.9617 33.2568 78.495C33.2568 77.5083 33.2568 76.5217 33.2568 75.535C33.2568 74.5483 33.1952 73.6233 33.0718 72.76V71.65C33.3185 71.0333 33.4418 70.4783 33.4418 69.985C33.4418 69.4917 33.4418 68.9983 33.4418 68.505C33.4418 67.025 33.3802 65.6067 33.2568 64.25C33.2568 62.77 33.1335 61.3517 32.8868 59.995C32.8868 59.625 32.8868 59.255 32.8868 58.885C32.8868 58.3917 32.8252 57.96 32.7018 57.59C32.7018 56.7267 32.3935 55.9867 31.7768 55.37L30.4818 54.26C29.2485 53.52 28.4468 52.3483 28.0768 50.745C27.9535 50.4983 27.8918 50.3133 27.8918 50.19C27.8918 49.9433 27.8302 49.6967 27.7068 49.45C27.4602 48.8333 27.5835 48.2783 28.0768 47.785C28.4468 47.2917 28.6935 46.7983 28.8168 46.305C28.8168 45.935 28.8785 45.6267 29.0018 45.38C29.2485 45.01 29.4335 44.64 29.5568 44.27C29.6802 43.9 29.8035 43.4683 29.9268 42.975C30.1735 42.605 30.3585 42.4817 30.4818 42.605C31.3452 42.605 31.9618 42.4817 32.3318 42.235C33.1952 41.6183 34.1202 41.495 35.1068 41.865C35.3535 41.9883 35.7235 41.9267 36.2168 41.68C36.3402 41.68 36.4018 41.6183 36.4018 41.495C37.0185 40.8783 37.6968 40.57 38.4368 40.57C39.1768 40.4467 39.9785 40.4467 40.8418 40.57C40.9652 40.57 41.0885 40.6317 41.2118 40.755C41.3352 40.755 41.4585 40.755 41.5818 40.755C42.5685 41.0017 43.4935 41.2483 44.3568 41.495C45.3435 41.6183 46.2685 41.6183 47.1318 41.495C47.7485 41.495 48.3652 41.5567 48.9818 41.68C49.7218 41.8033 50.4002 41.865 51.0168 41.865C51.5102 41.865 51.9418 41.9267 52.3118 42.05C52.8052 42.1733 53.2368 42.2967 53.6068 42.42C54.1002 42.5433 54.5318 42.7283 54.9018 42.975C55.2718 43.0983 55.7035 43.16 56.1968 43.16C56.8135 43.2833 57.3068 43.4067 57.6768 43.53C58.1702 43.6533 58.6635 43.8383 59.1568 44.085C60.7602 44.9483 62.3635 45.75 63.9668 46.49C64.7068 46.86 65.3852 47.3533 66.0018 47.97C66.8652 48.5867 67.6052 48.9567 68.2218 49.08C68.3452 49.08 68.4685 49.1417 68.5918 49.265C68.7152 49.265 68.8385 49.265 68.9618 49.265C69.0852 49.3883 69.2085 49.45 69.3318 49.45C69.4552 49.45 69.5785 49.5117 69.7018 49.635C70.3185 50.2517 71.0585 50.745 71.9218 51.115C72.9085 51.3617 73.7102 51.7933 74.3268 52.41C74.5735 52.6567 74.9435 52.9033 75.4368 53.15C76.4235 53.52 77.2868 54.075 78.0268 54.815C78.2735 55.0617 78.4585 55.185 78.5818 55.185C79.0752 55.185 79.6302 55.4933 80.2468 56.11L84.1318 60.18C84.6252 60.6733 84.9952 61.105 85.2418 61.475C85.8585 62.3383 86.5368 63.14 87.2768 63.88C88.0168 64.62 88.7568 65.36 89.4968 66.1C89.7435 66.3467 89.9902 66.655 90.2368 67.025C90.6068 67.2717 90.8535 67.58 90.9768 67.95C91.1002 68.1967 91.2852 68.4433 91.5318 68.69C91.7785 68.8133 91.9635 68.9983 92.0868 69.245C93.4435 70.725 94.7385 72.2667 95.9718 73.87C97.3285 75.4733 98.5618 77.1383 99.6718 78.865C100.289 79.7283 100.844 80.6533 101.337 81.64C101.83 82.6267 102.262 83.6133 102.632 84.6C103.002 85.4633 103.372 86.3267 103.742 87.19C104.235 88.0533 104.667 88.9167 105.037 89.78C105.407 91.1367 105.839 92.37 106.332 93.48C106.825 95.0833 107.319 96.625 107.812 98.105C108.305 99.585 108.737 101.188 109.107 102.915L109.662 105.32C109.662 106.307 109.662 107.355 109.662 108.465C109.785 109.452 109.847 110.5 109.847 111.61C109.847 112.103 109.785 112.535 109.662 112.905C109.662 113.275 109.539 113.707 109.292 114.2C109.045 114.94 108.922 115.618 108.922 116.235C108.799 117.468 108.49 118.64 107.997 119.75C107.627 120.86 107.195 121.908 106.702 122.895C105.592 124.868 104.605 126.842 103.742 128.815C103.495 129.308 103.249 129.802 103.002 130.295C102.879 130.665 102.694 131.097 102.447 131.59L101.337 133.81C100.474 135.537 99.4252 137.263 98.1918 138.99C97.0818 140.593 95.8485 142.135 94.4918 143.615C93.9985 144.232 93.3818 144.848 92.6418 145.465C92.0252 145.958 91.4085 146.513 90.7918 147.13C89.5585 148.24 88.3252 149.35 87.0918 150.46C85.8585 151.447 84.5635 152.433 83.2068 153.42C81.9735 154.283 80.6785 155.085 79.3218 155.825C78.0885 156.565 76.7318 157.182 75.2518 157.675C74.5118 157.798 73.7718 158.168 73.0318 158.785C72.2918 159.278 71.4902 159.772 70.6268 160.265C69.8868 160.758 69.0852 161.313 68.2218 161.93C67.8518 162.053 67.4818 162.238 67.1118 162.485C66.7418 162.608 66.3102 162.732 65.8168 162.855C65.4468 162.978 65.0152 163.102 64.5218 163.225C64.1518 163.348 63.7818 163.472 63.4118 163.595C62.9185 163.718 62.4252 163.903 61.9318 164.15C61.5618 164.397 61.1918 164.705 60.8218 165.075C59.9585 165.692 59.0335 166.185 58.0468 166.555C57.0602 167.048 56.0735 167.603 55.0868 168.22C54.8402 168.343 54.4085 168.405 53.7918 168.405C53.4218 168.528 53.0518 168.528 52.6818 168.405C52.3118 168.405 51.9418 168.405 51.5718 168.405V168.59H50.4618ZM57.8618 147.87C59.0952 147.87 60.1435 147.623 61.0068 147.13C61.9935 146.76 62.9185 146.328 63.7818 145.835C64.6452 145.342 65.4468 144.787 66.1868 144.17L68.4068 141.95C69.6402 140.963 70.7502 139.915 71.7368 138.805C72.8468 137.695 74.0185 136.708 75.2518 135.845C75.4985 135.598 75.6218 135.475 75.6218 135.475C76.1152 134.982 76.5468 134.55 76.9168 134.18C77.4102 133.687 77.8418 133.193 78.2118 132.7C78.4585 132.453 78.7668 132.145 79.1368 131.775C79.5068 131.405 79.7535 131.097 79.8768 130.85C80.3702 129.987 81.0485 129.247 81.9118 128.63C82.5285 128.26 82.8985 127.89 83.0218 127.52C83.2685 126.903 83.5768 126.287 83.9468 125.67C84.4402 125.053 84.9335 124.498 85.4268 124.005C86.0435 123.265 86.6602 122.155 87.2768 120.675L88.0168 118.825C88.7568 117.098 89.1268 115.495 89.1268 114.015C89.2502 113.645 89.3118 113.09 89.3118 112.35C89.4352 110.5 89.3118 108.527 88.9418 106.43C88.8185 105.813 88.6952 105.197 88.5718 104.58C88.4485 103.963 88.3868 103.408 88.3868 102.915C88.2635 102.422 88.1402 101.99 88.0168 101.62C88.0168 101.127 87.8935 100.695 87.6468 100.325C87.4002 99.8317 87.2152 99.3383 87.0918 98.845C86.9685 98.3517 86.8452 97.8583 86.7218 97.365C86.7218 96.5017 86.5985 95.7617 86.3518 95.145C86.1052 94.405 85.8585 93.665 85.6118 92.925C85.2418 92.185 84.8718 91.445 84.5018 90.705C84.1318 89.8417 83.8235 88.9783 83.5768 88.115L83.3918 87.375C83.0218 86.8817 82.7135 86.3883 82.4668 85.895C82.3435 85.2783 82.1585 84.7233 81.9118 84.23C81.4185 83.12 80.9252 82.01 80.4318 80.9C80.0618 79.79 79.5685 78.7417 78.9518 77.755C78.3352 76.645 77.6568 75.535 76.9168 74.425C76.3002 73.315 75.4985 72.3283 74.5118 71.465C71.6752 68.3817 68.4068 65.6067 64.7068 63.14C62.4868 61.5367 60.2668 60.4883 58.0468 59.995C57.1835 59.7483 56.1968 59.5633 55.0868 59.44C53.9768 59.1933 52.9285 59.0083 51.9418 58.885C51.5718 58.885 51.2635 59.0083 51.0168 59.255C50.4002 59.7483 50.0918 60.365 50.0918 61.105C50.0918 61.9683 50.0302 62.8933 49.9068 63.88C49.9068 64.7433 49.9068 65.6683 49.9068 66.655C50.1535 68.3817 50.0918 69.8 49.7218 70.91C49.5985 71.4033 49.4752 71.8967 49.3518 72.39C49.3518 72.8833 49.4135 73.4383 49.5368 74.055C49.7835 74.795 49.7218 75.4733 49.3518 76.09C48.9818 76.83 48.9818 77.6317 49.3518 78.495C49.8452 79.4817 49.9685 80.715 49.7218 82.195C49.3518 83.675 49.3518 85.155 49.7218 86.635C49.8452 87.1283 49.9068 87.6217 49.9068 88.115C50.0302 88.6083 50.0302 89.1633 49.9068 89.78C49.9068 91.1367 49.9685 92.4933 50.0918 93.85C50.3385 95.2067 50.5235 96.5633 50.6468 97.92C50.6468 98.1667 50.7702 98.5367 51.0168 99.03V101.99C51.0168 102.237 50.9552 102.545 50.8318 102.915C50.8318 103.162 50.8935 103.408 51.0168 103.655C51.2635 104.642 51.4485 105.69 51.5718 106.8C51.8185 107.787 52.0652 108.773 52.3118 109.76C52.3118 110.007 52.3735 110.315 52.4968 110.685C52.6202 110.932 52.6818 111.24 52.6818 111.61C52.6818 112.473 52.7435 113.337 52.8668 114.2C52.9902 115.063 53.1135 115.988 53.2368 116.975C53.6068 120.428 54.1618 123.943 54.9018 127.52C55.2718 129 55.4568 130.542 55.4568 132.145C55.4568 132.515 55.4568 132.947 55.4568 133.44C55.4568 133.81 55.5185 134.18 55.6418 134.55C55.8885 135.413 56.0118 136.277 56.0118 137.14C56.0118 138.003 56.0118 138.867 56.0118 139.73C56.0118 139.977 55.9502 140.285 55.8268 140.655C55.8268 141.025 55.8885 141.333 56.0118 141.58C56.2585 142.197 56.3818 142.813 56.3818 143.43C56.3818 143.923 56.3818 144.478 56.3818 145.095C56.3818 145.588 56.5052 146.205 56.7518 146.945C56.7518 147.562 57.1218 147.87 57.8618 147.87ZM192.42 176.915H191.495C191.125 176.915 190.694 176.853 190.2 176.73C189.83 176.73 189.399 176.73 188.905 176.73C188.042 176.853 187.302 176.668 186.685 176.175C186.192 175.805 185.637 175.312 185.02 174.695C184.774 174.448 184.465 174.14 184.095 173.77C183.849 173.523 183.54 173.338 183.17 173.215C182.924 173.092 182.677 172.783 182.43 172.29C182.307 172.043 182.122 171.735 181.875 171.365C181.752 170.995 181.567 170.625 181.32 170.255C181.074 169.638 181.012 168.96 181.135 168.22C181.259 167.85 181.32 167.48 181.32 167.11C181.444 166.863 181.505 166.555 181.505 166.185C181.505 164.952 181.505 163.78 181.505 162.67C181.505 161.437 181.382 160.203 181.135 158.97C181.012 158.6 180.95 158.23 180.95 157.86C180.95 157.367 180.889 156.873 180.765 156.38C180.765 155.517 180.704 154.838 180.58 154.345C180.58 153.728 180.519 153.173 180.395 152.68C180.395 152.187 180.395 151.693 180.395 151.2C180.272 150.337 180.21 149.535 180.21 148.795C180.21 148.055 180.087 147.253 179.84 146.39V145.835C179.84 144.232 179.717 142.69 179.47 141.21C179.347 139.607 179.285 138.003 179.285 136.4C179.285 135.66 179.224 135.105 179.1 134.735C178.977 133.625 178.854 132.515 178.73 131.405C178.73 130.172 178.73 128.938 178.73 127.705C178.73 126.595 178.73 125.485 178.73 124.375C178.73 123.142 178.607 121.97 178.36 120.86C178.237 120.613 178.175 120.305 178.175 119.935C178.175 119.565 178.175 119.257 178.175 119.01C178.175 113.953 178.175 108.897 178.175 103.84C178.175 98.7833 178.237 93.7883 178.36 88.855C178.36 88.2383 178.36 87.6217 178.36 87.005C178.484 86.3883 178.545 85.7717 178.545 85.155C178.545 84.785 178.545 84.415 178.545 84.045C178.669 83.675 178.73 83.3667 178.73 83.12C178.73 81.7633 178.73 80.4067 178.73 79.05C178.854 77.57 178.977 76.1517 179.1 74.795C179.347 74.425 179.347 73.9317 179.1 73.315C178.977 73.1917 178.792 73.13 178.545 73.13L177.99 73.685C177.744 74.055 177.435 74.425 177.065 74.795C176.695 75.165 176.387 75.535 176.14 75.905C175.647 76.645 175.092 77.4467 174.475 78.31C173.982 79.05 173.427 79.8517 172.81 80.715C171.947 82.195 171.022 83.7367 170.035 85.34C169.049 86.82 168.309 88.4233 167.815 90.15C167.692 90.3967 167.569 90.705 167.445 91.075C167.322 91.3217 167.199 91.5683 167.075 91.815C166.582 93.0483 166.027 94.2817 165.41 95.515C164.917 96.625 164.424 97.8583 163.93 99.215C163.19 100.818 162.142 102.298 160.785 103.655C160.539 103.902 160.292 104.025 160.045 104.025C159.429 104.395 158.75 104.765 158.01 105.135C157.27 105.382 156.469 105.443 155.605 105.32H154.495C153.385 105.567 152.46 105.32 151.72 104.58C150.857 104.333 150.117 103.902 149.5 103.285C149.007 102.668 148.452 101.99 147.835 101.25C147.342 100.633 146.91 99.8933 146.54 99.03C146.294 98.1667 146.17 97.3033 146.17 96.44C146.047 96.1933 145.985 95.885 145.985 95.515C145.985 95.145 145.985 94.8367 145.985 94.59C145.862 94.3433 145.739 94.0967 145.615 93.85C145.492 93.48 145.43 93.2333 145.43 93.11C145.43 92.8633 145.307 92.4933 145.06 92C144.814 91.5067 144.32 90.52 143.58 89.04C142.84 87.56 142.47 86.8817 142.47 87.005C142.1 86.3883 141.73 85.71 141.36 84.97C140.99 84.23 140.559 83.5517 140.065 82.935L138.955 80.9C138.709 80.9 138.524 80.8383 138.4 80.715L138.215 80.9C138.215 81.27 138.215 81.64 138.215 82.01C138.215 82.38 138.277 82.75 138.4 83.12C138.647 84.4767 138.77 85.8333 138.77 87.19C138.77 88.5467 138.647 89.9033 138.4 91.26C138.4 92 138.462 92.6167 138.585 93.11C138.709 93.3567 138.77 93.7883 138.77 94.405C138.77 95.145 138.77 95.885 138.77 96.625C138.894 97.365 138.894 98.105 138.77 98.845C138.647 99.4617 138.585 100.14 138.585 100.88C138.709 101.497 138.832 102.113 138.955 102.73V104.58C138.709 105.32 138.709 106.122 138.955 106.985C139.079 107.602 139.079 108.28 138.955 109.02C138.955 109.637 139.017 110.253 139.14 110.87C139.14 111.487 139.017 112.288 138.77 113.275C138.03 116.235 138.215 119.072 139.325 121.785C139.449 122.278 139.572 122.772 139.695 123.265C139.819 123.635 139.819 124.067 139.695 124.56C139.695 124.93 139.695 125.3 139.695 125.67C139.695 126.04 139.757 126.41 139.88 126.78C140.127 127.273 140.25 127.767 140.25 128.26C140.374 129.617 140.435 130.665 140.435 131.405C140.559 132.145 140.682 132.7 140.805 133.07C141.052 134.427 141.299 135.845 141.545 137.325C141.792 138.682 142.039 140.038 142.285 141.395C142.532 142.998 142.779 144.602 143.025 146.205C143.395 147.685 143.58 149.227 143.58 150.83C143.58 151.323 143.642 151.693 143.765 151.94C144.012 152.927 144.135 153.975 144.135 155.085C144.135 156.072 144.197 157.058 144.32 158.045C144.32 159.402 144.012 160.45 143.395 161.19C143.149 161.683 143.025 161.992 143.025 162.115C141.915 164.458 139.942 165.815 137.105 166.185C136.735 166.308 136.365 166.37 135.995 166.37C135.625 166.37 135.255 166.37 134.885 166.37C133.529 166.617 132.542 166.37 131.925 165.63C131.679 165.383 131.432 165.26 131.185 165.26C130.569 165.383 129.952 165.013 129.335 164.15C128.965 163.533 128.41 162.978 127.67 162.485C127.3 162.115 126.992 161.498 126.745 160.635C126.622 160.388 126.499 160.142 126.375 159.895C126.375 159.648 126.375 159.402 126.375 159.155C126.252 157.428 126.067 155.763 125.82 154.16C125.574 152.433 125.389 150.768 125.265 149.165L125.08 147.315C124.957 146.822 124.895 146.39 124.895 146.02C124.895 145.65 124.834 145.218 124.71 144.725V143.615C124.34 141.888 124.155 140.162 124.155 138.435C124.155 136.585 124.217 134.797 124.34 133.07C124.464 131.96 124.525 130.85 124.525 129.74C124.525 128.507 124.587 127.335 124.71 126.225V121.97C124.71 121.353 124.71 120.737 124.71 120.12C124.71 119.38 124.649 118.702 124.525 118.085C124.402 117.345 124.34 116.605 124.34 115.865C124.34 115.125 124.34 114.385 124.34 113.645V105.135C124.217 104.148 124.155 103.162 124.155 102.175C124.155 101.065 124.155 100.017 124.155 99.03C124.155 98.66 124.155 98.29 124.155 97.92C124.155 97.4267 124.094 96.995 123.97 96.625C123.97 96.0083 123.909 95.4533 123.785 94.96C123.785 94.3433 123.724 93.7883 123.6 93.295V92C123.354 90.89 123.23 89.8417 123.23 88.855C123.23 87.745 123.23 86.635 123.23 85.525C123.23 84.5383 123.23 83.5517 123.23 82.565C123.23 81.455 123.107 80.4683 122.86 79.605C122.737 79.235 122.675 78.865 122.675 78.495C122.675 78.125 122.675 77.755 122.675 77.385C122.675 76.5217 122.675 75.72 122.675 74.98C122.675 74.1167 122.552 73.2533 122.305 72.39C122.182 72.1433 122.12 71.7117 122.12 71.095V61.845C122.12 61.2283 122.12 60.6733 122.12 60.18C122.12 59.5633 121.997 59.0083 121.75 58.515C121.38 57.2817 121.442 55.8633 121.935 54.26C122.182 53.6433 122.429 53.2117 122.675 52.965C122.922 52.595 123.169 52.225 123.415 51.855C123.662 51.485 123.847 51.115 123.97 50.745C124.217 50.375 124.402 50.19 124.525 50.19C125.019 50.0667 125.389 49.8817 125.635 49.635C126.005 49.3883 126.314 49.1417 126.56 48.895L127.67 48.34C127.917 48.2167 128.287 48.155 128.78 48.155C129.397 48.2783 130.014 48.4017 130.63 48.525C131.37 48.525 132.049 48.5867 132.665 48.71C133.405 48.71 133.96 49.0183 134.33 49.635C134.947 50.4983 135.564 51.3617 136.18 52.225C136.797 53.0883 137.29 54.0133 137.66 55C138.03 55.8633 138.524 56.6033 139.14 57.22C139.88 58.2067 140.62 59.1933 141.36 60.18C142.1 61.1667 142.902 62.1533 143.765 63.14C144.135 63.51 144.444 63.9417 144.69 64.435C145.06 64.9283 145.369 65.4217 145.615 65.915C146.232 66.7783 146.787 67.6417 147.28 68.505C147.897 69.245 148.514 70.0467 149.13 70.91L151.905 75.35C152.152 75.8433 152.399 76.3367 152.645 76.83C152.892 77.2 153.139 77.57 153.385 77.94C153.632 78.5567 154.002 78.6183 154.495 78.125C154.989 77.5083 155.482 76.8917 155.975 76.275C156.592 75.535 157.147 74.8567 157.64 74.24C158.75 72.8833 159.86 71.465 160.97 69.985C162.08 68.505 163.252 67.0867 164.485 65.73L165.595 64.065C166.459 62.8317 167.26 61.66 168 60.55C168.864 59.3167 169.665 58.0833 170.405 56.85C171.269 55.4933 172.009 54.1367 172.625 52.78C173.365 51.4233 173.982 50.0667 174.475 48.71L176.695 43.715C177.435 42.235 178.484 41.0017 179.84 40.015C181.69 38.535 183.725 37.98 185.945 38.35C186.809 38.4733 187.61 38.72 188.35 39.09C189.09 39.3367 189.83 39.5833 190.57 39.83C191.31 40.0767 191.804 40.6317 192.05 41.495C192.297 41.865 192.482 42.235 192.605 42.605C192.729 42.975 192.79 43.345 192.79 43.715C192.914 44.5783 193.099 45.38 193.345 46.12C193.592 46.7367 193.777 47.4767 193.9 48.34L194.085 50.19C194.332 51.3 194.579 52.41 194.825 53.52C195.195 54.63 195.504 55.74 195.75 56.85V57.22C195.874 58.4533 195.997 59.6867 196.12 60.92C196.367 62.03 196.429 63.2017 196.305 64.435V68.69C196.305 69.3067 196.305 69.9233 196.305 70.54C196.305 71.1567 196.244 71.7733 196.12 72.39C195.997 73.2533 195.935 74.1167 195.935 74.98C195.935 75.72 195.935 76.5217 195.935 77.385C195.812 77.8783 195.75 78.3717 195.75 78.865C195.75 79.3583 195.689 79.8517 195.565 80.345C195.442 80.8383 195.38 81.3317 195.38 81.825C195.38 82.195 195.38 82.6883 195.38 83.305V88.485C195.38 89.3483 195.319 90.15 195.195 90.89C195.195 91.63 195.134 92.4317 195.01 93.295C194.887 93.7883 194.825 94.2817 194.825 94.775C194.825 95.145 194.825 95.5767 194.825 96.07V107.355C194.825 108.218 194.825 109.082 194.825 109.945C194.949 110.808 195.072 111.672 195.195 112.535C195.319 113.152 195.38 113.83 195.38 114.57C195.38 115.187 195.38 115.803 195.38 116.42C195.504 117.283 195.565 118.147 195.565 119.01C195.565 119.75 195.627 120.613 195.75 121.6V123.635C195.874 124.622 195.935 125.67 195.935 126.78C195.935 127.767 195.935 128.753 195.935 129.74V132.145C196.182 133.008 196.305 133.933 196.305 134.92C196.305 135.907 196.367 136.893 196.49 137.88V139.175C196.737 139.915 196.86 140.655 196.86 141.395C196.86 142.135 196.922 142.875 197.045 143.615L197.6 150.275C197.724 150.768 197.785 151.262 197.785 151.755C197.909 152.125 197.97 152.557 197.97 153.05C198.094 153.543 198.155 154.037 198.155 154.53C198.155 154.9 198.217 155.332 198.34 155.825C198.34 155.948 198.34 156.133 198.34 156.38C198.464 156.627 198.525 156.873 198.525 157.12C198.525 157.983 198.587 158.908 198.71 159.895C198.957 160.882 199.142 161.868 199.265 162.855L200.005 168.035C200.005 168.775 199.944 169.268 199.82 169.515C199.697 170.255 199.389 170.933 198.895 171.55C198.525 172.29 198.217 172.968 197.97 173.585C197.97 173.708 197.909 173.77 197.785 173.77C196.922 174.51 196.059 175.127 195.195 175.62C194.332 176.237 193.407 176.668 192.42 176.915Z" fill="#582AB7"/>
<path d="M27 195.5C35.5714 185.5 44.1429 185.5 52.7143 195.5C61.2857 205.5 69.8571 205.5 78.4286 195.5C87 185.5 95.5714 185.5 104.143 195.5C112.714 205.5 121.286 205.5 129.857 195.5C138.429 185.5 147 185.5 155.571 195.5C164.143 205.5 172.714 205.5 181.286 195.5C189.857 185.5 198.429 185.5 207 195.5" stroke="#AD8FE9" stroke-width="12" stroke-linecap="round"/>
</svg>
