<svg width="565" height="154" viewBox="0 0 565 154" fill="none" xmlns="http://www.w3.org/2000/svg">
<path d="M27.4391 117.96C26.7858 117.96 25.9925 117.727 25.0591 117.26C24.5925 116.98 24.2191 116.607 23.9391 116.14C23.8458 115.86 23.6125 115.86 23.2391 116.14C22.9591 116.327 22.7258 116.327 22.5391 116.14C22.2591 115.86 21.9791 115.673 21.6991 115.58C21.3258 115.58 21.1391 115.44 21.1391 115.16C21.1391 114.88 21.0925 114.647 20.9991 114.46C20.9991 114.18 20.9058 113.947 20.7191 113.76C20.1591 113.573 19.7858 113.107 19.5991 112.36C19.5058 112.08 19.4125 111.847 19.3191 111.66C19.2258 111.38 19.0858 111.1 18.8991 110.82C18.7125 110.447 18.6191 110.12 18.6191 109.84C18.5258 109.56 18.4325 109.327 18.3391 109.14C18.3391 108.86 18.2458 108.58 18.0591 108.3C17.9658 107.647 17.7791 107.04 17.4991 106.48C17.2191 105.92 16.9858 105.313 16.7991 104.66C16.6125 104.287 16.5191 103.773 16.5191 103.12C16.5191 101.44 16.7991 99.9 17.3591 98.5C17.8258 97.66 17.9658 96.82 17.7791 95.98C17.6858 95.6067 17.6858 95.2333 17.7791 94.86C17.9658 94.4867 18.0125 94.1133 17.9191 93.74C17.8258 93.3667 17.7325 93.04 17.6391 92.76C17.6391 92.48 17.6391 92.1533 17.6391 91.78C17.5458 91.5933 17.4991 91.36 17.4991 91.08C17.4991 90.52 17.4991 89.96 17.4991 89.4C17.4991 88.7467 17.4058 88.0933 17.2191 87.44C17.1258 87.16 17.0791 86.74 17.0791 86.18V81C16.9858 79.7867 16.8458 78.5733 16.6591 77.36C16.4725 76.1467 16.2391 74.9333 15.9591 73.72C15.9591 73.44 15.9125 73.16 15.8191 72.88C15.8191 72.6 15.8191 72.32 15.8191 72.04C15.8191 69.9867 15.4925 67.98 14.8391 66.02V64.76C15.0258 63.7333 14.9325 62.94 14.5591 62.38C14.4658 62.0067 14.4191 61.4933 14.4191 60.84V60.7C14.4191 59.7667 14.3725 58.8333 14.2791 57.9C14.2791 56.9667 14.3258 56.0333 14.4191 55.1C14.6058 53.42 14.6058 51.6467 14.4191 49.78C14.4191 49.0333 14.4191 48.2867 14.4191 47.54C14.4191 46.7933 14.3725 46.0933 14.2791 45.44V44.6C14.4658 44.1333 14.5591 43.7133 14.5591 43.34C14.5591 42.9667 14.5591 42.5933 14.5591 42.22C14.5591 41.1 14.5125 40.0267 14.4191 39C14.4191 37.88 14.3258 36.8067 14.1391 35.78C14.1391 35.5 14.1391 35.22 14.1391 34.94C14.1391 34.5667 14.0925 34.24 13.9991 33.96C13.9991 33.3067 13.7658 32.7467 13.2991 32.28L12.3191 31.44C11.3858 30.88 10.7791 29.9933 10.4991 28.78C10.4058 28.5933 10.3591 28.4533 10.3591 28.36C10.3591 28.1733 10.3125 27.9867 10.2191 27.8C10.0325 27.3333 10.1258 26.9133 10.4991 26.54C10.7791 26.1667 10.9658 25.7933 11.0591 25.42C11.0591 25.14 11.1058 24.9067 11.1991 24.72C11.3858 24.44 11.5258 24.16 11.6191 23.88C11.7125 23.6 11.8058 23.2733 11.8991 22.9C12.0858 22.62 12.2258 22.5267 12.3191 22.62C12.9725 22.62 13.4391 22.5267 13.7191 22.34C14.3725 21.8733 15.0725 21.78 15.8191 22.06C16.0058 22.1533 16.2858 22.1067 16.6591 21.92C16.7525 21.92 16.7991 21.8733 16.7991 21.78C17.2658 21.3133 17.7791 21.08 18.3391 21.08C18.8991 20.9867 19.5058 20.9867 20.1591 21.08C20.2525 21.08 20.3458 21.1267 20.4391 21.22C20.5325 21.22 20.6258 21.22 20.7191 21.22C21.4658 21.4067 22.1658 21.5933 22.8191 21.78C23.5658 21.8733 24.2658 21.8733 24.9191 21.78C25.3858 21.78 25.8525 21.8267 26.3191 21.92C26.8791 22.0133 27.3925 22.06 27.8591 22.06C28.2325 22.06 28.5591 22.1067 28.8391 22.2C29.2125 22.2933 29.5391 22.3867 29.8191 22.48C30.1925 22.5733 30.5191 22.7133 30.7991 22.9C31.0791 22.9933 31.4058 23.04 31.7791 23.04C32.2458 23.1333 32.6191 23.2267 32.8991 23.32C33.2725 23.4133 33.6458 23.5533 34.0191 23.74C35.2325 24.3933 36.4458 25 37.6591 25.56C38.2191 25.84 38.7325 26.2133 39.1991 26.68C39.8525 27.1467 40.4125 27.4267 40.8791 27.52C40.9725 27.52 41.0658 27.5667 41.1591 27.66C41.2525 27.66 41.3458 27.66 41.4391 27.66C41.5325 27.7533 41.6258 27.8 41.7191 27.8C41.8125 27.8 41.9058 27.8467 41.9991 27.94C42.4658 28.4067 43.0258 28.78 43.6791 29.06C44.4258 29.2467 45.0325 29.5733 45.4991 30.04C45.6858 30.2267 45.9658 30.4133 46.3391 30.6C47.0858 30.88 47.7391 31.3 48.2991 31.86C48.4858 32.0467 48.6258 32.14 48.7191 32.14C49.0925 32.14 49.5125 32.3733 49.9791 32.84L52.9191 35.92C53.2925 36.2933 53.5725 36.62 53.7591 36.9C54.2258 37.5533 54.7391 38.16 55.2991 38.72C55.8591 39.28 56.4191 39.84 56.9791 40.4C57.1658 40.5867 57.3525 40.82 57.5391 41.1C57.8191 41.2867 58.0058 41.52 58.0991 41.8C58.1925 41.9867 58.3325 42.1733 58.5191 42.36C58.7058 42.4533 58.8458 42.5933 58.9391 42.78C59.9658 43.9 60.9458 45.0667 61.8791 46.28C62.9058 47.4933 63.8391 48.7533 64.6791 50.06C65.1458 50.7133 65.5658 51.4133 65.9391 52.16C66.3125 52.9067 66.6391 53.6533 66.9191 54.4C67.1991 55.0533 67.4791 55.7067 67.7591 56.36C68.1325 57.0133 68.4591 57.6667 68.7391 58.32C69.0191 59.3467 69.3458 60.28 69.7191 61.12C70.0925 62.3333 70.4658 63.5 70.8391 64.62C71.2125 65.74 71.5391 66.9533 71.8191 68.26L72.2391 70.08C72.2391 70.8267 72.2391 71.62 72.2391 72.46C72.3325 73.2067 72.3791 74 72.3791 74.84C72.3791 75.2133 72.3325 75.54 72.2391 75.82C72.2391 76.1 72.1458 76.4267 71.9591 76.8C71.7725 77.36 71.6791 77.8733 71.6791 78.34C71.5858 79.2733 71.3525 80.16 70.9791 81C70.6991 81.84 70.3725 82.6333 69.9991 83.38C69.1591 84.8733 68.4125 86.3667 67.7591 87.86C67.5725 88.2333 67.3858 88.6067 67.1991 88.98C67.1058 89.26 66.9658 89.5867 66.7791 89.96L65.9391 91.64C65.2858 92.9467 64.4925 94.2533 63.5591 95.56C62.7191 96.7733 61.7858 97.94 60.7591 99.06C60.3858 99.5267 59.9191 99.9933 59.3591 100.46C58.8925 100.833 58.4258 101.253 57.9591 101.72C57.0258 102.56 56.0925 103.4 55.1591 104.24C54.2258 104.987 53.2458 105.733 52.2191 106.48C51.2858 107.133 50.3058 107.74 49.2791 108.3C48.3458 108.86 47.3191 109.327 46.1991 109.7C45.6391 109.793 45.0791 110.073 44.5191 110.54C43.9591 110.913 43.3525 111.287 42.6991 111.66C42.1391 112.033 41.5325 112.453 40.8791 112.92C40.5991 113.013 40.3191 113.153 40.0391 113.34C39.7591 113.433 39.4325 113.527 39.0591 113.62C38.7791 113.713 38.4525 113.807 38.0791 113.9C37.7991 113.993 37.5191 114.087 37.2391 114.18C36.8658 114.273 36.4925 114.413 36.1191 114.6C35.8391 114.787 35.5591 115.02 35.2791 115.3C34.6258 115.767 33.9258 116.14 33.1791 116.42C32.4325 116.793 31.6858 117.213 30.9391 117.68C30.7525 117.773 30.4258 117.82 29.9591 117.82C29.6791 117.913 29.3991 117.913 29.1191 117.82C28.8391 117.82 28.5591 117.82 28.2791 117.82V117.96H27.4391ZM33.0391 102.28C33.9725 102.28 34.7658 102.093 35.4191 101.72C36.1658 101.44 36.8658 101.113 37.5191 100.74C38.1725 100.367 38.7791 99.9467 39.3391 99.48L41.0191 97.8C41.9525 97.0533 42.7925 96.26 43.5391 95.42C44.3791 94.58 45.2658 93.8333 46.1991 93.18C46.3858 92.9933 46.4791 92.9 46.4791 92.9C46.8525 92.5267 47.1791 92.2 47.4591 91.92C47.8325 91.5467 48.1591 91.1733 48.4391 90.8C48.6258 90.6133 48.8591 90.38 49.1391 90.1C49.4191 89.82 49.6058 89.5867 49.6991 89.4C50.0725 88.7467 50.5858 88.1867 51.2391 87.72C51.7058 87.44 51.9858 87.16 52.0791 86.88C52.2658 86.4133 52.4991 85.9467 52.7791 85.48C53.1525 85.0133 53.5258 84.5933 53.8991 84.22C54.3658 83.66 54.8325 82.82 55.2991 81.7L55.8591 80.3C56.4191 78.9933 56.6991 77.78 56.6991 76.66C56.7925 76.38 56.8391 75.96 56.8391 75.4C56.9325 74 56.8391 72.5067 56.5591 70.92C56.4658 70.4533 56.3725 69.9867 56.2791 69.52C56.1858 69.0533 56.1391 68.6333 56.1391 68.26C56.0458 67.8867 55.9525 67.56 55.8591 67.28C55.8591 66.9067 55.7658 66.58 55.5791 66.3C55.3925 65.9267 55.2525 65.5533 55.1591 65.18C55.0658 64.8067 54.9725 64.4333 54.8791 64.06C54.8791 63.4067 54.7858 62.8467 54.5991 62.38C54.4125 61.82 54.2258 61.26 54.0391 60.7C53.7591 60.14 53.4791 59.58 53.1991 59.02C52.9191 58.3667 52.6858 57.7133 52.4991 57.06L52.3591 56.5C52.0791 56.1267 51.8458 55.7533 51.6591 55.38C51.5658 54.9133 51.4258 54.4933 51.2391 54.12C50.8658 53.28 50.4925 52.44 50.1191 51.6C49.8391 50.76 49.4658 49.9667 48.9991 49.22C48.5325 48.38 48.0191 47.54 47.4591 46.7C46.9925 45.86 46.3858 45.1133 45.6391 44.46C43.4925 42.1267 41.0191 40.0267 38.2191 38.16C36.5391 36.9467 34.8591 36.1533 33.1791 35.78C32.5258 35.5933 31.7791 35.4533 30.9391 35.36C30.0991 35.1733 29.3058 35.0333 28.5591 34.94C28.2791 34.94 28.0458 35.0333 27.8591 35.22C27.3925 35.5933 27.1591 36.06 27.1591 36.62C27.1591 37.2733 27.1125 37.9733 27.0191 38.72C27.0191 39.3733 27.0191 40.0733 27.0191 40.82C27.2058 42.1267 27.1591 43.2 26.8791 44.04C26.7858 44.4133 26.6925 44.7867 26.5991 45.16C26.5991 45.5333 26.6458 45.9533 26.7391 46.42C26.9258 46.98 26.8791 47.4933 26.5991 47.96C26.3191 48.52 26.3191 49.1267 26.5991 49.78C26.9725 50.5267 27.0658 51.46 26.8791 52.58C26.5991 53.7 26.5991 54.82 26.8791 55.94C26.9725 56.3133 27.0191 56.6867 27.0191 57.06C27.1125 57.4333 27.1125 57.8533 27.0191 58.32C27.0191 59.3467 27.0658 60.3733 27.1591 61.4C27.3458 62.4267 27.4858 63.4533 27.5791 64.48C27.5791 64.6667 27.6725 64.9467 27.8591 65.32V67.56C27.8591 67.7467 27.8125 67.98 27.7191 68.26C27.7191 68.4467 27.7658 68.6333 27.8591 68.82C28.0458 69.5667 28.1858 70.36 28.2791 71.2C28.4658 71.9467 28.6525 72.6933 28.8391 73.44C28.8391 73.6267 28.8858 73.86 28.9791 74.14C29.0725 74.3267 29.1191 74.56 29.1191 74.84C29.1191 75.4933 29.1658 76.1467 29.2591 76.8C29.3525 77.4533 29.4458 78.1533 29.5391 78.9C29.8191 81.5133 30.2391 84.1733 30.7991 86.88C31.0791 88 31.2191 89.1667 31.2191 90.38C31.2191 90.66 31.2191 90.9867 31.2191 91.36C31.2191 91.64 31.2658 91.92 31.3591 92.2C31.5458 92.8533 31.6391 93.5067 31.6391 94.16C31.6391 94.8133 31.6391 95.4667 31.6391 96.12C31.6391 96.3067 31.5925 96.54 31.4991 96.82C31.4991 97.1 31.5458 97.3333 31.6391 97.52C31.8258 97.9867 31.9191 98.4533 31.9191 98.92C31.9191 99.2933 31.9191 99.7133 31.9191 100.18C31.9191 100.553 32.0125 101.02 32.1991 101.58C32.1991 102.047 32.4791 102.28 33.0391 102.28ZM115.918 118.8C114.985 118.707 114.051 118.567 113.118 118.38C112.278 118.287 111.438 118.053 110.598 117.68L107.098 116.42C105.885 115.953 104.765 115.44 103.738 114.88C102.711 114.227 101.685 113.573 100.658 112.92C100.191 112.453 99.7247 112.033 99.258 111.66C98.7914 111.193 98.3247 110.773 97.858 110.4C97.1114 109.653 96.3647 108.907 95.618 108.16C94.8714 107.32 94.1714 106.433 93.518 105.5L90.158 100.32C89.318 99.0133 88.5714 97.66 87.918 96.26C87.2647 94.7667 86.7047 93.2733 86.238 91.78C85.2114 88.98 84.698 86.2267 84.698 83.52V81.28C84.698 78.9467 84.838 76.66 85.118 74.42C85.3047 72.5533 85.7247 70.8733 86.378 69.38C86.7514 68.4467 87.078 67.5133 87.358 66.58C87.638 65.6467 87.9647 64.76 88.338 63.92L88.758 62.94C88.9447 61.7267 89.3647 60.6533 90.018 59.72C90.6714 58.6933 91.2314 57.7133 91.698 56.78C92.0714 56.0333 92.4914 55.38 92.958 54.82C93.4247 54.1667 93.8447 53.5133 94.218 52.86C94.4047 52.58 94.638 52.3467 94.918 52.16C95.198 51.88 95.4314 51.6 95.618 51.32C95.8047 51.1333 95.9447 50.9 96.038 50.62C96.2247 50.2467 96.3647 49.92 96.458 49.64C96.6447 49.36 96.9714 48.9867 97.438 48.52C97.998 48.24 98.5114 47.5867 98.978 46.56C99.1647 46.1867 99.3514 45.9067 99.538 45.72C100.098 45.2533 100.565 44.6933 100.938 44.04C101.405 43.3867 101.918 42.78 102.478 42.22C102.851 41.8467 103.038 41.3333 103.038 40.68C103.038 40.2133 103.038 39.7933 103.038 39.42C103.131 38.9533 103.131 38.5333 103.038 38.16C102.945 37.6933 103.085 37.2733 103.458 36.9C103.645 36.7133 103.785 36.48 103.878 36.2C103.971 35.92 104.065 35.64 104.158 35.36C104.438 34.4267 105.185 33.6333 106.398 32.98C106.585 32.7933 106.818 32.7 107.098 32.7C107.471 32.6067 107.798 32.5133 108.078 32.42C108.731 32.14 109.478 32.0933 110.318 32.28C110.691 32.3733 111.018 32.42 111.298 32.42C111.578 32.3267 111.858 32.2333 112.138 32.14C112.511 31.9533 112.838 31.8133 113.118 31.72C113.491 31.6267 113.818 31.5333 114.098 31.44C115.405 30.9733 116.758 31.02 118.158 31.58C119.651 32.14 120.725 33.12 121.378 34.52C121.565 34.9867 121.751 35.4533 121.938 35.92C122.125 36.3867 122.265 36.8533 122.358 37.32C122.545 38.3467 122.498 39.2333 122.218 39.98C122.031 40.3533 121.938 40.5867 121.938 40.68C121.845 41.0533 121.938 41.38 122.218 41.66C122.405 41.94 122.638 42.1733 122.918 42.36C123.945 43.2933 124.925 44.2267 125.858 45.16C126.791 46 127.678 46.9333 128.518 47.96C129.265 48.7067 129.871 49.5 130.338 50.34C130.898 51.0867 131.411 51.9267 131.878 52.86C132.065 53.3267 132.298 53.84 132.578 54.4C132.858 54.8667 133.138 55.3333 133.418 55.8C133.885 56.64 134.258 57.5267 134.538 58.46C134.911 59.3933 135.285 60.3267 135.658 61.26V61.4C135.845 62.0533 135.985 62.7533 136.078 63.5C136.265 64.1533 136.545 64.8533 136.918 65.6C137.198 66.2533 137.431 66.9533 137.618 67.7C137.805 68.3533 137.991 69.0533 138.178 69.8C138.365 70.64 138.551 71.48 138.738 72.32C139.018 73.16 139.205 74 139.298 74.84C139.391 75.2133 139.485 75.5867 139.578 75.96C139.671 76.24 139.765 76.5667 139.858 76.94C140.045 77.78 140.231 78.62 140.418 79.46C140.605 80.3 140.745 81.14 140.838 81.98L141.258 82.96C141.445 83.52 141.631 84.2667 141.818 85.2C142.098 86.4133 142.238 87.6267 142.238 88.84C142.331 90.0533 142.331 91.3133 142.238 92.62C142.238 93.2733 142.191 93.7867 142.098 94.16C141.538 96.12 140.838 98.1267 139.998 100.18C139.625 100.833 139.251 101.487 138.878 102.14C138.505 102.7 138.131 103.307 137.758 103.96L136.498 105.92C136.031 106.76 135.518 107.507 134.958 108.16C134.025 109.653 132.905 110.96 131.598 112.08C130.291 113.2 128.891 114.273 127.398 115.3C124.131 117.82 120.305 118.987 115.918 118.8ZM115.358 104.94C117.318 104.94 118.998 104.38 120.398 103.26C120.865 102.793 121.331 102.373 121.798 102C122.358 101.533 122.825 101.067 123.198 100.6C124.971 98.64 126.371 96.5867 127.398 94.44L127.818 93.04C128.005 91.36 128.005 89.68 127.818 88L126.978 83.38C126.698 82.1667 126.465 81 126.278 79.88C126.091 78.6667 125.811 77.5 125.438 76.38C125.158 75.7267 125.065 75.2133 125.158 74.84C125.251 74.3733 125.251 73.9067 125.158 73.44C125.065 72.9733 124.925 72.5067 124.738 72.04C124.458 70.8267 124.131 69.6133 123.758 68.4C123.385 67.1867 123.011 65.9733 122.638 64.76C122.545 64.48 122.451 64.2 122.358 63.92C122.265 63.64 122.171 63.36 122.078 63.08C121.425 61.7733 120.725 60.5133 119.978 59.3C119.231 58.0867 118.391 56.9667 117.458 55.94C116.991 55.38 116.478 54.8667 115.918 54.4C115.358 53.84 114.798 53.3267 114.238 52.86C114.145 52.6733 114.005 52.58 113.818 52.58C113.725 52.4867 113.585 52.3933 113.398 52.3C113.118 51.9267 112.745 51.9733 112.278 52.44C111.811 52.9067 111.298 53.42 110.738 53.98C110.271 54.54 109.805 55.1 109.338 55.66C108.871 56.3133 108.358 56.9667 107.798 57.62C107.331 58.2733 106.865 58.9267 106.398 59.58C105.745 60.42 105.138 61.26 104.578 62.1C104.018 62.94 103.458 63.78 102.898 64.62C100.938 67.7933 99.398 71.2933 98.278 75.12C98.0914 75.68 97.998 76.1 97.998 76.38C97.9047 77.0333 97.8114 77.6867 97.718 78.34C97.718 78.9933 97.718 79.6933 97.718 80.44V81.56C97.8114 81.84 97.858 82.12 97.858 82.4C97.858 82.68 97.9047 82.96 97.998 83.24C97.998 84.36 98.278 85.5733 98.838 86.88C99.5847 88.7467 100.425 90.5667 101.358 92.34C102.291 94.1133 103.365 95.7933 104.578 97.38C104.858 97.7533 105.138 98.1267 105.418 98.5C105.791 98.8733 106.118 99.2467 106.398 99.62C107.238 100.553 108.125 101.393 109.058 102.14C110.085 102.887 111.111 103.54 112.138 104.1C113.258 104.66 114.331 104.94 115.358 104.94ZM180.474 116.7C180.101 116.7 179.774 116.7 179.494 116.7C179.214 116.7 178.888 116.653 178.514 116.56C178.328 116.56 178.094 116.513 177.814 116.42C177.628 116.42 177.441 116.42 177.254 116.42C175.761 116.327 174.361 116.047 173.054 115.58C171.748 115.113 170.441 114.553 169.134 113.9C169.041 113.9 168.948 113.9 168.854 113.9C168.854 113.807 168.808 113.76 168.714 113.76C167.781 113.293 166.941 112.733 166.194 112.08C165.541 111.427 164.888 110.773 164.234 110.12C163.488 109.187 162.974 108.3 162.694 107.46C162.321 106.713 161.854 105.92 161.294 105.08C160.361 104.053 159.661 102.747 159.194 101.16C158.914 100.413 158.634 99.6667 158.354 98.92C158.074 98.1733 157.841 97.38 157.654 96.54C157.561 96.26 157.468 95.98 157.374 95.7C157.281 95.3267 157.141 94.9533 156.954 94.58C156.768 94.1133 156.581 93.6 156.394 93.04C156.301 92.48 156.161 91.92 155.974 91.36C155.881 90.9867 155.741 90.38 155.554 89.54C155.461 88.6067 155.414 88.0467 155.414 87.86V81.84C155.508 81.28 155.601 80.7667 155.694 80.3C155.788 79.74 155.881 79.18 155.974 78.62L156.114 78.48C156.114 78.5733 156.114 78.62 156.114 78.62C156.208 78.62 156.254 78.6667 156.254 78.76C156.348 78.76 156.394 78.8067 156.394 78.9C156.488 78.9933 156.534 78.9467 156.534 78.76C156.534 78.2 156.488 77.7333 156.394 77.36C156.394 77.1733 156.348 76.9867 156.254 76.8C156.254 76.6133 156.441 76.4733 156.814 76.38C156.908 76.38 156.954 76.24 156.954 75.96L158.214 69.8C158.308 69.3333 158.401 68.9133 158.494 68.54C158.588 68.0733 158.681 67.6533 158.774 67.28L159.054 65.74C158.961 65.9267 159.008 65.6 159.194 64.76C159.474 63.92 159.661 63.36 159.754 63.08C159.941 62.6133 160.174 62.1467 160.454 61.68C160.828 61.2133 161.061 60.8867 161.154 60.7C161.901 59.86 162.601 58.6933 163.254 57.2L165.914 53C166.288 52.6267 166.474 52.16 166.474 51.6C166.381 51.1333 166.521 50.62 166.894 50.06C167.174 49.5 167.454 48.94 167.734 48.38C168.108 47.82 168.481 47.26 168.854 46.7C169.321 45.9533 169.834 45.2067 170.394 44.46C171.048 43.62 171.654 42.8733 172.214 42.22C172.401 41.94 172.588 41.66 172.774 41.38C173.054 41.1 173.381 40.9133 173.754 40.82C173.941 40.82 174.081 40.7733 174.174 40.68C174.268 40.5867 174.361 40.4933 174.454 40.4C176.321 38.44 178.421 36.62 180.754 34.94C180.941 34.7533 181.128 34.5667 181.314 34.38C181.501 34.1933 181.688 34.0533 181.874 33.96C182.341 33.68 182.854 33.54 183.414 33.54C183.881 33.54 184.254 33.4933 184.534 33.4C184.814 33.4 185.234 33.3067 185.794 33.12C186.448 32.9333 186.961 33.0267 187.334 33.4C187.894 33.96 188.828 34.1467 190.134 33.96C190.974 33.8667 191.674 34.3333 192.234 35.36C192.421 35.64 192.561 35.92 192.654 36.2C192.841 36.48 193.074 36.7133 193.354 36.9C193.634 37.46 194.008 37.9733 194.474 38.44C195.034 38.9067 195.501 39.3733 195.874 39.84L197.694 42.36C197.881 42.64 198.068 42.9667 198.254 43.34C198.534 43.62 198.768 43.9 198.954 44.18C199.421 44.6467 199.701 45.1133 199.794 45.58C199.981 46.0467 200.121 46.3733 200.214 46.56C200.401 46.6533 200.541 47.0733 200.634 47.82C200.728 48.1933 200.728 48.4267 200.634 48.52C200.634 48.52 200.821 48.52 201.194 48.52C201.568 48.52 201.754 48.7533 201.754 49.22C201.754 50.2467 201.568 51.1333 201.194 51.88C201.008 52.16 200.821 52.3 200.634 52.3C200.541 52.3 200.401 52.3933 200.214 52.58C199.934 53.0467 199.608 53.5133 199.234 53.98C198.954 54.4467 198.628 54.96 198.254 55.52C197.974 55.9867 197.601 56.4067 197.134 56.78C196.761 57.1533 196.341 57.5267 195.874 57.9C195.128 58.6467 194.241 58.9267 193.214 58.74C192.374 58.74 191.768 58.6933 191.394 58.6C191.114 58.5067 190.834 58.4133 190.554 58.32C190.368 58.1333 190.134 57.9933 189.854 57.9C189.668 57.9 189.481 57.8067 189.294 57.62C189.201 57.4333 189.108 57.2933 189.014 57.2C188.921 57.0133 188.781 56.8733 188.594 56.78C188.128 56.5 187.754 56.1733 187.474 55.8C187.194 55.3333 186.961 54.9133 186.774 54.54C186.681 54.26 186.634 53.98 186.634 53.7C186.634 53.42 186.634 53.1867 186.634 53C186.541 52.44 186.448 51.88 186.354 51.32C186.354 50.76 186.261 50.2 186.074 49.64C186.074 49.4533 185.841 49.36 185.374 49.36C184.814 49.7333 184.254 50.1067 183.694 50.48C183.134 50.8533 182.621 51.32 182.154 51.88L177.814 57.06C177.534 57.34 177.254 57.6667 176.974 58.04C176.788 58.32 176.601 58.6 176.414 58.88C176.041 59.3467 175.668 59.86 175.294 60.42C175.014 60.8867 174.641 61.3533 174.174 61.82C173.988 62.0067 173.848 62.1933 173.754 62.38C173.474 63.0333 173.148 63.64 172.774 64.2C172.494 64.76 172.214 65.4133 171.934 66.16C171.468 67.0933 171.048 68.12 170.674 69.24C170.394 70.2667 170.161 71.34 169.974 72.46C169.881 73.86 169.601 75.26 169.134 76.66C169.041 77.1267 168.948 77.64 168.854 78.2C168.761 78.76 168.668 79.32 168.574 79.88C168.481 80.72 168.341 81.56 168.154 82.4C167.968 83.24 167.921 84.1267 168.014 85.06C168.201 86.9267 168.481 88.7 168.854 90.38C169.134 91.3133 169.368 92.2467 169.554 93.18C169.834 94.02 170.114 94.9067 170.394 95.84C170.488 96.12 170.581 96.4 170.674 96.68C170.768 96.96 170.861 97.24 170.954 97.52C171.514 98.8267 172.541 99.8533 174.034 100.6C174.594 100.88 175.201 101.02 175.854 101.02C176.414 101.02 176.974 101.067 177.534 101.16C178.094 101.16 178.654 101.113 179.214 101.02C181.828 100.74 184.254 100.32 186.494 99.76C187.521 99.5733 188.501 99.2933 189.434 98.92C190.368 98.5467 191.301 98.1733 192.234 97.8C192.981 97.52 193.681 97.1 194.334 96.54C195.081 95.98 195.828 95.42 196.574 94.86C197.414 94.2067 198.208 93.5533 198.954 92.9C199.701 92.2467 200.448 91.5933 201.194 90.94C201.941 90.2867 202.641 89.5867 203.294 88.84C203.574 88.56 203.994 88.2333 204.554 87.86C204.834 87.6733 205.114 87.4867 205.394 87.3C205.674 87.1133 205.908 86.9267 206.094 86.74C206.561 86.46 206.981 86.18 207.354 85.9C207.821 85.62 208.334 85.48 208.894 85.48C209.174 85.2933 209.454 85.2 209.734 85.2C210.108 85.1067 210.434 85.0133 210.714 84.92C211.554 84.64 212.301 84.64 212.954 84.92C213.234 85.0133 213.514 85.1067 213.794 85.2C214.074 85.2933 214.354 85.4333 214.634 85.62C215.381 86.0867 216.081 86.8333 216.734 87.86C217.201 88.98 217.434 89.96 217.434 90.8V91.64C217.434 92.8533 216.968 93.9267 216.034 94.86C215.008 96.1667 213.934 97.1933 212.814 97.94C212.161 98.3133 211.508 98.8267 210.854 99.48C209.921 100.227 208.941 101.02 207.914 101.86C206.981 102.7 206.001 103.493 204.974 104.24L204.414 104.8C204.134 104.987 203.854 105.22 203.574 105.5C203.294 105.78 202.968 106.013 202.594 106.2C201.941 106.853 201.194 107.46 200.354 108.02C199.514 108.487 198.674 108.953 197.834 109.42C196.994 109.793 196.201 110.353 195.454 111.1C195.174 111.38 194.894 111.66 194.614 111.94C194.334 112.22 194.008 112.453 193.634 112.64C192.421 113.293 191.021 113.947 189.434 114.6C189.341 114.693 189.201 114.787 189.014 114.88C188.828 114.973 188.641 115.067 188.454 115.16C187.894 115.44 187.288 115.673 186.634 115.86C186.074 115.953 185.514 116.047 184.954 116.14C184.208 116.233 183.461 116.28 182.714 116.28C181.968 116.373 181.221 116.513 180.474 116.7ZM253.892 117.4C253.799 117.307 253.659 117.26 253.472 117.26C252.539 116.7 251.606 116.187 250.672 115.72C249.832 115.16 249.039 114.553 248.292 113.9C247.919 113.713 247.686 113.527 247.592 113.34C246.752 112.873 246.006 112.313 245.352 111.66C244.699 110.913 244.092 110.12 243.532 109.28C243.346 109.093 243.159 108.86 242.972 108.58C242.786 108.3 242.552 108.02 242.272 107.74C241.339 106.807 240.592 105.687 240.032 104.38C239.939 104.1 239.799 103.82 239.612 103.54C239.426 103.26 239.239 102.98 239.052 102.7C238.492 101.953 238.072 101.253 237.792 100.6C237.606 99.8533 237.326 99.1533 236.952 98.5C236.579 97.7533 236.206 97.0533 235.832 96.4C235.739 96.0267 235.599 95.6533 235.412 95.28C235.226 94.9067 235.086 94.5333 234.992 94.16C234.992 93.6933 234.852 93.18 234.572 92.62C234.199 91.5933 233.826 90.5667 233.452 89.54C233.172 88.42 232.892 87.3 232.612 86.18C232.426 85.8067 232.332 85.5267 232.332 85.34C231.772 84.1267 231.352 82.8667 231.072 81.56C230.792 80.2533 230.512 78.9933 230.232 77.78L229.392 71.48C229.299 71.2933 229.252 71.06 229.252 70.78C229.252 70.5 229.252 70.2667 229.252 70.08C229.252 69.52 229.252 69.0067 229.252 68.54C229.252 67.98 229.159 67.42 228.972 66.86C228.786 65.6467 228.832 64.5267 229.112 63.5C229.112 63.1267 229.112 62.8 229.112 62.52C229.206 62.1467 229.252 61.7733 229.252 61.4C229.252 60.9333 229.252 60.4667 229.252 60C229.346 59.44 229.439 58.9733 229.532 58.6C229.626 58.32 229.672 57.9467 229.672 57.48C229.859 56.64 229.952 55.8467 229.952 55.1C230.046 54.26 230.139 53.4667 230.232 52.72C230.512 51.4133 230.652 50.1533 230.652 48.94C230.652 48.5667 230.652 48.24 230.652 47.96C230.746 47.5867 230.839 47.2133 230.932 46.84C230.932 46 230.886 45.3933 230.792 45.02C230.512 44.6467 230.466 44.1333 230.652 43.48C230.839 43.1067 230.932 42.8267 230.932 42.64C231.026 42.4533 231.072 42.2667 231.072 42.08C231.072 41.8 231.212 41.6133 231.492 41.52H232.472C232.846 41.52 233.079 41.38 233.172 41.1C233.266 40.7267 233.592 40.4467 234.152 40.26C234.619 40.0733 235.039 39.9333 235.412 39.84C235.786 39.6533 236.159 39.42 236.532 39.14C236.812 38.9533 237.139 38.86 237.512 38.86C237.886 38.86 238.259 38.9067 238.632 39L241.152 39.84C241.246 39.9333 241.292 39.98 241.292 39.98C241.386 39.98 241.479 40.0267 241.572 40.12C242.319 40.8667 242.926 41.7067 243.392 42.64C243.952 43.5733 244.279 44.6 244.372 45.72C244.372 46.0933 244.372 46.4667 244.372 46.84C244.372 47.12 244.279 47.4467 244.092 47.82C243.999 48.38 243.906 48.94 243.812 49.5C243.719 50.06 243.626 50.6667 243.532 51.32C243.346 52.2533 243.206 53.1867 243.112 54.12C243.112 54.96 243.112 55.8467 243.112 56.78C243.019 57.1533 242.972 57.5267 242.972 57.9C242.972 58.18 242.926 58.5067 242.832 58.88C242.739 60 242.692 61.12 242.692 62.24C242.692 63.36 242.786 64.4333 242.972 65.46C242.972 65.5533 242.972 65.6933 242.972 65.88C243.066 66.0667 243.066 66.2533 242.972 66.44C242.972 67.3733 243.066 68.3533 243.252 69.38C243.439 70.4067 243.579 71.4333 243.672 72.46C243.766 73.3933 243.859 74.28 243.952 75.12C244.046 75.96 244.186 76.8 244.372 77.64C244.559 78.0133 244.652 78.3867 244.652 78.76C244.746 79.1333 244.839 79.5067 244.932 79.88C245.306 81.6533 245.726 83.38 246.192 85.06C246.659 86.74 247.266 88.42 248.012 90.1C248.479 91.1267 248.946 92.0133 249.412 92.76C250.159 94.0667 250.812 95.3733 251.372 96.68C251.746 97.3333 252.119 97.9867 252.492 98.64C252.866 99.2 253.239 99.8067 253.612 100.46C253.986 100.927 254.359 101.347 254.732 101.72C255.106 102.093 255.479 102.513 255.852 102.98C256.319 103.447 256.926 103.587 257.672 103.4C258.139 103.213 258.466 103.027 258.652 102.84C259.119 102.56 259.539 102.28 259.912 102C260.379 101.72 260.799 101.393 261.172 101.02C262.199 99.9933 263.132 98.9667 263.972 97.94C264.906 96.9133 265.699 95.7933 266.352 94.58C266.912 93.5533 267.472 92.48 268.032 91.36C268.592 90.24 269.106 89.12 269.572 88C270.132 86.6933 270.646 85.3867 271.112 84.08C271.672 82.7733 272.186 81.42 272.652 80.02C273.026 79.0867 273.306 78.1533 273.492 77.22C273.772 76.1933 273.959 75.2133 274.052 74.28C274.239 73.2533 274.379 72.2267 274.472 71.2C274.659 70.08 274.706 69.0067 274.612 67.98C274.612 67.7 274.612 67.42 274.612 67.14C274.706 66.86 274.752 66.58 274.752 66.3C274.939 65.6467 274.986 65.04 274.892 64.48C274.892 63.92 274.846 63.36 274.752 62.8C274.659 61.2133 274.519 59.72 274.332 58.32C274.239 56.8267 274.146 55.3333 274.052 53.84C274.052 53.0933 274.006 52.58 273.912 52.3C273.819 51.46 273.726 50.62 273.632 49.78C273.632 48.94 273.539 48.1 273.352 47.26V46.14C273.352 45.2067 273.306 44.32 273.212 43.48C273.212 42.5467 273.212 41.6133 273.212 40.68C273.212 39.9333 273.166 39.28 273.072 38.72C273.072 38.0667 273.072 37.4133 273.072 36.76C273.072 35.92 273.212 35.22 273.492 34.66C273.772 34.1933 273.866 33.82 273.772 33.54C273.492 32.98 273.632 32.56 274.192 32.28C274.659 31.8133 275.126 31.44 275.592 31.16C276.152 30.88 276.759 30.6933 277.412 30.6C277.599 30.5067 277.739 30.46 277.832 30.46C278.019 30.46 278.159 30.4133 278.252 30.32C278.812 29.8533 279.559 29.7133 280.492 29.9C280.679 29.9933 280.959 30.04 281.332 30.04C282.172 30.2267 282.779 30.5533 283.152 31.02C283.432 31.3 283.852 31.6267 284.412 32C285.159 32.3733 285.672 32.84 285.952 33.4C286.232 33.96 286.419 34.5667 286.512 35.22C286.699 36.1533 286.839 37.04 286.932 37.88C287.119 38.72 287.166 39.6067 287.072 40.54V41.8C287.072 42.7333 287.072 43.6667 287.072 44.6C287.166 45.44 287.259 46.3267 287.352 47.26C287.446 47.54 287.492 47.8667 287.492 48.24C287.492 48.52 287.492 48.8 287.492 49.08C287.492 49.64 287.492 50.2 287.492 50.76C287.586 51.2267 287.679 51.74 287.772 52.3C287.866 52.4867 287.912 52.7667 287.912 53.14C287.819 54.0733 287.819 55.0067 287.912 55.94C288.099 56.78 288.239 57.6667 288.332 58.6C288.426 59.5333 288.472 60.5133 288.472 61.54C288.566 62.5667 288.612 63.5933 288.612 64.62C288.706 64.7133 288.706 64.8533 288.612 65.04C288.612 65.2267 288.612 65.4133 288.612 65.6C288.332 66.44 288.286 67.42 288.472 68.54C288.659 69.7533 288.612 70.92 288.332 72.04C288.239 72.88 288.146 73.72 288.052 74.56C287.959 75.4 287.819 76.2867 287.632 77.22C287.446 78.7133 287.119 80.2067 286.652 81.7C286.186 83.1933 285.719 84.6867 285.252 86.18C285.252 86.3667 285.112 86.6933 284.832 87.16C284.459 87.8133 284.132 88.5133 283.852 89.26C283.572 89.9133 283.339 90.6133 283.152 91.36L282.732 92.34C282.266 93.2733 281.846 94.2067 281.472 95.14C281.192 95.98 280.819 96.8667 280.352 97.8C280.072 98.36 279.792 98.92 279.512 99.48C279.232 100.04 278.906 100.553 278.532 101.02C278.439 101.207 278.299 101.393 278.112 101.58C277.926 102.233 277.646 102.84 277.272 103.4C276.899 103.96 276.526 104.52 276.152 105.08C275.126 106.667 273.912 108.16 272.512 109.56C271.206 110.96 269.759 112.267 268.172 113.48L266.492 114.46C265.186 115.113 263.786 115.673 262.292 116.14C260.892 116.607 259.446 116.933 257.952 117.12C257.486 117.213 256.972 117.213 256.412 117.12C256.132 117.12 255.852 117.12 255.572 117.12C255.292 117.12 255.012 117.213 254.732 117.4H253.892ZM361.06 124.26H360.36C360.08 124.26 359.754 124.213 359.38 124.12C359.1 124.12 358.774 124.12 358.4 124.12C357.747 124.213 357.187 124.073 356.72 123.7C356.347 123.42 355.927 123.047 355.46 122.58C355.274 122.393 355.04 122.16 354.76 121.88C354.574 121.693 354.34 121.553 354.06 121.46C353.874 121.367 353.687 121.133 353.5 120.76C353.407 120.573 353.267 120.34 353.08 120.06C352.987 119.78 352.847 119.5 352.66 119.22C352.474 118.753 352.427 118.24 352.52 117.68C352.614 117.4 352.66 117.12 352.66 116.84C352.754 116.653 352.8 116.42 352.8 116.14C352.8 115.207 352.8 114.32 352.8 113.48C352.8 112.547 352.707 111.613 352.52 110.68C352.427 110.4 352.38 110.12 352.38 109.84C352.38 109.467 352.334 109.093 352.24 108.72C352.24 108.067 352.194 107.553 352.1 107.18C352.1 106.713 352.054 106.293 351.96 105.92C351.96 105.547 351.96 105.173 351.96 104.8C351.867 104.147 351.82 103.54 351.82 102.98C351.82 102.42 351.727 101.813 351.54 101.16V100.74C351.54 99.5267 351.447 98.36 351.26 97.24C351.167 96.0267 351.12 94.8133 351.12 93.6C351.12 93.04 351.074 92.62 350.98 92.34C350.887 91.5 350.794 90.66 350.7 89.82C350.7 88.8867 350.7 87.9533 350.7 87.02C350.7 86.18 350.7 85.34 350.7 84.5C350.7 83.5667 350.607 82.68 350.42 81.84C350.327 81.6533 350.28 81.42 350.28 81.14C350.28 80.86 350.28 80.6267 350.28 80.44C350.28 76.6133 350.28 72.7867 350.28 68.96C350.28 65.1333 350.327 61.3533 350.42 57.62C350.42 57.1533 350.42 56.6867 350.42 56.22C350.514 55.7533 350.56 55.2867 350.56 54.82C350.56 54.54 350.56 54.26 350.56 53.98C350.654 53.7 350.7 53.4667 350.7 53.28C350.7 52.2533 350.7 51.2267 350.7 50.2C350.794 49.08 350.887 48.0067 350.98 46.98C351.167 46.7 351.167 46.3267 350.98 45.86C350.887 45.7667 350.747 45.72 350.56 45.72L350.14 46.14C349.954 46.42 349.72 46.7 349.44 46.98C349.16 47.26 348.927 47.54 348.74 47.82C348.367 48.38 347.947 48.9867 347.48 49.64C347.107 50.2 346.687 50.8067 346.22 51.46C345.567 52.58 344.867 53.7467 344.12 54.96C343.374 56.08 342.814 57.2933 342.44 58.6C342.347 58.7867 342.254 59.02 342.16 59.3C342.067 59.4867 341.974 59.6733 341.88 59.86C341.507 60.7933 341.087 61.7267 340.62 62.66C340.247 63.5 339.874 64.4333 339.5 65.46C338.94 66.6733 338.147 67.7933 337.12 68.82C336.934 69.0067 336.747 69.1 336.56 69.1C336.094 69.38 335.58 69.66 335.02 69.94C334.46 70.1267 333.854 70.1733 333.2 70.08H332.36C331.52 70.2667 330.82 70.08 330.26 69.52C329.607 69.3333 329.047 69.0067 328.58 68.54C328.207 68.0733 327.787 67.56 327.32 67C326.947 66.5333 326.62 65.9733 326.34 65.32C326.154 64.6667 326.06 64.0133 326.06 63.36C325.967 63.1733 325.92 62.94 325.92 62.66C325.92 62.38 325.92 62.1467 325.92 61.96C325.827 61.7733 325.734 61.5867 325.64 61.4C325.547 61.12 325.5 60.9333 325.5 60.84C325.5 60.6533 325.407 60.3733 325.22 60C325.034 59.6267 324.66 58.88 324.1 57.76C323.54 56.64 323.26 56.1267 323.26 56.22C322.98 55.7533 322.7 55.24 322.42 54.68C322.14 54.12 321.814 53.6067 321.44 53.14L320.6 51.6C320.414 51.6 320.274 51.5533 320.18 51.46L320.04 51.6C320.04 51.88 320.04 52.16 320.04 52.44C320.04 52.72 320.087 53 320.18 53.28C320.367 54.3067 320.46 55.3333 320.46 56.36C320.46 57.3867 320.367 58.4133 320.18 59.44C320.18 60 320.227 60.4667 320.32 60.84C320.414 61.0267 320.46 61.3533 320.46 61.82C320.46 62.38 320.46 62.94 320.46 63.5C320.554 64.06 320.554 64.62 320.46 65.18C320.367 65.6467 320.32 66.16 320.32 66.72C320.414 67.1867 320.507 67.6533 320.6 68.12V69.52C320.414 70.08 320.414 70.6867 320.6 71.34C320.694 71.8067 320.694 72.32 320.6 72.88C320.6 73.3467 320.647 73.8133 320.74 74.28C320.74 74.7467 320.647 75.3533 320.46 76.1C319.9 78.34 320.04 80.4867 320.88 82.54C320.974 82.9133 321.067 83.2867 321.16 83.66C321.254 83.94 321.254 84.2667 321.16 84.64C321.16 84.92 321.16 85.2 321.16 85.48C321.16 85.76 321.207 86.04 321.3 86.32C321.487 86.6933 321.58 87.0667 321.58 87.44C321.674 88.4667 321.72 89.26 321.72 89.82C321.814 90.38 321.907 90.8 322 91.08C322.187 92.1067 322.374 93.18 322.56 94.3C322.747 95.3267 322.934 96.3533 323.12 97.38C323.307 98.5933 323.494 99.8067 323.68 101.02C323.96 102.14 324.1 103.307 324.1 104.52C324.1 104.893 324.147 105.173 324.24 105.36C324.427 106.107 324.52 106.9 324.52 107.74C324.52 108.487 324.567 109.233 324.66 109.98C324.66 111.007 324.427 111.8 323.96 112.36C323.774 112.733 323.68 112.967 323.68 113.06C322.84 114.833 321.347 115.86 319.2 116.14C318.92 116.233 318.64 116.28 318.36 116.28C318.08 116.28 317.8 116.28 317.52 116.28C316.494 116.467 315.747 116.28 315.28 115.72C315.094 115.533 314.907 115.44 314.72 115.44C314.254 115.533 313.787 115.253 313.32 114.6C313.04 114.133 312.62 113.713 312.06 113.34C311.78 113.06 311.547 112.593 311.36 111.94C311.267 111.753 311.174 111.567 311.08 111.38C311.08 111.193 311.08 111.007 311.08 110.82C310.987 109.513 310.847 108.253 310.66 107.04C310.474 105.733 310.334 104.473 310.24 103.26L310.1 101.86C310.007 101.487 309.96 101.16 309.96 100.88C309.96 100.6 309.914 100.273 309.82 99.9V99.06C309.54 97.7533 309.4 96.4467 309.4 95.14C309.4 93.74 309.447 92.3867 309.54 91.08C309.634 90.24 309.68 89.4 309.68 88.56C309.68 87.6267 309.727 86.74 309.82 85.9V82.68C309.82 82.2133 309.82 81.7467 309.82 81.28C309.82 80.72 309.774 80.2067 309.68 79.74C309.587 79.18 309.54 78.62 309.54 78.06C309.54 77.5 309.54 76.94 309.54 76.38V69.94C309.447 69.1933 309.4 68.4467 309.4 67.7C309.4 66.86 309.4 66.0667 309.4 65.32C309.4 65.04 309.4 64.76 309.4 64.48C309.4 64.1067 309.354 63.78 309.26 63.5C309.26 63.0333 309.214 62.6133 309.12 62.24C309.12 61.7733 309.074 61.3533 308.98 60.98V60C308.794 59.16 308.7 58.3667 308.7 57.62C308.7 56.78 308.7 55.94 308.7 55.1C308.7 54.3533 308.7 53.6067 308.7 52.86C308.7 52.02 308.607 51.2733 308.42 50.62C308.327 50.34 308.28 50.06 308.28 49.78C308.28 49.5 308.28 49.22 308.28 48.94C308.28 48.2867 308.28 47.68 308.28 47.12C308.28 46.4667 308.187 45.8133 308 45.16C307.907 44.9733 307.86 44.6467 307.86 44.18V37.18C307.86 36.7133 307.86 36.2933 307.86 35.92C307.86 35.4533 307.767 35.0333 307.58 34.66C307.3 33.7267 307.347 32.6533 307.72 31.44C307.907 30.9733 308.094 30.6467 308.28 30.46C308.467 30.18 308.654 29.9 308.84 29.62C309.027 29.34 309.167 29.06 309.26 28.78C309.447 28.5 309.587 28.36 309.68 28.36C310.054 28.2667 310.334 28.1267 310.52 27.94C310.8 27.7533 311.034 27.5667 311.22 27.38L312.06 26.96C312.247 26.8667 312.527 26.82 312.9 26.82C313.367 26.9133 313.834 27.0067 314.3 27.1C314.86 27.1 315.374 27.1467 315.84 27.24C316.4 27.24 316.82 27.4733 317.1 27.94C317.567 28.5933 318.034 29.2467 318.5 29.9C318.967 30.5533 319.34 31.2533 319.62 32C319.9 32.6533 320.274 33.2133 320.74 33.68C321.3 34.4267 321.86 35.1733 322.42 35.92C322.98 36.6667 323.587 37.4133 324.24 38.16C324.52 38.44 324.754 38.7667 324.94 39.14C325.22 39.5133 325.454 39.8867 325.64 40.26C326.107 40.9133 326.527 41.5667 326.9 42.22C327.367 42.78 327.834 43.3867 328.3 44.04L330.4 47.4C330.587 47.7733 330.774 48.1467 330.96 48.52C331.147 48.8 331.334 49.08 331.52 49.36C331.707 49.8267 331.987 49.8733 332.36 49.5C332.734 49.0333 333.107 48.5667 333.48 48.1C333.947 47.54 334.367 47.0267 334.74 46.56C335.58 45.5333 336.42 44.46 337.26 43.34C338.1 42.22 338.987 41.1467 339.92 40.12L340.76 38.86C341.414 37.9267 342.02 37.04 342.58 36.2C343.234 35.2667 343.84 34.3333 344.4 33.4C345.054 32.3733 345.614 31.3467 346.08 30.32C346.64 29.2933 347.107 28.2667 347.48 27.24L349.16 23.46C349.72 22.34 350.514 21.4067 351.54 20.66C352.94 19.54 354.48 19.12 356.16 19.4C356.814 19.4933 357.42 19.68 357.98 19.96C358.54 20.1467 359.1 20.3333 359.66 20.52C360.22 20.7067 360.594 21.1267 360.78 21.78C360.967 22.06 361.107 22.34 361.2 22.62C361.294 22.9 361.34 23.18 361.34 23.46C361.434 24.1133 361.574 24.72 361.76 25.28C361.947 25.7467 362.087 26.3067 362.18 26.96L362.32 28.36C362.507 29.2 362.694 30.04 362.88 30.88C363.16 31.72 363.394 32.56 363.58 33.4V33.68C363.674 34.6133 363.767 35.5467 363.86 36.48C364.047 37.32 364.094 38.2067 364 39.14V42.36C364 42.8267 364 43.2933 364 43.76C364 44.2267 363.954 44.6933 363.86 45.16C363.767 45.8133 363.72 46.4667 363.72 47.12C363.72 47.68 363.72 48.2867 363.72 48.94C363.627 49.3133 363.58 49.6867 363.58 50.06C363.58 50.4333 363.534 50.8067 363.44 51.18C363.347 51.5533 363.3 51.9267 363.3 52.3C363.3 52.58 363.3 52.9533 363.3 53.42V57.34C363.3 57.9933 363.254 58.6 363.16 59.16C363.16 59.72 363.114 60.3267 363.02 60.98C362.927 61.3533 362.88 61.7267 362.88 62.1C362.88 62.38 362.88 62.7067 362.88 63.08V71.62C362.88 72.2733 362.88 72.9267 362.88 73.58C362.974 74.2333 363.067 74.8867 363.16 75.54C363.254 76.0067 363.3 76.52 363.3 77.08C363.3 77.5467 363.3 78.0133 363.3 78.48C363.394 79.1333 363.44 79.7867 363.44 80.44C363.44 81 363.487 81.6533 363.58 82.4V83.94C363.674 84.6867 363.72 85.48 363.72 86.32C363.72 87.0667 363.72 87.8133 363.72 88.56V90.38C363.907 91.0333 364 91.7333 364 92.48C364 93.2267 364.047 93.9733 364.14 94.72V95.7C364.327 96.26 364.42 96.82 364.42 97.38C364.42 97.94 364.467 98.5 364.56 99.06L364.98 104.1C365.074 104.473 365.12 104.847 365.12 105.22C365.214 105.5 365.26 105.827 365.26 106.2C365.354 106.573 365.4 106.947 365.4 107.32C365.4 107.6 365.447 107.927 365.54 108.3C365.54 108.393 365.54 108.533 365.54 108.72C365.634 108.907 365.68 109.093 365.68 109.28C365.68 109.933 365.727 110.633 365.82 111.38C366.007 112.127 366.147 112.873 366.24 113.62L366.8 117.54C366.8 118.1 366.754 118.473 366.66 118.66C366.567 119.22 366.334 119.733 365.96 120.2C365.68 120.76 365.447 121.273 365.26 121.74C365.26 121.833 365.214 121.88 365.12 121.88C364.467 122.44 363.814 122.907 363.16 123.28C362.507 123.747 361.807 124.073 361.06 124.26ZM397.943 117.4C397.383 117.4 397.009 117.353 396.823 117.26C396.449 117.073 396.123 116.933 395.843 116.84C395.563 116.747 395.283 116.653 395.003 116.56C394.723 116.373 394.443 116.187 394.163 116C393.976 115.72 393.789 115.44 393.603 115.16C393.416 114.973 393.229 114.88 393.043 114.88C392.483 114.88 392.203 114.6 392.203 114.04C392.109 113.48 392.016 112.92 391.923 112.36C391.829 111.8 391.736 111.24 391.643 110.68C391.549 109.84 391.456 109 391.363 108.16C391.363 107.32 391.269 106.527 391.083 105.78V104.52C391.083 104.147 391.036 103.82 390.943 103.54C390.943 103.26 390.943 102.933 390.943 102.56C390.756 102.093 390.756 101.72 390.943 101.44C391.129 99.76 391.129 98.08 390.943 96.4C390.849 95.9333 390.803 95.4667 390.803 95C390.803 94.5333 390.756 94.0667 390.663 93.6C390.663 92.6667 390.663 91.7333 390.663 90.8C390.663 89.7733 390.569 88.7933 390.383 87.86V85.62C390.383 84.8733 390.336 84.1733 390.243 83.52C390.243 82.8667 390.196 82.2133 390.103 81.56C390.009 80.72 389.916 79.88 389.823 79.04C389.823 78.2 389.776 77.36 389.683 76.52C389.589 76.3333 389.543 76.0067 389.543 75.54C389.449 75.0733 389.356 74.6067 389.263 74.14C389.263 73.58 389.263 73.0667 389.263 72.6L388.843 65.6C388.749 64.8533 388.656 64.1533 388.563 63.5C388.563 62.7533 388.563 62.0533 388.563 61.4C388.469 60.28 388.376 59.16 388.283 58.04C388.189 56.92 388.096 55.8467 388.003 54.82C388.003 54.6333 387.956 54.4467 387.863 54.26C387.863 54.0733 387.863 53.9333 387.863 53.84C387.863 52.72 387.816 51.6 387.723 50.48C387.629 49.36 387.536 48.1933 387.443 46.98L387.023 43.06C386.743 41.5667 386.696 39.9333 386.883 38.16C386.883 37.32 387.209 36.62 387.863 36.06C388.049 35.8733 388.189 35.78 388.283 35.78C388.376 35.6867 388.469 35.5933 388.563 35.5C389.029 35.4067 389.263 35.08 389.263 34.52C389.263 34.3333 389.449 34.24 389.823 34.24H390.523C390.616 34.24 390.663 34.24 390.663 34.24C390.756 34.1467 390.849 34.1 390.943 34.1C391.129 34.0067 391.269 33.9133 391.363 33.82C391.549 33.6333 391.689 33.54 391.783 33.54C391.969 33.54 392.156 33.5867 392.343 33.68C392.529 33.68 392.716 33.7267 392.903 33.82C393.089 33.82 393.229 33.7733 393.323 33.68C393.789 33.5867 394.256 33.6333 394.723 33.82C395.283 33.9133 395.749 34.0533 396.123 34.24C396.683 34.3333 397.103 34.7067 397.383 35.36C397.663 36.2 397.896 37.04 398.083 37.88C398.363 38.6267 398.549 39.42 398.643 40.26V41.38C398.829 42.0333 398.923 42.7333 398.923 43.48C398.923 44.1333 398.923 44.8333 398.923 45.58C398.923 46.2333 398.923 46.8867 398.923 47.54C399.016 48.1 399.109 48.66 399.203 49.22C399.203 49.5 399.203 49.78 399.203 50.06C399.203 50.34 399.249 50.62 399.343 50.9C399.343 51.46 399.343 52.02 399.343 52.58C399.436 53.14 399.529 53.7467 399.623 54.4C399.716 55.4267 399.809 56.5 399.903 57.62C399.996 58.74 400.043 59.86 400.043 60.98C400.043 61.4467 400.043 61.96 400.043 62.52C400.043 62.9867 400.089 63.4533 400.183 63.92C400.276 64.2 400.323 64.48 400.323 64.76C400.323 65.04 400.323 65.32 400.323 65.6V68.4C400.323 68.96 400.369 69.4267 400.463 69.8C400.649 70.4533 400.696 71.1067 400.603 71.76C400.603 72.32 400.649 72.9267 400.743 73.58L401.163 80.02C401.256 80.9533 401.303 81.9333 401.303 82.96C401.396 83.8933 401.443 84.8733 401.443 85.9C401.443 86.2733 401.443 86.6933 401.443 87.16C401.443 87.5333 401.489 87.9067 401.583 88.28C401.676 88.56 401.723 88.84 401.723 89.12C401.723 89.4 401.723 89.68 401.723 89.96C401.816 90.0533 401.816 90.24 401.723 90.52C401.723 90.7067 401.769 90.8933 401.863 91.08C402.049 91.7333 402.143 92.3867 402.143 93.04C402.143 93.6933 402.143 94.3933 402.143 95.14C402.143 95.5133 402.143 95.9333 402.143 96.4C402.236 96.7733 402.283 97.1933 402.283 97.66C402.376 98.1267 402.423 98.64 402.423 99.2C402.423 99.76 402.423 100.273 402.423 100.74C402.516 101.207 402.563 101.72 402.563 102.28C402.563 102.747 402.609 103.213 402.703 103.68C402.796 103.867 402.843 104.053 402.843 104.24C402.843 105.267 402.936 106.293 403.123 107.32C403.309 108.347 403.496 109.373 403.683 110.4C403.776 110.68 403.823 111.007 403.823 111.38C403.823 111.66 403.823 111.94 403.823 112.22C403.823 112.5 403.729 112.733 403.543 112.92C403.169 113.2 402.889 113.76 402.703 114.6C402.703 114.88 402.563 115.113 402.283 115.3C401.629 115.58 401.069 115.953 400.603 116.42C399.856 117.073 398.969 117.4 397.943 117.4ZM469.932 117.26C469.652 117.167 469.325 117.073 468.952 116.98C468.672 116.887 468.392 116.793 468.112 116.7C467.365 116.42 466.619 116.047 465.872 115.58C465.499 115.393 465.219 115.113 465.032 114.74C464.379 113.713 463.772 112.78 463.212 111.94C462.652 111.007 462.045 110.073 461.392 109.14L460.132 106.9C459.479 105.593 458.825 104.333 458.172 103.12C457.519 101.813 456.865 100.553 456.212 99.34C456.025 98.8733 455.792 98.5 455.512 98.22C455.325 97.8467 455.139 97.4733 454.952 97.1C454.299 96.0733 453.692 95.0467 453.132 94.02C452.572 92.9 452.012 91.8267 451.452 90.8L447.952 83.94C447.019 82.0733 446.085 80.2533 445.152 78.48C444.219 76.6133 443.285 74.7467 442.352 72.88C442.165 72.6933 441.979 72.4133 441.792 72.04C441.419 71.0133 440.952 70.0333 440.392 69.1C439.925 68.1667 439.459 67.2333 438.992 66.3C438.619 65.6467 438.292 64.9933 438.012 64.34C437.732 63.5933 437.405 62.8933 437.032 62.24L435.492 59.44C435.305 59.44 435.165 59.3933 435.072 59.3C435.072 59.3 435.025 59.3467 434.932 59.44C434.932 59.44 434.932 59.4867 434.932 59.58C434.839 60.7933 434.745 62.0533 434.652 63.36C434.559 64.6667 434.559 65.9733 434.652 67.28C434.839 67.84 434.839 68.4467 434.652 69.1C434.465 70.78 434.512 72.2733 434.792 73.58C434.885 73.9533 434.885 74.3267 434.792 74.7C434.792 75.0733 434.745 75.4933 434.652 75.96C434.559 76.6133 434.512 77.22 434.512 77.78C434.512 78.34 434.465 78.9467 434.372 79.6C434.559 79.9733 434.652 80.3933 434.652 80.86C434.652 81.2333 434.605 81.6067 434.512 81.98C434.232 82.9133 434.232 83.8933 434.512 84.92C434.699 85.2 434.699 85.48 434.512 85.76C434.139 86.6 434.045 87.6267 434.232 88.84C434.512 90.4267 434.419 92.1533 433.952 94.02C433.859 94.2067 433.812 94.5333 433.812 95C433.719 95.3733 433.812 95.7 434.092 95.98C434.465 96.1667 434.559 96.4 434.372 96.68C434.279 97.8933 434.279 99.1533 434.372 100.46C434.372 100.46 434.372 100.507 434.372 100.6C434.372 100.6 434.325 100.6 434.232 100.6C434.139 100.6 434.092 100.553 434.092 100.46C433.999 100.367 433.952 100.273 433.952 100.18C433.765 99.9933 433.672 100.04 433.672 100.32C433.672 100.787 433.719 101.067 433.812 101.16C433.999 101.627 434.092 102.093 434.092 102.56C434.092 103.027 434.092 103.493 434.092 103.96V108.3C434.092 108.58 434.045 108.86 433.952 109.14C433.952 109.42 433.812 109.653 433.532 109.84C433.159 109.933 432.972 110.26 432.972 110.82C432.879 111.847 432.505 112.733 431.852 113.48C431.292 114.227 430.639 114.88 429.892 115.44C429.519 115.72 429.052 115.907 428.492 116C428.025 116 427.559 115.953 427.092 115.86L424.572 115.02C424.385 115.02 424.199 114.88 424.012 114.6C423.732 114.32 423.452 114.04 423.172 113.76C422.892 113.387 422.565 113.06 422.192 112.78C421.725 112.5 421.399 111.987 421.212 111.24C421.119 110.773 420.979 110.26 420.792 109.7C420.605 109.14 420.512 108.58 420.512 108.02C420.512 107.367 420.512 106.76 420.512 106.2C420.605 105.64 420.652 105.033 420.652 104.38C420.745 103.913 420.792 103.493 420.792 103.12C420.792 102.653 420.839 102.187 420.932 101.72V50.48C420.932 50.0133 420.932 49.5467 420.932 49.08C421.025 48.6133 421.119 48.1933 421.212 47.82C421.212 47.3533 421.212 46.8867 421.212 46.42C421.305 45.9533 421.352 45.4867 421.352 45.02C421.352 44.46 421.352 43.9 421.352 43.34C421.445 42.78 421.539 42.2667 421.632 41.8C421.725 41.4267 421.772 41.1 421.772 40.82C421.772 40.54 421.772 40.2133 421.772 39.84V35.5C421.772 34.8467 421.819 34.2867 421.912 33.82C422.099 33.26 422.239 32.7 422.332 32.14L422.752 31.44C423.032 31.16 423.265 30.74 423.452 30.18C423.639 29.62 423.919 29.34 424.292 29.34C424.572 29.1533 424.852 29.0133 425.132 28.92C425.412 28.7333 425.599 28.4533 425.692 28.08L425.832 27.94C425.925 27.94 426.019 27.94 426.112 27.94C426.205 27.8467 426.299 27.8 426.392 27.8C426.765 27.8 427.045 27.7067 427.232 27.52C427.512 27.3333 427.839 27.2867 428.212 27.38C428.585 27.4733 428.959 27.52 429.332 27.52C429.705 27.52 430.079 27.5667 430.452 27.66C432.505 28.0333 433.952 29.2467 434.792 31.3L435.632 34.1C435.725 35.0333 436.145 35.92 436.892 36.76C437.452 37.4133 438.012 38.1133 438.572 38.86C439.132 39.6067 439.739 40.3533 440.392 41.1C442.819 44.18 445.059 47.6333 447.112 51.46C447.299 51.8333 447.485 52.2067 447.672 52.58C447.859 52.9533 448.045 53.3267 448.232 53.7L455.512 68.4C456.072 69.4267 456.585 70.5 457.052 71.62C457.612 72.6467 458.219 73.6733 458.872 74.7C459.059 75.0733 459.245 75.4467 459.432 75.82C459.619 76.1 459.759 76.4267 459.852 76.8C460.319 77.92 460.879 79.04 461.532 80.16C461.532 80.16 461.532 80.2067 461.532 80.3C461.625 80.3 461.672 80.2533 461.672 80.16C461.765 80.16 461.812 80.16 461.812 80.16C461.905 80.0667 461.952 80.02 461.952 80.02L462.372 75.12V73.72C462.465 73.2533 462.512 72.7867 462.512 72.32C462.605 71.76 462.699 71.2467 462.792 70.78C462.885 70.5 462.885 70.1733 462.792 69.8C462.792 69.4267 462.839 69.0533 462.932 68.68C462.932 68.12 462.932 67.56 462.932 67C463.025 66.3467 463.119 65.74 463.212 65.18C463.305 64.9 463.352 64.62 463.352 64.34C463.352 63.9667 463.352 63.64 463.352 63.36V59.58H463.212V55.8C463.212 55.3333 463.212 54.8667 463.212 54.4C463.212 53.9333 463.119 53.4667 462.932 53C462.839 52.72 462.792 52.3 462.792 51.74L462.932 50.76C462.932 50.48 462.885 50.2467 462.792 50.06C462.792 49.78 462.792 49.5 462.792 49.22C462.885 48.8467 462.839 48.4733 462.652 48.1C462.465 47.7267 462.372 47.3533 462.372 46.98C462.465 46.6067 462.512 46.2333 462.512 45.86C462.512 45.4867 462.512 45.1133 462.512 44.74C462.512 44.3667 462.325 44.18 461.952 44.18C461.859 44.18 461.812 44.0867 461.812 43.9C461.719 43.62 461.719 43.3867 461.812 43.2C461.999 42.7333 462.092 42.22 462.092 41.66C462.092 41.1 462.092 40.54 462.092 39.98V35.92C461.999 35.36 462.045 34.8 462.232 34.24C462.419 33.68 462.652 33.1667 462.932 32.7L463.492 31.86C463.959 31.3933 464.472 30.9267 465.032 30.46C465.592 29.9933 466.152 29.5267 466.712 29.06C466.712 29.06 466.899 28.9667 467.272 28.78C467.739 28.6867 468.159 28.5933 468.532 28.5C468.999 28.4067 469.465 28.4067 469.932 28.5C470.305 28.5 470.585 28.5467 470.772 28.64C471.145 28.8267 471.519 29.06 471.892 29.34C472.265 29.5267 472.639 29.76 473.012 30.04C473.199 30.1333 473.292 30.2267 473.292 30.32C473.385 30.4133 473.479 30.5067 473.572 30.6C473.759 30.7867 473.899 31.02 473.992 31.3C474.179 31.4867 474.319 31.6733 474.412 31.86C474.879 32.2333 475.159 32.7 475.252 33.26C475.439 33.7267 475.579 34.1933 475.672 34.66V40.54C475.672 41.1933 475.672 41.8467 475.672 42.5C475.765 43.06 475.859 43.6667 475.952 44.32C476.045 44.6933 476.092 45.0667 476.092 45.44C476.092 45.72 476.092 46.0467 476.092 46.42C476.092 47.1667 476.092 47.96 476.092 48.8C476.185 49.5467 476.232 50.2933 476.232 51.04V52.02C476.232 52.6733 476.185 53.3267 476.092 53.98C476.092 54.54 476.092 55.1467 476.092 55.8V61.96C476.092 62.8933 476.045 63.8733 475.952 64.9C475.952 65.8333 475.999 66.8133 476.092 67.84C476.092 68.2133 476.045 68.4933 475.952 68.68C475.859 69.6133 475.812 70.5467 475.812 71.48C475.812 72.32 475.765 73.2067 475.672 74.14C475.672 74.5133 475.672 74.9333 475.672 75.4C475.672 75.8667 475.625 76.3333 475.532 76.8C475.439 77.1733 475.392 77.5467 475.392 77.92C475.485 78.2933 475.532 78.6667 475.532 79.04C475.719 79.88 475.765 80.72 475.672 81.56C475.672 82.4 475.625 83.24 475.532 84.08C475.439 85.5733 475.345 87.1133 475.252 88.7C475.252 90.1933 475.345 91.7333 475.532 93.32C475.532 93.6933 475.532 94.1133 475.532 94.58C475.625 95.0467 475.672 95.5133 475.672 95.98C475.579 97.38 475.625 98.7333 475.812 100.04C476.092 101.347 476.372 102.653 476.652 103.96C476.839 104.893 477.025 105.827 477.212 106.76C477.399 107.6 477.539 108.533 477.632 109.56C477.632 109.933 477.585 110.167 477.492 110.26C477.399 110.447 477.305 110.68 477.212 110.96C477.119 111.147 477.072 111.333 477.072 111.52C476.979 112.267 476.699 112.967 476.232 113.62C475.859 114.273 475.439 114.927 474.972 115.58C473.759 117.167 472.079 117.727 469.932 117.26ZM509.783 117.96C509.13 117.96 508.336 117.727 507.403 117.26C506.936 116.98 506.563 116.607 506.283 116.14C506.19 115.86 505.956 115.86 505.583 116.14C505.303 116.327 505.07 116.327 504.883 116.14C504.603 115.86 504.323 115.673 504.043 115.58C503.67 115.58 503.483 115.44 503.483 115.16C503.483 114.88 503.436 114.647 503.343 114.46C503.343 114.18 503.25 113.947 503.063 113.76C502.503 113.573 502.13 113.107 501.943 112.36C501.85 112.08 501.756 111.847 501.663 111.66C501.57 111.38 501.43 111.1 501.243 110.82C501.056 110.447 500.963 110.12 500.963 109.84C500.87 109.56 500.776 109.327 500.683 109.14C500.683 108.86 500.59 108.58 500.403 108.3C500.31 107.647 500.123 107.04 499.843 106.48C499.563 105.92 499.33 105.313 499.143 104.66C498.956 104.287 498.863 103.773 498.863 103.12C498.863 101.44 499.143 99.9 499.703 98.5C500.17 97.66 500.31 96.82 500.123 95.98C500.03 95.6067 500.03 95.2333 500.123 94.86C500.31 94.4867 500.356 94.1133 500.263 93.74C500.17 93.3667 500.076 93.04 499.983 92.76C499.983 92.48 499.983 92.1533 499.983 91.78C499.89 91.5933 499.843 91.36 499.843 91.08C499.843 90.52 499.843 89.96 499.843 89.4C499.843 88.7467 499.75 88.0933 499.563 87.44C499.47 87.16 499.423 86.74 499.423 86.18V81C499.33 79.7867 499.19 78.5733 499.003 77.36C498.816 76.1467 498.583 74.9333 498.303 73.72C498.303 73.44 498.256 73.16 498.163 72.88C498.163 72.6 498.163 72.32 498.163 72.04C498.163 69.9867 497.836 67.98 497.183 66.02V64.76C497.37 63.7333 497.276 62.94 496.903 62.38C496.81 62.0067 496.763 61.4933 496.763 60.84V60.7C496.763 59.7667 496.716 58.8333 496.623 57.9C496.623 56.9667 496.67 56.0333 496.763 55.1C496.95 53.42 496.95 51.6467 496.763 49.78C496.763 49.0333 496.763 48.2867 496.763 47.54C496.763 46.7933 496.716 46.0933 496.623 45.44V44.6C496.81 44.1333 496.903 43.7133 496.903 43.34C496.903 42.9667 496.903 42.5933 496.903 42.22C496.903 41.1 496.856 40.0267 496.763 39C496.763 37.88 496.67 36.8067 496.483 35.78C496.483 35.5 496.483 35.22 496.483 34.94C496.483 34.5667 496.436 34.24 496.343 33.96C496.343 33.3067 496.11 32.7467 495.643 32.28L494.663 31.44C493.73 30.88 493.123 29.9933 492.843 28.78C492.75 28.5933 492.703 28.4533 492.703 28.36C492.703 28.1733 492.656 27.9867 492.563 27.8C492.376 27.3333 492.47 26.9133 492.843 26.54C493.123 26.1667 493.31 25.7933 493.403 25.42C493.403 25.14 493.45 24.9067 493.543 24.72C493.73 24.44 493.87 24.16 493.963 23.88C494.056 23.6 494.15 23.2733 494.243 22.9C494.43 22.62 494.57 22.5267 494.663 22.62C495.316 22.62 495.783 22.5267 496.063 22.34C496.716 21.8733 497.416 21.78 498.163 22.06C498.35 22.1533 498.63 22.1067 499.003 21.92C499.096 21.92 499.143 21.8733 499.143 21.78C499.61 21.3133 500.123 21.08 500.683 21.08C501.243 20.9867 501.85 20.9867 502.503 21.08C502.596 21.08 502.69 21.1267 502.783 21.22C502.876 21.22 502.97 21.22 503.063 21.22C503.81 21.4067 504.51 21.5933 505.163 21.78C505.91 21.8733 506.61 21.8733 507.263 21.78C507.73 21.78 508.196 21.8267 508.663 21.92C509.223 22.0133 509.736 22.06 510.203 22.06C510.576 22.06 510.903 22.1067 511.183 22.2C511.556 22.2933 511.883 22.3867 512.163 22.48C512.536 22.5733 512.863 22.7133 513.143 22.9C513.423 22.9933 513.75 23.04 514.123 23.04C514.59 23.1333 514.963 23.2267 515.243 23.32C515.616 23.4133 515.99 23.5533 516.363 23.74C517.576 24.3933 518.79 25 520.003 25.56C520.563 25.84 521.076 26.2133 521.543 26.68C522.196 27.1467 522.756 27.4267 523.223 27.52C523.316 27.52 523.41 27.5667 523.503 27.66C523.596 27.66 523.69 27.66 523.783 27.66C523.876 27.7533 523.97 27.8 524.063 27.8C524.156 27.8 524.25 27.8467 524.343 27.94C524.81 28.4067 525.37 28.78 526.023 29.06C526.77 29.2467 527.376 29.5733 527.843 30.04C528.03 30.2267 528.31 30.4133 528.683 30.6C529.43 30.88 530.083 31.3 530.643 31.86C530.83 32.0467 530.97 32.14 531.063 32.14C531.436 32.14 531.856 32.3733 532.323 32.84L535.263 35.92C535.636 36.2933 535.916 36.62 536.103 36.9C536.57 37.5533 537.083 38.16 537.643 38.72C538.203 39.28 538.763 39.84 539.323 40.4C539.51 40.5867 539.696 40.82 539.883 41.1C540.163 41.2867 540.35 41.52 540.443 41.8C540.536 41.9867 540.676 42.1733 540.863 42.36C541.05 42.4533 541.19 42.5933 541.283 42.78C542.31 43.9 543.29 45.0667 544.223 46.28C545.25 47.4933 546.183 48.7533 547.023 50.06C547.49 50.7133 547.91 51.4133 548.283 52.16C548.656 52.9067 548.983 53.6533 549.263 54.4C549.543 55.0533 549.823 55.7067 550.103 56.36C550.476 57.0133 550.803 57.6667 551.083 58.32C551.363 59.3467 551.69 60.28 552.063 61.12C552.436 62.3333 552.81 63.5 553.183 64.62C553.556 65.74 553.883 66.9533 554.163 68.26L554.583 70.08C554.583 70.8267 554.583 71.62 554.583 72.46C554.676 73.2067 554.723 74 554.723 74.84C554.723 75.2133 554.676 75.54 554.583 75.82C554.583 76.1 554.49 76.4267 554.303 76.8C554.116 77.36 554.023 77.8733 554.023 78.34C553.93 79.2733 553.696 80.16 553.323 81C553.043 81.84 552.716 82.6333 552.343 83.38C551.503 84.8733 550.756 86.3667 550.103 87.86C549.916 88.2333 549.73 88.6067 549.543 88.98C549.45 89.26 549.31 89.5867 549.123 89.96L548.283 91.64C547.63 92.9467 546.836 94.2533 545.903 95.56C545.063 96.7733 544.13 97.94 543.103 99.06C542.73 99.5267 542.263 99.9933 541.703 100.46C541.236 100.833 540.77 101.253 540.303 101.72C539.37 102.56 538.436 103.4 537.503 104.24C536.57 104.987 535.59 105.733 534.563 106.48C533.63 107.133 532.65 107.74 531.623 108.3C530.69 108.86 529.663 109.327 528.543 109.7C527.983 109.793 527.423 110.073 526.863 110.54C526.303 110.913 525.696 111.287 525.043 111.66C524.483 112.033 523.876 112.453 523.223 112.92C522.943 113.013 522.663 113.153 522.383 113.34C522.103 113.433 521.776 113.527 521.403 113.62C521.123 113.713 520.796 113.807 520.423 113.9C520.143 113.993 519.863 114.087 519.583 114.18C519.21 114.273 518.836 114.413 518.463 114.6C518.183 114.787 517.903 115.02 517.623 115.3C516.97 115.767 516.27 116.14 515.523 116.42C514.776 116.793 514.03 117.213 513.283 117.68C513.096 117.773 512.77 117.82 512.303 117.82C512.023 117.913 511.743 117.913 511.463 117.82C511.183 117.82 510.903 117.82 510.623 117.82V117.96H509.783ZM515.383 102.28C516.316 102.28 517.11 102.093 517.763 101.72C518.51 101.44 519.21 101.113 519.863 100.74C520.516 100.367 521.123 99.9467 521.683 99.48L523.363 97.8C524.296 97.0533 525.136 96.26 525.883 95.42C526.723 94.58 527.61 93.8333 528.543 93.18C528.73 92.9933 528.823 92.9 528.823 92.9C529.196 92.5267 529.523 92.2 529.803 91.92C530.176 91.5467 530.503 91.1733 530.783 90.8C530.97 90.6133 531.203 90.38 531.483 90.1C531.763 89.82 531.95 89.5867 532.043 89.4C532.416 88.7467 532.93 88.1867 533.583 87.72C534.05 87.44 534.33 87.16 534.423 86.88C534.61 86.4133 534.843 85.9467 535.123 85.48C535.496 85.0133 535.87 84.5933 536.243 84.22C536.71 83.66 537.176 82.82 537.643 81.7L538.203 80.3C538.763 78.9933 539.043 77.78 539.043 76.66C539.136 76.38 539.183 75.96 539.183 75.4C539.276 74 539.183 72.5067 538.903 70.92C538.81 70.4533 538.716 69.9867 538.623 69.52C538.53 69.0533 538.483 68.6333 538.483 68.26C538.39 67.8867 538.296 67.56 538.203 67.28C538.203 66.9067 538.11 66.58 537.923 66.3C537.736 65.9267 537.596 65.5533 537.503 65.18C537.41 64.8067 537.316 64.4333 537.223 64.06C537.223 63.4067 537.13 62.8467 536.943 62.38C536.756 61.82 536.57 61.26 536.383 60.7C536.103 60.14 535.823 59.58 535.543 59.02C535.263 58.3667 535.03 57.7133 534.843 57.06L534.703 56.5C534.423 56.1267 534.19 55.7533 534.003 55.38C533.91 54.9133 533.77 54.4933 533.583 54.12C533.21 53.28 532.836 52.44 532.463 51.6C532.183 50.76 531.81 49.9667 531.343 49.22C530.876 48.38 530.363 47.54 529.803 46.7C529.336 45.86 528.73 45.1133 527.983 44.46C525.836 42.1267 523.363 40.0267 520.563 38.16C518.883 36.9467 517.203 36.1533 515.523 35.78C514.87 35.5933 514.123 35.4533 513.283 35.36C512.443 35.1733 511.65 35.0333 510.903 34.94C510.623 34.94 510.39 35.0333 510.203 35.22C509.736 35.5933 509.503 36.06 509.503 36.62C509.503 37.2733 509.456 37.9733 509.363 38.72C509.363 39.3733 509.363 40.0733 509.363 40.82C509.55 42.1267 509.503 43.2 509.223 44.04C509.13 44.4133 509.036 44.7867 508.943 45.16C508.943 45.5333 508.99 45.9533 509.083 46.42C509.27 46.98 509.223 47.4933 508.943 47.96C508.663 48.52 508.663 49.1267 508.943 49.78C509.316 50.5267 509.41 51.46 509.223 52.58C508.943 53.7 508.943 54.82 509.223 55.94C509.316 56.3133 509.363 56.6867 509.363 57.06C509.456 57.4333 509.456 57.8533 509.363 58.32C509.363 59.3467 509.41 60.3733 509.503 61.4C509.69 62.4267 509.83 63.4533 509.923 64.48C509.923 64.6667 510.016 64.9467 510.203 65.32V67.56C510.203 67.7467 510.156 67.98 510.063 68.26C510.063 68.4467 510.11 68.6333 510.203 68.82C510.39 69.5667 510.53 70.36 510.623 71.2C510.81 71.9467 510.996 72.6933 511.183 73.44C511.183 73.6267 511.23 73.86 511.323 74.14C511.416 74.3267 511.463 74.56 511.463 74.84C511.463 75.4933 511.51 76.1467 511.603 76.8C511.696 77.4533 511.79 78.1533 511.883 78.9C512.163 81.5133 512.583 84.1733 513.143 86.88C513.423 88 513.563 89.1667 513.563 90.38C513.563 90.66 513.563 90.9867 513.563 91.36C513.563 91.64 513.61 91.92 513.703 92.2C513.89 92.8533 513.983 93.5067 513.983 94.16C513.983 94.8133 513.983 95.4667 513.983 96.12C513.983 96.3067 513.936 96.54 513.843 96.82C513.843 97.1 513.89 97.3333 513.983 97.52C514.17 97.9867 514.263 98.4533 514.263 98.92C514.263 99.2933 514.263 99.7133 514.263 100.18C514.263 100.553 514.356 101.02 514.543 101.58C514.543 102.047 514.823 102.28 515.383 102.28Z" fill="#633CB1"/>
<path d="M13 141.5C20.4861 131.5 27.9722 131.5 35.4583 141.5C42.9444 151.5 50.4306 151.5 57.9167 141.5C65.4028 131.5 72.8889 131.5 80.375 141.5C87.8611 151.5 95.3472 151.5 102.833 141.5C110.319 131.5 117.806 131.5 125.292 141.5C132.778 151.5 140.264 151.5 147.75 141.5C155.236 131.5 162.722 131.5 170.208 141.5C177.694 151.5 185.181 151.5 192.667 141.5C200.153 131.5 207.639 131.5 215.125 141.5C222.611 151.5 230.097 151.5 237.583 141.5C245.069 131.5 252.556 131.5 260.042 141.5C267.528 151.5 275.014 151.5 282.5 141.5" stroke="#AD8FE9" stroke-width="9" stroke-linecap="round"/>
<path d="M552 141.5C544.514 151.5 537.028 151.5 529.542 141.5C522.056 131.5 514.569 131.5 507.083 141.5C499.597 151.5 492.111 151.5 484.625 141.5C477.139 131.5 469.653 131.5 462.167 141.5C454.681 151.5 447.194 151.5 439.708 141.5C432.222 131.5 424.736 131.5 417.25 141.5C409.764 151.5 402.278 151.5 394.792 141.5C387.306 131.5 379.819 131.5 372.333 141.5C364.847 151.5 357.361 151.5 349.875 141.5C342.389 131.5 334.903 131.5 327.417 141.5C319.931 151.5 312.444 151.5 304.958 141.5C297.472 131.5 289.986 131.5 282.5 141.5C275.014 151.5 267.528 151.5 260.042 141.5C252.556 131.5 245.069 131.5 237.583 141.5C230.097 151.5 222.611 151.5 215.125 141.5C207.639 131.5 200.153 131.5 192.667 141.5C185.181 151.5 177.694 151.5 170.208 141.5C162.722 131.5 155.236 131.5 147.75 141.5C140.264 151.5 132.778 151.5 125.292 141.5C117.806 131.5 110.319 131.5 102.833 141.5C95.3472 151.5 87.8611 151.5 80.375 141.5C72.8889 131.5 65.4028 131.5 57.9167 141.5C50.4306 151.5 42.9444 151.5 35.4583 141.5C27.9722 131.5 20.4861 131.5 13 141.5" stroke="#AD8FE9" stroke-width="9" stroke-linecap="round"/>
</svg>
