<svg width="549" height="135" viewBox="0 0 549 135" fill="none" xmlns="http://www.w3.org/2000/svg">
<path d="M501.783 98.96C501.13 98.96 500.336 98.7267 499.403 98.26C498.936 97.98 498.563 97.6067 498.283 97.14C498.19 96.86 497.956 96.86 497.583 97.14C497.303 97.3267 497.07 97.3267 496.883 97.14C496.603 96.86 496.323 96.6734 496.043 96.58C495.67 96.58 495.483 96.44 495.483 96.16C495.483 95.88 495.436 95.6467 495.343 95.46C495.343 95.18 495.25 94.9467 495.063 94.76C494.503 94.5734 494.13 94.1067 493.943 93.36C493.85 93.08 493.756 92.8467 493.663 92.66C493.57 92.38 493.43 92.1 493.243 91.82C493.056 91.4467 492.963 91.12 492.963 90.84C492.87 90.56 492.776 90.3267 492.683 90.14C492.683 89.86 492.59 89.58 492.403 89.3C492.31 88.6467 492.123 88.04 491.843 87.48C491.563 86.92 491.33 86.3134 491.143 85.66C490.956 85.2867 490.863 84.7733 490.863 84.12C490.863 82.44 491.143 80.9 491.703 79.5C492.17 78.66 492.31 77.82 492.123 76.98C492.03 76.6067 492.03 76.2333 492.123 75.86C492.31 75.4867 492.356 75.1133 492.263 74.74C492.17 74.3667 492.076 74.04 491.983 73.76C491.983 73.48 491.983 73.1533 491.983 72.78C491.89 72.5933 491.843 72.36 491.843 72.08C491.843 71.52 491.843 70.96 491.843 70.4C491.843 69.7467 491.75 69.0933 491.563 68.44C491.47 68.16 491.423 67.74 491.423 67.18V62C491.33 60.7867 491.19 59.5733 491.003 58.36C490.816 57.1467 490.583 55.9333 490.303 54.72C490.303 54.44 490.256 54.16 490.163 53.88C490.163 53.6 490.163 53.32 490.163 53.04C490.163 50.9867 489.836 48.98 489.183 47.02V45.76C489.37 44.7333 489.276 43.94 488.903 43.38C488.81 43.0067 488.763 42.4933 488.763 41.84V41.7C488.763 40.7667 488.716 39.8333 488.623 38.9C488.623 37.9667 488.67 37.0333 488.763 36.1C488.95 34.42 488.95 32.6467 488.763 30.78C488.763 30.0333 488.763 29.2867 488.763 28.54C488.763 27.7933 488.716 27.0933 488.623 26.44V25.6C488.81 25.1333 488.903 24.7133 488.903 24.34C488.903 23.9667 488.903 23.5933 488.903 23.22C488.903 22.1 488.856 21.0267 488.763 20C488.763 18.88 488.67 17.8067 488.483 16.78C488.483 16.5 488.483 16.22 488.483 15.94C488.483 15.5667 488.436 15.24 488.343 14.96C488.343 14.3067 488.11 13.7467 487.643 13.28L486.663 12.44C485.73 11.88 485.123 10.9933 484.843 9.78001C484.75 9.59335 484.703 9.45334 484.703 9.36001C484.703 9.17334 484.656 8.98667 484.563 8.8C484.376 8.33334 484.47 7.91334 484.843 7.54C485.123 7.16668 485.31 6.79335 485.403 6.42001C485.403 6.14001 485.45 5.90668 485.543 5.72001C485.73 5.44001 485.87 5.16001 485.963 4.88001C486.056 4.60001 486.15 4.27334 486.243 3.90001C486.43 3.62001 486.57 3.52667 486.663 3.62C487.316 3.62 487.783 3.52667 488.063 3.34001C488.716 2.87334 489.416 2.78001 490.163 3.06001C490.35 3.15334 490.63 3.10668 491.003 2.92001C491.096 2.92001 491.143 2.87334 491.143 2.78001C491.61 2.31334 492.123 2.08001 492.683 2.08001C493.243 1.98668 493.85 1.98668 494.503 2.08001C494.596 2.08001 494.69 2.12667 494.783 2.22001C494.876 2.22001 494.97 2.22001 495.063 2.22001C495.81 2.40668 496.51 2.59334 497.163 2.78001C497.91 2.87334 498.61 2.87334 499.263 2.78001C499.73 2.78001 500.196 2.82667 500.663 2.92001C501.223 3.01334 501.736 3.06001 502.203 3.06001C502.576 3.06001 502.903 3.10668 503.183 3.20001C503.556 3.29334 503.883 3.38667 504.163 3.48001C504.536 3.57334 504.863 3.71334 505.143 3.90001C505.423 3.99334 505.75 4.04001 506.123 4.04001C506.59 4.13334 506.963 4.22667 507.243 4.32C507.616 4.41334 507.99 4.55334 508.363 4.74001C509.576 5.39334 510.79 6.00001 512.003 6.56001C512.563 6.84001 513.076 7.21335 513.543 7.68001C514.196 8.14668 514.756 8.42668 515.223 8.52001C515.316 8.52001 515.41 8.56667 515.503 8.66001C515.596 8.66001 515.69 8.66001 515.783 8.66001C515.876 8.75334 515.97 8.8 516.063 8.8C516.156 8.8 516.25 8.84667 516.343 8.94001C516.81 9.40668 517.37 9.78001 518.023 10.06C518.77 10.2467 519.376 10.5733 519.843 11.04C520.03 11.2267 520.31 11.4133 520.683 11.6C521.43 11.88 522.083 12.3 522.643 12.86C522.83 13.0467 522.97 13.14 523.063 13.14C523.436 13.14 523.856 13.3733 524.323 13.84L527.263 16.92C527.636 17.2933 527.916 17.62 528.103 17.9C528.57 18.5533 529.083 19.16 529.643 19.72C530.203 20.28 530.763 20.84 531.323 21.4C531.51 21.5867 531.696 21.82 531.883 22.1C532.163 22.2867 532.35 22.52 532.443 22.8C532.536 22.9867 532.676 23.1733 532.863 23.36C533.05 23.4533 533.19 23.5933 533.283 23.78C534.31 24.9 535.29 26.0667 536.223 27.28C537.25 28.4933 538.183 29.7533 539.023 31.06C539.49 31.7133 539.91 32.4133 540.283 33.16C540.656 33.9067 540.983 34.6533 541.263 35.4C541.543 36.0533 541.823 36.7067 542.103 37.36C542.476 38.0133 542.803 38.6667 543.083 39.32C543.363 40.3467 543.69 41.28 544.063 42.12C544.436 43.3333 544.81 44.5 545.183 45.62C545.556 46.74 545.883 47.9533 546.163 49.26L546.583 51.08C546.583 51.8267 546.583 52.62 546.583 53.46C546.676 54.2067 546.723 55 546.723 55.84C546.723 56.2133 546.676 56.54 546.583 56.82C546.583 57.1 546.49 57.4267 546.303 57.8C546.116 58.36 546.023 58.8733 546.023 59.34C545.93 60.2733 545.696 61.16 545.323 62C545.043 62.84 544.716 63.6333 544.343 64.38C543.503 65.8733 542.756 67.3667 542.103 68.86C541.916 69.2333 541.73 69.6067 541.543 69.98C541.45 70.26 541.31 70.5867 541.123 70.96L540.283 72.64C539.63 73.9467 538.836 75.2533 537.903 76.56C537.063 77.7733 536.13 78.94 535.103 80.06C534.73 80.5267 534.263 80.9933 533.703 81.46C533.236 81.8333 532.77 82.2533 532.303 82.72C531.37 83.56 530.436 84.4 529.503 85.24C528.57 85.9867 527.59 86.7333 526.563 87.48C525.63 88.1333 524.65 88.74 523.623 89.3C522.69 89.86 521.663 90.3267 520.543 90.7C519.983 90.7933 519.423 91.0733 518.863 91.54C518.303 91.9133 517.696 92.2867 517.043 92.66C516.483 93.0333 515.876 93.4533 515.223 93.92C514.943 94.0133 514.663 94.1533 514.383 94.34C514.103 94.4333 513.776 94.5267 513.403 94.62C513.123 94.7134 512.796 94.8067 512.423 94.9C512.143 94.9934 511.863 95.0867 511.583 95.18C511.21 95.2733 510.836 95.4133 510.463 95.6C510.183 95.7867 509.903 96.02 509.623 96.3C508.97 96.7667 508.27 97.14 507.523 97.42C506.776 97.7933 506.03 98.2133 505.283 98.68C505.096 98.7733 504.77 98.82 504.303 98.82C504.023 98.9133 503.743 98.9133 503.463 98.82C503.183 98.82 502.903 98.82 502.623 98.82V98.96H501.783ZM507.383 83.28C508.316 83.28 509.11 83.0933 509.763 82.72C510.51 82.44 511.21 82.1133 511.863 81.74C512.516 81.3667 513.123 80.9467 513.683 80.48L515.363 78.8C516.296 78.0533 517.136 77.26 517.883 76.42C518.723 75.58 519.61 74.8333 520.543 74.18C520.73 73.9933 520.823 73.9 520.823 73.9C521.196 73.5267 521.523 73.2 521.803 72.92C522.176 72.5467 522.503 72.1733 522.783 71.8C522.97 71.6133 523.203 71.38 523.483 71.1C523.763 70.82 523.95 70.5867 524.043 70.4C524.416 69.7467 524.93 69.1867 525.583 68.72C526.05 68.44 526.33 68.16 526.423 67.88C526.61 67.4133 526.843 66.9467 527.123 66.48C527.496 66.0133 527.87 65.5933 528.243 65.22C528.71 64.66 529.176 63.82 529.643 62.7L530.203 61.3C530.763 59.9933 531.043 58.78 531.043 57.66C531.136 57.38 531.183 56.96 531.183 56.4C531.276 55 531.183 53.5067 530.903 51.92C530.81 51.4533 530.716 50.9867 530.623 50.52C530.53 50.0533 530.483 49.6333 530.483 49.26C530.39 48.8867 530.296 48.56 530.203 48.28C530.203 47.9067 530.11 47.58 529.923 47.3C529.736 46.9267 529.596 46.5533 529.503 46.18C529.41 45.8067 529.316 45.4333 529.223 45.06C529.223 44.4067 529.13 43.8467 528.943 43.38C528.756 42.82 528.57 42.26 528.383 41.7C528.103 41.14 527.823 40.58 527.543 40.02C527.263 39.3667 527.03 38.7133 526.843 38.06L526.703 37.5C526.423 37.1267 526.19 36.7533 526.003 36.38C525.91 35.9133 525.77 35.4933 525.583 35.12C525.21 34.28 524.836 33.44 524.463 32.6C524.183 31.76 523.81 30.9667 523.343 30.22C522.876 29.38 522.363 28.54 521.803 27.7C521.336 26.86 520.73 26.1133 519.983 25.46C517.836 23.1267 515.363 21.0267 512.563 19.16C510.883 17.9467 509.203 17.1533 507.523 16.78C506.87 16.5933 506.123 16.4533 505.283 16.36C504.443 16.1733 503.65 16.0333 502.903 15.94C502.623 15.94 502.39 16.0333 502.203 16.22C501.736 16.5933 501.503 17.06 501.503 17.62C501.503 18.2733 501.456 18.9733 501.363 19.72C501.363 20.3733 501.363 21.0733 501.363 21.82C501.55 23.1267 501.503 24.2 501.223 25.04C501.13 25.4133 501.036 25.7867 500.943 26.16C500.943 26.5333 500.99 26.9533 501.083 27.42C501.27 27.98 501.223 28.4933 500.943 28.96C500.663 29.52 500.663 30.1267 500.943 30.78C501.316 31.5267 501.41 32.46 501.223 33.58C500.943 34.7 500.943 35.82 501.223 36.94C501.316 37.3133 501.363 37.6867 501.363 38.06C501.456 38.4333 501.456 38.8533 501.363 39.32C501.363 40.3467 501.41 41.3733 501.503 42.4C501.69 43.4267 501.83 44.4533 501.923 45.48C501.923 45.6667 502.016 45.9467 502.203 46.32V48.56C502.203 48.7467 502.156 48.98 502.063 49.26C502.063 49.4467 502.11 49.6333 502.203 49.82C502.39 50.5667 502.53 51.36 502.623 52.2C502.81 52.9467 502.996 53.6933 503.183 54.44C503.183 54.6267 503.23 54.86 503.323 55.14C503.416 55.3267 503.463 55.56 503.463 55.84C503.463 56.4933 503.51 57.1467 503.603 57.8C503.696 58.4533 503.79 59.1533 503.883 59.9C504.163 62.5133 504.583 65.1733 505.143 67.88C505.423 69 505.563 70.1667 505.563 71.38C505.563 71.66 505.563 71.9867 505.563 72.36C505.563 72.64 505.61 72.92 505.703 73.2C505.89 73.8533 505.983 74.5067 505.983 75.16C505.983 75.8133 505.983 76.4667 505.983 77.12C505.983 77.3067 505.936 77.54 505.843 77.82C505.843 78.1 505.89 78.3333 505.983 78.52C506.17 78.9867 506.263 79.4533 506.263 79.92C506.263 80.2933 506.263 80.7133 506.263 81.18C506.263 81.5533 506.356 82.02 506.543 82.58C506.543 83.0467 506.823 83.28 507.383 83.28Z" fill="#BDA2F2"/>
<path d="M461.932 98.2599C461.652 98.1666 461.325 98.0733 460.952 97.9799C460.672 97.8866 460.392 97.7933 460.112 97.6999C459.365 97.4199 458.619 97.0466 457.872 96.5799C457.499 96.3933 457.219 96.1133 457.032 95.7399C456.379 94.7133 455.772 93.7799 455.212 92.9399C454.652 92.0066 454.045 91.0733 453.392 90.1399L452.132 87.8999C451.479 86.5933 450.825 85.3333 450.172 84.1199C449.519 82.8133 448.865 81.5533 448.212 80.3399C448.025 79.8733 447.792 79.4999 447.512 79.2199C447.325 78.8466 447.139 78.4733 446.952 78.0999C446.299 77.0733 445.692 76.0466 445.132 75.0199C444.572 73.8999 444.012 72.8266 443.452 71.7999L439.952 64.9399C439.019 63.0732 438.085 61.2532 437.152 59.4799C436.219 57.6132 435.285 55.7466 434.352 53.8799C434.165 53.6933 433.979 53.4133 433.792 53.0399C433.419 52.0133 432.952 51.0333 432.392 50.0999C431.925 49.1666 431.459 48.2332 430.992 47.2999C430.619 46.6466 430.292 45.9932 430.012 45.3399C429.732 44.5933 429.405 43.8933 429.032 43.2399L427.492 40.4399C427.305 40.4399 427.165 40.3933 427.072 40.2999C427.072 40.2999 427.025 40.3466 426.932 40.4399C426.932 40.4399 426.932 40.4866 426.932 40.5799C426.839 41.7933 426.745 43.0533 426.652 44.3599C426.559 45.6666 426.559 46.9733 426.652 48.2799C426.839 48.8399 426.839 49.4466 426.652 50.0999C426.465 51.7799 426.512 53.2733 426.792 54.5799C426.885 54.9533 426.885 55.3266 426.792 55.6999C426.792 56.0733 426.745 56.4933 426.652 56.9599C426.559 57.6133 426.512 58.2199 426.512 58.7799C426.512 59.3399 426.465 59.9466 426.372 60.5999C426.559 60.9733 426.652 61.3933 426.652 61.8599C426.652 62.2333 426.605 62.6066 426.512 62.9799C426.232 63.9132 426.232 64.8933 426.512 65.9199C426.699 66.1999 426.699 66.4799 426.512 66.7599C426.139 67.5999 426.045 68.6266 426.232 69.8399C426.512 71.4266 426.419 73.1533 425.952 75.0199C425.859 75.2066 425.812 75.5333 425.812 75.9999C425.719 76.3733 425.812 76.6999 426.092 76.9799C426.465 77.1666 426.559 77.3999 426.372 77.6799C426.279 78.8933 426.279 80.1533 426.372 81.4599C426.372 81.4599 426.372 81.5066 426.372 81.5999C426.372 81.5999 426.325 81.5999 426.232 81.5999C426.139 81.5999 426.092 81.5533 426.092 81.4599C425.999 81.3666 425.952 81.2733 425.952 81.1799C425.765 80.9933 425.672 81.0399 425.672 81.3199C425.672 81.7866 425.719 82.0666 425.812 82.1599C425.999 82.6266 426.092 83.0933 426.092 83.5599C426.092 84.0266 426.092 84.4933 426.092 84.9599V89.2999C426.092 89.5799 426.045 89.8599 425.952 90.1399C425.952 90.4199 425.812 90.6533 425.532 90.8399C425.159 90.9333 424.972 91.2599 424.972 91.8199C424.879 92.8466 424.505 93.7333 423.852 94.4799C423.292 95.2266 422.639 95.8799 421.892 96.4399C421.519 96.7199 421.052 96.9066 420.492 96.9999C420.025 96.9999 419.559 96.9533 419.092 96.8599L416.572 96.0199C416.385 96.0199 416.199 95.8799 416.012 95.5999C415.732 95.3199 415.452 95.0399 415.172 94.7599C414.892 94.3866 414.565 94.0599 414.192 93.7799C413.725 93.4999 413.399 92.9866 413.212 92.2399C413.119 91.7733 412.979 91.2599 412.792 90.6999C412.605 90.1399 412.512 89.5799 412.512 89.0199C412.512 88.3666 412.512 87.7599 412.512 87.1999C412.605 86.6399 412.652 86.0333 412.652 85.3799C412.745 84.9133 412.792 84.4933 412.792 84.1199C412.792 83.6533 412.839 83.1866 412.932 82.7199V31.4799C412.932 31.0132 412.932 30.5466 412.932 30.0799C413.025 29.6133 413.119 29.1932 413.212 28.8199C413.212 28.3532 413.212 27.8866 413.212 27.4199C413.305 26.9532 413.352 26.4866 413.352 26.0199C413.352 25.4599 413.352 24.8999 413.352 24.3399C413.445 23.7799 413.539 23.2666 413.632 22.7999C413.725 22.4266 413.772 22.0999 413.772 21.8199C413.772 21.5399 413.772 21.2133 413.772 20.8399V16.4999C413.772 15.8466 413.819 15.2866 413.912 14.8199C414.099 14.2599 414.239 13.6999 414.332 13.1399L414.752 12.4399C415.032 12.1599 415.265 11.7399 415.452 11.1799C415.639 10.6199 415.919 10.3399 416.292 10.3399C416.572 10.1532 416.852 10.0132 417.132 9.91991C417.412 9.73325 417.599 9.45325 417.692 9.07992L417.832 8.93992C417.925 8.93992 418.019 8.93992 418.112 8.93992C418.205 8.84658 418.299 8.79991 418.392 8.79991C418.765 8.79991 419.045 8.70658 419.232 8.51992C419.512 8.33325 419.839 8.28659 420.212 8.37992C420.585 8.47325 420.959 8.51992 421.332 8.51992C421.705 8.51992 422.079 8.56658 422.452 8.65991C424.505 9.03325 425.952 10.2466 426.792 12.2999L427.632 15.0999C427.725 16.0332 428.145 16.9199 428.892 17.7599C429.452 18.4133 430.012 19.1133 430.572 19.8599C431.132 20.6066 431.739 21.3532 432.392 22.0999C434.819 25.1799 437.059 28.6332 439.112 32.4599C439.299 32.8332 439.485 33.2066 439.672 33.5799C439.859 33.9532 440.045 34.3266 440.232 34.6999L447.512 49.3999C448.072 50.4266 448.585 51.4999 449.052 52.6199C449.612 53.6466 450.219 54.6732 450.872 55.6999C451.059 56.0733 451.245 56.4466 451.432 56.8199C451.619 57.0999 451.759 57.4266 451.852 57.7999C452.319 58.9199 452.879 60.0399 453.532 61.1599C453.532 61.1599 453.532 61.2066 453.532 61.2999C453.625 61.2999 453.672 61.2532 453.672 61.1599C453.765 61.1599 453.812 61.1599 453.812 61.1599C453.905 61.0666 453.952 61.0199 453.952 61.0199L454.372 56.1199V54.7199C454.465 54.2533 454.512 53.7866 454.512 53.3199C454.605 52.7599 454.699 52.2466 454.792 51.7799C454.885 51.4999 454.885 51.1732 454.792 50.7999C454.792 50.4266 454.839 50.0532 454.932 49.6799C454.932 49.1199 454.932 48.5599 454.932 47.9999C455.025 47.3466 455.119 46.7399 455.212 46.1799C455.305 45.8999 455.352 45.6199 455.352 45.3399C455.352 44.9666 455.352 44.6399 455.352 44.3599V40.5799H455.212V36.7999C455.212 36.3333 455.212 35.8666 455.212 35.3999C455.212 34.9333 455.119 34.4666 454.932 33.9999C454.839 33.7199 454.792 33.2999 454.792 32.7399L454.932 31.7599C454.932 31.4799 454.885 31.2466 454.792 31.0599C454.792 30.7799 454.792 30.4999 454.792 30.2199C454.885 29.8466 454.839 29.4732 454.652 29.0999C454.465 28.7266 454.372 28.3532 454.372 27.9799C454.465 27.6066 454.512 27.2332 454.512 26.8599C454.512 26.4866 454.512 26.1133 454.512 25.7399C454.512 25.3666 454.325 25.1799 453.952 25.1799C453.859 25.1799 453.812 25.0866 453.812 24.8999C453.719 24.6199 453.719 24.3866 453.812 24.1999C453.999 23.7332 454.092 23.2199 454.092 22.6599C454.092 22.0999 454.092 21.5399 454.092 20.9799V16.9199C453.999 16.3599 454.045 15.7999 454.232 15.2399C454.419 14.6799 454.652 14.1666 454.932 13.6999L455.492 12.8599C455.959 12.3933 456.472 11.9266 457.032 11.4599C457.592 10.9932 458.152 10.5266 458.712 10.0599C458.712 10.0599 458.899 9.96658 459.272 9.77992C459.739 9.68659 460.159 9.59325 460.532 9.49992C460.999 9.40658 461.465 9.40658 461.932 9.49992C462.305 9.49992 462.585 9.54659 462.772 9.63992C463.145 9.82658 463.519 10.0599 463.892 10.3399C464.265 10.5266 464.639 10.7599 465.012 11.0399C465.199 11.1332 465.292 11.2266 465.292 11.3199C465.385 11.4133 465.479 11.5066 465.572 11.5999C465.759 11.7866 465.899 12.0199 465.992 12.2999C466.179 12.4866 466.319 12.6732 466.412 12.8599C466.879 13.2333 467.159 13.6999 467.252 14.2599C467.439 14.7266 467.579 15.1933 467.672 15.6599V21.5399C467.672 22.1933 467.672 22.8466 467.672 23.4999C467.765 24.0599 467.859 24.6666 467.952 25.3199C468.045 25.6932 468.092 26.0666 468.092 26.4399C468.092 26.7199 468.092 27.0466 468.092 27.4199C468.092 28.1666 468.092 28.9599 468.092 29.7999C468.185 30.5466 468.232 31.2932 468.232 32.0399V33.0199C468.232 33.6732 468.185 34.3266 468.092 34.9799C468.092 35.5399 468.092 36.1466 468.092 36.7999V42.9599C468.092 43.8933 468.045 44.8733 467.952 45.8999C467.952 46.8333 467.999 47.8132 468.092 48.8399C468.092 49.2133 468.045 49.4932 467.952 49.6799C467.859 50.6132 467.812 51.5466 467.812 52.4799C467.812 53.3199 467.765 54.2066 467.672 55.1399C467.672 55.5133 467.672 55.9332 467.672 56.3999C467.672 56.8666 467.625 57.3333 467.532 57.7999C467.439 58.1733 467.392 58.5466 467.392 58.9199C467.485 59.2933 467.532 59.6666 467.532 60.0399C467.719 60.8799 467.765 61.7199 467.672 62.5599C467.672 63.3999 467.625 64.2399 467.532 65.0799C467.439 66.5732 467.345 68.1132 467.252 69.6999C467.252 71.1933 467.345 72.7333 467.532 74.3199C467.532 74.6933 467.532 75.1133 467.532 75.5799C467.625 76.0466 467.672 76.5133 467.672 76.9799C467.579 78.3799 467.625 79.7333 467.812 81.0399C468.092 82.3466 468.372 83.6533 468.652 84.9599C468.839 85.8933 469.025 86.8266 469.212 87.7599C469.399 88.5999 469.539 89.5333 469.632 90.5599C469.632 90.9333 469.585 91.1666 469.492 91.2599C469.399 91.4466 469.305 91.6799 469.212 91.9599C469.119 92.1466 469.072 92.3333 469.072 92.5199C468.979 93.2666 468.699 93.9666 468.232 94.6199C467.859 95.2733 467.439 95.9266 466.972 96.5799C465.759 98.1666 464.079 98.7266 461.932 98.2599Z" fill="#BDA2F2"/>
<path d="M389.943 98.4C389.383 98.4 389.009 98.3534 388.823 98.26C388.449 98.0734 388.123 97.9334 387.843 97.84C387.563 97.7467 387.283 97.6534 387.003 97.56C386.723 97.3734 386.443 97.1867 386.163 97C385.976 96.72 385.789 96.44 385.603 96.16C385.416 95.9734 385.229 95.88 385.043 95.88C384.483 95.88 384.203 95.6 384.203 95.04C384.109 94.48 384.016 93.92 383.923 93.36C383.829 92.8 383.736 92.24 383.643 91.68C383.549 90.84 383.456 90 383.363 89.16C383.363 88.32 383.269 87.5267 383.083 86.78V85.52C383.083 85.1467 383.036 84.82 382.943 84.54C382.943 84.26 382.943 83.9334 382.943 83.56C382.756 83.0934 382.756 82.72 382.943 82.44C383.129 80.76 383.129 79.08 382.943 77.4C382.849 76.9334 382.803 76.4667 382.803 76C382.803 75.5334 382.756 75.0667 382.663 74.6C382.663 73.6667 382.663 72.7334 382.663 71.8C382.663 70.7734 382.569 69.7934 382.383 68.86V66.62C382.383 65.8734 382.336 65.1734 382.243 64.52C382.243 63.8667 382.196 63.2134 382.103 62.56C382.009 61.72 381.916 60.88 381.823 60.04C381.823 59.2 381.776 58.36 381.683 57.52C381.589 57.3334 381.543 57.0067 381.543 56.54C381.449 56.0734 381.356 55.6067 381.263 55.14C381.263 54.58 381.263 54.0667 381.263 53.6L380.843 46.6C380.749 45.8534 380.656 45.1534 380.563 44.5C380.563 43.7534 380.563 43.0534 380.563 42.4C380.469 41.28 380.376 40.16 380.283 39.04C380.189 37.92 380.096 36.8467 380.003 35.82C380.003 35.6334 379.956 35.4467 379.863 35.26C379.863 35.0734 379.863 34.9334 379.863 34.84C379.863 33.72 379.816 32.6 379.723 31.48C379.629 30.36 379.536 29.1934 379.443 27.98L379.023 24.06C378.743 22.5667 378.696 20.9334 378.883 19.16C378.883 18.32 379.209 17.62 379.863 17.06C380.049 16.8734 380.189 16.78 380.283 16.78C380.376 16.6867 380.469 16.5934 380.563 16.5C381.029 16.4067 381.263 16.08 381.263 15.52C381.263 15.3334 381.449 15.24 381.823 15.24H382.523C382.616 15.24 382.663 15.24 382.663 15.24C382.756 15.1467 382.849 15.1 382.943 15.1C383.129 15.0067 383.269 14.9134 383.363 14.82C383.549 14.6334 383.689 14.54 383.783 14.54C383.969 14.54 384.156 14.5867 384.343 14.68C384.529 14.68 384.716 14.7267 384.903 14.82C385.089 14.82 385.229 14.7734 385.323 14.68C385.789 14.5867 386.256 14.6334 386.723 14.82C387.283 14.9134 387.749 15.0534 388.123 15.24C388.683 15.3334 389.103 15.7067 389.383 16.36C389.663 17.2 389.896 18.04 390.083 18.88C390.363 19.6267 390.549 20.42 390.643 21.26V22.38C390.829 23.0334 390.923 23.7334 390.923 24.48C390.923 25.1334 390.923 25.8334 390.923 26.58C390.923 27.2334 390.923 27.8867 390.923 28.54C391.016 29.1 391.109 29.66 391.203 30.22C391.203 30.5 391.203 30.78 391.203 31.06C391.203 31.34 391.249 31.62 391.343 31.9C391.343 32.46 391.343 33.02 391.343 33.58C391.436 34.14 391.529 34.7467 391.623 35.4C391.716 36.4267 391.809 37.5 391.903 38.62C391.996 39.74 392.043 40.86 392.043 41.98C392.043 42.4467 392.043 42.96 392.043 43.52C392.043 43.9867 392.089 44.4534 392.183 44.92C392.276 45.2 392.323 45.48 392.323 45.76C392.323 46.04 392.323 46.32 392.323 46.6V49.4C392.323 49.96 392.369 50.4267 392.463 50.8C392.649 51.4534 392.696 52.1067 392.603 52.76C392.603 53.32 392.649 53.9267 392.743 54.58L393.163 61.02C393.256 61.9534 393.303 62.9334 393.303 63.96C393.396 64.8934 393.443 65.8734 393.443 66.9C393.443 67.2734 393.443 67.6934 393.443 68.16C393.443 68.5334 393.489 68.9067 393.583 69.28C393.676 69.56 393.723 69.84 393.723 70.12C393.723 70.4 393.723 70.68 393.723 70.96C393.816 71.0534 393.816 71.24 393.723 71.52C393.723 71.7067 393.769 71.8934 393.863 72.08C394.049 72.7334 394.143 73.3867 394.143 74.04C394.143 74.6934 394.143 75.3934 394.143 76.14C394.143 76.5134 394.143 76.9334 394.143 77.4C394.236 77.7734 394.283 78.1934 394.283 78.66C394.376 79.1267 394.423 79.64 394.423 80.2C394.423 80.76 394.423 81.2734 394.423 81.74C394.516 82.2067 394.563 82.72 394.563 83.28C394.563 83.7467 394.609 84.2134 394.703 84.68C394.796 84.8667 394.843 85.0534 394.843 85.24C394.843 86.2667 394.936 87.2934 395.123 88.32C395.309 89.3467 395.496 90.3734 395.683 91.4C395.776 91.68 395.823 92.0067 395.823 92.38C395.823 92.66 395.823 92.94 395.823 93.22C395.823 93.5 395.729 93.7334 395.543 93.92C395.169 94.2 394.889 94.76 394.703 95.6C394.703 95.88 394.563 96.1134 394.283 96.3C393.629 96.58 393.069 96.9534 392.603 97.42C391.856 98.0734 390.969 98.4 389.943 98.4Z" fill="#BDA2F2"/>
<path d="M353.06 105.26H352.36C352.08 105.26 351.754 105.213 351.38 105.12C351.1 105.12 350.774 105.12 350.4 105.12C349.747 105.213 349.187 105.073 348.72 104.7C348.347 104.42 347.927 104.047 347.46 103.58C347.274 103.393 347.04 103.16 346.76 102.88C346.574 102.693 346.34 102.553 346.06 102.46C345.874 102.367 345.687 102.133 345.5 101.76C345.407 101.573 345.267 101.34 345.08 101.06C344.987 100.78 344.847 100.5 344.66 100.22C344.474 99.7533 344.427 99.2399 344.52 98.6799C344.614 98.3999 344.66 98.1199 344.66 97.8399C344.754 97.6533 344.8 97.4199 344.8 97.1399C344.8 96.2066 344.8 95.3199 344.8 94.4799C344.8 93.5466 344.707 92.6133 344.52 91.6799C344.427 91.3999 344.38 91.1199 344.38 90.8399C344.38 90.4666 344.334 90.0933 344.24 89.7199C344.24 89.0666 344.194 88.5533 344.1 88.1799C344.1 87.7133 344.054 87.2933 343.96 86.9199C343.96 86.5466 343.96 86.1733 343.96 85.7999C343.867 85.1466 343.82 84.5399 343.82 83.9799C343.82 83.4199 343.727 82.8133 343.54 82.1599V81.7399C343.54 80.5266 343.447 79.3599 343.26 78.2399C343.167 77.0266 343.12 75.8133 343.12 74.5999C343.12 74.0399 343.074 73.6199 342.98 73.3399C342.887 72.4999 342.794 71.6599 342.7 70.8199C342.7 69.8866 342.7 68.9533 342.7 68.0199C342.7 67.1799 342.7 66.3399 342.7 65.4999C342.7 64.5666 342.607 63.6799 342.42 62.8399C342.327 62.6533 342.28 62.4199 342.28 62.1399C342.28 61.8599 342.28 61.6266 342.28 61.4399C342.28 57.6133 342.28 53.7866 342.28 49.9599C342.28 46.1333 342.327 42.3533 342.42 38.6199C342.42 38.1533 342.42 37.6866 342.42 37.2199C342.514 36.7533 342.56 36.2866 342.56 35.8199C342.56 35.5399 342.56 35.2599 342.56 34.9799C342.654 34.6999 342.7 34.4666 342.7 34.2799C342.7 33.2533 342.7 32.2266 342.7 31.1999C342.794 30.0799 342.887 29.0066 342.98 27.9799C343.167 27.6999 343.167 27.3266 342.98 26.8599C342.887 26.7666 342.747 26.7199 342.56 26.7199L342.14 27.1399C341.954 27.4199 341.72 27.6999 341.44 27.9799C341.16 28.2599 340.927 28.5399 340.74 28.8199C340.367 29.3799 339.947 29.9866 339.48 30.6399C339.107 31.1999 338.687 31.8066 338.22 32.4599C337.567 33.5799 336.867 34.7466 336.12 35.9599C335.374 37.0799 334.814 38.2933 334.44 39.5999C334.347 39.7866 334.254 40.0199 334.16 40.2999C334.067 40.4866 333.974 40.6733 333.88 40.8599C333.507 41.7933 333.087 42.7266 332.62 43.6599C332.247 44.4999 331.874 45.4333 331.5 46.4599C330.94 47.6733 330.147 48.7933 329.12 49.8199C328.934 50.0066 328.747 50.0999 328.56 50.0999C328.094 50.3799 327.58 50.6599 327.02 50.9399C326.46 51.1266 325.854 51.1733 325.2 51.0799H324.36C323.52 51.2666 322.82 51.0799 322.26 50.5199C321.607 50.3333 321.047 50.0066 320.58 49.5399C320.207 49.0733 319.787 48.5599 319.32 47.9999C318.947 47.5333 318.62 46.9733 318.34 46.3199C318.154 45.6666 318.06 45.0133 318.06 44.3599C317.967 44.1733 317.92 43.9399 317.92 43.6599C317.92 43.3799 317.92 43.1466 317.92 42.9599C317.827 42.7733 317.734 42.5866 317.64 42.3999C317.547 42.1199 317.5 41.9333 317.5 41.8399C317.5 41.6533 317.407 41.3733 317.22 40.9999C317.034 40.6266 316.66 39.8799 316.1 38.7599C315.54 37.6399 315.26 37.1266 315.26 37.2199C314.98 36.7533 314.7 36.2399 314.42 35.6799C314.14 35.1199 313.814 34.6066 313.44 34.1399L312.6 32.5999C312.414 32.5999 312.274 32.5533 312.18 32.4599L312.04 32.5999C312.04 32.8799 312.04 33.1599 312.04 33.4399C312.04 33.7199 312.087 33.9999 312.18 34.2799C312.367 35.3066 312.46 36.3333 312.46 37.3599C312.46 38.3866 312.367 39.4133 312.18 40.4399C312.18 40.9999 312.227 41.4666 312.32 41.8399C312.414 42.0266 312.46 42.3533 312.46 42.8199C312.46 43.3799 312.46 43.9399 312.46 44.4999C312.554 45.0599 312.554 45.6199 312.46 46.1799C312.367 46.6466 312.32 47.1599 312.32 47.7199C312.414 48.1866 312.507 48.6533 312.6 49.1199V50.5199C312.414 51.0799 312.414 51.6866 312.6 52.3399C312.694 52.8066 312.694 53.3199 312.6 53.8799C312.6 54.3466 312.647 54.8133 312.74 55.2799C312.74 55.7466 312.647 56.3533 312.46 57.0999C311.9 59.3399 312.04 61.4866 312.88 63.5399C312.974 63.9133 313.067 64.2866 313.16 64.6599C313.254 64.9399 313.254 65.2666 313.16 65.6399C313.16 65.9199 313.16 66.1999 313.16 66.4799C313.16 66.7599 313.207 67.0399 313.3 67.3199C313.487 67.6933 313.58 68.0666 313.58 68.4399C313.674 69.4666 313.72 70.2599 313.72 70.8199C313.814 71.3799 313.907 71.7999 314 72.0799C314.187 73.1066 314.374 74.1799 314.56 75.2999C314.747 76.3266 314.934 77.3533 315.12 78.3799C315.307 79.5933 315.494 80.8066 315.68 82.0199C315.96 83.1399 316.1 84.3066 316.1 85.5199C316.1 85.8933 316.147 86.1733 316.24 86.3599C316.427 87.1066 316.52 87.8999 316.52 88.7399C316.52 89.4866 316.567 90.2333 316.66 90.9799C316.66 92.0066 316.427 92.7999 315.96 93.3599C315.774 93.7333 315.68 93.9666 315.68 94.0599C314.84 95.8333 313.347 96.8599 311.2 97.1399C310.92 97.2333 310.64 97.2799 310.36 97.2799C310.08 97.2799 309.8 97.2799 309.52 97.2799C308.494 97.4666 307.747 97.2799 307.28 96.7199C307.094 96.5333 306.907 96.4399 306.72 96.4399C306.254 96.5333 305.787 96.2533 305.32 95.5999C305.04 95.1333 304.62 94.7133 304.06 94.3399C303.78 94.0599 303.547 93.5933 303.36 92.9399C303.267 92.7533 303.174 92.5666 303.08 92.3799C303.08 92.1933 303.08 92.0066 303.08 91.8199C302.987 90.5133 302.847 89.2533 302.66 88.0399C302.474 86.7333 302.334 85.4733 302.24 84.2599L302.1 82.8599C302.007 82.4866 301.96 82.1599 301.96 81.8799C301.96 81.5999 301.914 81.2733 301.82 80.8999V80.0599C301.54 78.7533 301.4 77.4466 301.4 76.1399C301.4 74.7399 301.447 73.3866 301.54 72.0799C301.634 71.2399 301.68 70.3999 301.68 69.5599C301.68 68.6266 301.727 67.7399 301.82 66.8999V63.6799C301.82 63.2133 301.82 62.7466 301.82 62.2799C301.82 61.7199 301.774 61.2066 301.68 60.7399C301.587 60.1799 301.54 59.6199 301.54 59.0599C301.54 58.4999 301.54 57.9399 301.54 57.3799V50.9399C301.447 50.1933 301.4 49.4466 301.4 48.6999C301.4 47.8599 301.4 47.0666 301.4 46.3199C301.4 46.0399 301.4 45.7599 301.4 45.4799C301.4 45.1066 301.354 44.7799 301.26 44.4999C301.26 44.0333 301.214 43.6133 301.12 43.2399C301.12 42.7733 301.074 42.3533 300.98 41.9799V40.9999C300.794 40.1599 300.7 39.3666 300.7 38.6199C300.7 37.7799 300.7 36.9399 300.7 36.0999C300.7 35.3533 300.7 34.6066 300.7 33.8599C300.7 33.0199 300.607 32.2733 300.42 31.6199C300.327 31.3399 300.28 31.0599 300.28 30.7799C300.28 30.4999 300.28 30.2199 300.28 29.9399C300.28 29.2866 300.28 28.6799 300.28 28.1199C300.28 27.4666 300.187 26.8133 300 26.1599C299.907 25.9733 299.86 25.6466 299.86 25.1799V18.1799C299.86 17.7133 299.86 17.2933 299.86 16.9199C299.86 16.4533 299.767 16.0333 299.58 15.6599C299.3 14.7266 299.347 13.6533 299.72 12.4399C299.907 11.9733 300.094 11.6466 300.28 11.4599C300.467 11.1799 300.654 10.8999 300.84 10.6199C301.027 10.3399 301.167 10.0599 301.26 9.77992C301.447 9.49992 301.587 9.35992 301.68 9.35992C302.054 9.26659 302.334 9.12659 302.52 8.93992C302.8 8.75325 303.034 8.56659 303.22 8.37992L304.06 7.95992C304.247 7.86659 304.527 7.81992 304.9 7.81992C305.367 7.91325 305.834 8.00658 306.3 8.09992C306.86 8.09992 307.374 8.14659 307.84 8.23992C308.4 8.23992 308.82 8.47326 309.1 8.93992C309.567 9.59325 310.034 10.2466 310.5 10.8999C310.967 11.5533 311.34 12.2533 311.62 12.9999C311.9 13.6533 312.274 14.2133 312.74 14.6799C313.3 15.4266 313.86 16.1733 314.42 16.9199C314.98 17.6666 315.587 18.4133 316.24 19.1599C316.52 19.4399 316.754 19.7666 316.94 20.1399C317.22 20.5133 317.454 20.8866 317.64 21.2599C318.107 21.9133 318.527 22.5666 318.9 23.2199C319.367 23.7799 319.834 24.3866 320.3 25.0399L322.4 28.3999C322.587 28.7733 322.774 29.1466 322.96 29.5199C323.147 29.7999 323.334 30.0799 323.52 30.3599C323.707 30.8266 323.987 30.8733 324.36 30.4999C324.734 30.0333 325.107 29.5666 325.48 29.0999C325.947 28.5399 326.367 28.0266 326.74 27.5599C327.58 26.5333 328.42 25.4599 329.26 24.3399C330.1 23.2199 330.987 22.1466 331.92 21.1199L332.76 19.8599C333.414 18.9266 334.02 18.0399 334.58 17.1999C335.234 16.2666 335.84 15.3333 336.4 14.3999C337.054 13.3733 337.614 12.3466 338.08 11.3199C338.64 10.2933 339.107 9.26659 339.48 8.23992L341.16 4.45992C341.72 3.33992 342.514 2.40658 343.54 1.65992C344.94 0.53992 346.48 0.11992 348.16 0.399916C348.814 0.493254 349.42 0.679921 349.98 0.959918C350.54 1.14659 351.1 1.33325 351.66 1.51992C352.22 1.70659 352.594 2.12659 352.78 2.77992C352.967 3.05992 353.107 3.33992 353.2 3.61992C353.294 3.89992 353.34 4.17992 353.34 4.45992C353.434 5.11325 353.574 5.71992 353.76 6.27992C353.947 6.74659 354.087 7.30659 354.18 7.95992L354.32 9.35992C354.507 10.1999 354.694 11.0399 354.88 11.8799C355.16 12.7199 355.394 13.5599 355.58 14.3999V14.6799C355.674 15.6133 355.767 16.5466 355.86 17.4799C356.047 18.3199 356.094 19.2066 356 20.1399V23.3599C356 23.8266 356 24.2933 356 24.7599C356 25.2266 355.954 25.6933 355.86 26.1599C355.767 26.8133 355.72 27.4666 355.72 28.1199C355.72 28.6799 355.72 29.2866 355.72 29.9399C355.627 30.3133 355.58 30.6866 355.58 31.0599C355.58 31.4333 355.534 31.8066 355.44 32.1799C355.347 32.5533 355.3 32.9266 355.3 33.2999C355.3 33.5799 355.3 33.9533 355.3 34.4199V38.3399C355.3 38.9933 355.254 39.5999 355.16 40.1599C355.16 40.7199 355.114 41.3266 355.02 41.9799C354.927 42.3533 354.88 42.7266 354.88 43.0999C354.88 43.3799 354.88 43.7066 354.88 44.0799V52.6199C354.88 53.2733 354.88 53.9266 354.88 54.5799C354.974 55.2333 355.067 55.8866 355.16 56.5399C355.254 57.0066 355.3 57.5199 355.3 58.0799C355.3 58.5466 355.3 59.0133 355.3 59.4799C355.394 60.1333 355.44 60.7866 355.44 61.4399C355.44 61.9999 355.487 62.6533 355.58 63.3999V64.9399C355.674 65.6866 355.72 66.4799 355.72 67.3199C355.72 68.0666 355.72 68.8133 355.72 69.5599V71.3799C355.907 72.0333 356 72.7333 356 73.4799C356 74.2266 356.047 74.9733 356.14 75.7199V76.6999C356.327 77.2599 356.42 77.8199 356.42 78.3799C356.42 78.9399 356.467 79.4999 356.56 80.0599L356.98 85.0999C357.074 85.4733 357.12 85.8466 357.12 86.2199C357.214 86.4999 357.26 86.8266 357.26 87.1999C357.354 87.5733 357.4 87.9466 357.4 88.3199C357.4 88.5999 357.447 88.9266 357.54 89.2999C357.54 89.3933 357.54 89.5333 357.54 89.7199C357.634 89.9066 357.68 90.0933 357.68 90.2799C357.68 90.9333 357.727 91.6333 357.82 92.3799C358.007 93.1266 358.147 93.8733 358.24 94.6199L358.8 98.5399C358.8 99.0999 358.754 99.4733 358.66 99.6599C358.567 100.22 358.334 100.733 357.96 101.2C357.68 101.76 357.447 102.273 357.26 102.74C357.26 102.833 357.214 102.88 357.12 102.88C356.467 103.44 355.814 103.907 355.16 104.28C354.507 104.747 353.807 105.073 353.06 105.26Z" fill="#BDA2F2"/>
<path d="M245.892 98.4001C245.799 98.3067 245.659 98.2601 245.472 98.2601C244.539 97.7001 243.606 97.1867 242.672 96.7201C241.832 96.1601 241.039 95.5534 240.292 94.9001C239.919 94.7134 239.686 94.5267 239.592 94.3401C238.752 93.8734 238.006 93.3134 237.352 92.6601C236.699 91.9134 236.092 91.1201 235.532 90.2801C235.346 90.0934 235.159 89.8601 234.972 89.5801C234.786 89.3001 234.552 89.0201 234.272 88.7401C233.339 87.8067 232.592 86.6867 232.032 85.3801C231.939 85.1001 231.799 84.8201 231.612 84.5401C231.426 84.2601 231.239 83.9801 231.052 83.7001C230.492 82.9534 230.072 82.2534 229.792 81.6001C229.606 80.8534 229.326 80.1534 228.952 79.5001C228.579 78.7534 228.206 78.0534 227.832 77.4001C227.739 77.0267 227.599 76.6534 227.412 76.2801C227.226 75.9067 227.086 75.5334 226.992 75.1601C226.992 74.6934 226.852 74.1801 226.572 73.6201C226.199 72.5934 225.826 71.5667 225.452 70.5401C225.172 69.4201 224.892 68.3001 224.612 67.1801C224.426 66.8067 224.332 66.5267 224.332 66.3401C223.772 65.1267 223.352 63.8667 223.072 62.5601C222.792 61.2534 222.512 59.9934 222.232 58.7801L221.392 52.4801C221.299 52.2934 221.252 52.0601 221.252 51.7801C221.252 51.5001 221.252 51.2667 221.252 51.0801C221.252 50.5201 221.252 50.0067 221.252 49.5401C221.252 48.9801 221.159 48.4201 220.972 47.8601C220.786 46.6467 220.832 45.5267 221.112 44.5001C221.112 44.1267 221.112 43.8001 221.112 43.5201C221.206 43.1467 221.252 42.7734 221.252 42.4001C221.252 41.9334 221.252 41.4667 221.252 41.0001C221.346 40.4401 221.439 39.9734 221.532 39.6001C221.626 39.3201 221.672 38.9467 221.672 38.4801C221.859 37.6401 221.952 36.8467 221.952 36.1001C222.046 35.2601 222.139 34.4667 222.232 33.7201C222.512 32.4134 222.652 31.1534 222.652 29.9401C222.652 29.5667 222.652 29.2401 222.652 28.9601C222.746 28.5867 222.839 28.2134 222.932 27.8401C222.932 27.0001 222.886 26.3934 222.792 26.0201C222.512 25.6467 222.466 25.1334 222.652 24.4801C222.839 24.1067 222.932 23.8267 222.932 23.6401C223.026 23.4534 223.072 23.2667 223.072 23.0801C223.072 22.8001 223.212 22.6134 223.492 22.5201H224.472C224.846 22.5201 225.079 22.3801 225.172 22.1001C225.266 21.7267 225.592 21.4467 226.152 21.2601C226.619 21.0734 227.039 20.9334 227.412 20.8401C227.786 20.6534 228.159 20.4201 228.532 20.1401C228.812 19.9534 229.139 19.8601 229.512 19.8601C229.886 19.8601 230.259 19.9067 230.632 20.0001L233.152 20.8401C233.246 20.9334 233.292 20.9801 233.292 20.9801C233.386 20.9801 233.479 21.0267 233.572 21.1201C234.319 21.8667 234.926 22.7067 235.392 23.6401C235.952 24.5734 236.279 25.6001 236.372 26.7201C236.372 27.0934 236.372 27.4667 236.372 27.8401C236.372 28.1201 236.279 28.4467 236.092 28.8201C235.999 29.3801 235.906 29.9401 235.812 30.5001C235.719 31.0601 235.626 31.6667 235.532 32.3201C235.346 33.2534 235.206 34.1867 235.112 35.1201C235.112 35.9601 235.112 36.8467 235.112 37.7801C235.019 38.1534 234.972 38.5267 234.972 38.9001C234.972 39.1801 234.926 39.5067 234.832 39.8801C234.739 41.0001 234.692 42.1201 234.692 43.2401C234.692 44.3601 234.786 45.4334 234.972 46.4601C234.972 46.5534 234.972 46.6934 234.972 46.8801C235.066 47.0667 235.066 47.2534 234.972 47.4401C234.972 48.3734 235.066 49.3534 235.252 50.3801C235.439 51.4067 235.579 52.4334 235.672 53.4601C235.766 54.3934 235.859 55.2801 235.952 56.1201C236.046 56.9601 236.186 57.8001 236.372 58.6401C236.559 59.0134 236.652 59.3867 236.652 59.7601C236.746 60.1334 236.839 60.5067 236.932 60.8801C237.306 62.6534 237.726 64.3801 238.192 66.0601C238.659 67.7401 239.266 69.4201 240.012 71.1001C240.479 72.1267 240.946 73.0134 241.412 73.7601C242.159 75.0667 242.812 76.3734 243.372 77.6801C243.746 78.3334 244.119 78.9867 244.492 79.6401C244.866 80.2001 245.239 80.8067 245.612 81.4601C245.986 81.9267 246.359 82.3467 246.732 82.7201C247.106 83.0934 247.479 83.5134 247.852 83.9801C248.319 84.4467 248.926 84.5867 249.672 84.4001C250.139 84.2134 250.466 84.0267 250.652 83.8401C251.119 83.5601 251.539 83.2801 251.912 83.0001C252.379 82.7201 252.799 82.3934 253.172 82.0201C254.199 80.9934 255.132 79.9667 255.972 78.9401C256.906 77.9134 257.699 76.7934 258.352 75.5801C258.912 74.5534 259.472 73.4801 260.032 72.3601C260.592 71.2401 261.106 70.1201 261.572 69.0001C262.132 67.6934 262.646 66.3867 263.112 65.0801C263.672 63.7734 264.186 62.4201 264.652 61.0201C265.026 60.0867 265.306 59.1534 265.492 58.2201C265.772 57.1934 265.959 56.2134 266.052 55.2801C266.239 54.2534 266.379 53.2267 266.472 52.2001C266.659 51.0801 266.706 50.0067 266.612 48.9801C266.612 48.7001 266.612 48.4201 266.612 48.1401C266.706 47.8601 266.752 47.5801 266.752 47.3001C266.939 46.6467 266.986 46.0401 266.892 45.4801C266.892 44.9201 266.846 44.3601 266.752 43.8001C266.659 42.2134 266.519 40.7201 266.332 39.3201C266.239 37.8267 266.146 36.3334 266.052 34.8401C266.052 34.0934 266.006 33.5801 265.912 33.3001C265.819 32.4601 265.726 31.6201 265.632 30.7801C265.632 29.9401 265.539 29.1001 265.352 28.2601V27.1401C265.352 26.2067 265.306 25.3201 265.212 24.4801C265.212 23.5467 265.212 22.6134 265.212 21.6801C265.212 20.9334 265.166 20.2801 265.072 19.7201C265.072 19.0667 265.072 18.4134 265.072 17.7601C265.072 16.9201 265.212 16.2201 265.492 15.6601C265.772 15.1934 265.866 14.8201 265.772 14.5401C265.492 13.9801 265.632 13.5601 266.192 13.2801C266.659 12.8134 267.126 12.4401 267.592 12.1601C268.152 11.8801 268.759 11.6934 269.412 11.6001C269.599 11.5067 269.739 11.4601 269.832 11.4601C270.019 11.4601 270.159 11.4134 270.252 11.3201C270.812 10.8534 271.559 10.7134 272.492 10.9001C272.679 10.9934 272.959 11.0401 273.332 11.0401C274.172 11.2267 274.779 11.5534 275.152 12.0201C275.432 12.3001 275.852 12.6267 276.412 13.0001C277.159 13.3734 277.672 13.8401 277.952 14.4001C278.232 14.9601 278.419 15.5667 278.512 16.2201C278.699 17.1534 278.839 18.0401 278.932 18.8801C279.119 19.7201 279.166 20.6067 279.072 21.5401V22.8001C279.072 23.7334 279.072 24.6667 279.072 25.6001C279.166 26.4401 279.259 27.3267 279.352 28.2601C279.446 28.5401 279.492 28.8667 279.492 29.2401C279.492 29.5201 279.492 29.8001 279.492 30.0801C279.492 30.6401 279.492 31.2001 279.492 31.7601C279.586 32.2267 279.679 32.7401 279.772 33.3001C279.866 33.4867 279.912 33.7667 279.912 34.1401C279.819 35.0734 279.819 36.0067 279.912 36.9401C280.099 37.7801 280.239 38.6667 280.332 39.6001C280.426 40.5334 280.472 41.5134 280.472 42.5401C280.566 43.5667 280.612 44.5934 280.612 45.6201C280.706 45.7134 280.706 45.8534 280.612 46.0401C280.612 46.2267 280.612 46.4134 280.612 46.6001C280.332 47.4401 280.286 48.4201 280.472 49.5401C280.659 50.7534 280.612 51.9201 280.332 53.0401C280.239 53.8801 280.146 54.7201 280.052 55.5601C279.959 56.4001 279.819 57.2867 279.632 58.2201C279.446 59.7134 279.119 61.2067 278.652 62.7001C278.186 64.1934 277.719 65.6867 277.252 67.1801C277.252 67.3667 277.112 67.6934 276.832 68.1601C276.459 68.8134 276.132 69.5134 275.852 70.2601C275.572 70.9134 275.339 71.6134 275.152 72.3601L274.732 73.3401C274.266 74.2734 273.846 75.2067 273.472 76.1401C273.192 76.9801 272.819 77.8667 272.352 78.8001C272.072 79.3601 271.792 79.9201 271.512 80.4801C271.232 81.0401 270.906 81.5534 270.532 82.0201C270.439 82.2067 270.299 82.3934 270.112 82.5801C269.926 83.2334 269.646 83.8401 269.272 84.4001C268.899 84.9601 268.526 85.5201 268.152 86.0801C267.126 87.6667 265.912 89.1601 264.512 90.5601C263.206 91.9601 261.759 93.2667 260.172 94.4801L258.492 95.4601C257.186 96.1134 255.786 96.6734 254.292 97.1401C252.892 97.6067 251.446 97.9334 249.952 98.1201C249.486 98.2134 248.972 98.2134 248.412 98.1201C248.132 98.1201 247.852 98.1201 247.572 98.1201C247.292 98.1201 247.012 98.2134 246.732 98.4001H245.892Z" fill="#BDA2F2"/>
<path d="M172.474 97.6999C172.101 97.6999 171.774 97.6999 171.494 97.6999C171.214 97.6999 170.888 97.6533 170.514 97.5599C170.328 97.5599 170.094 97.5133 169.814 97.4199C169.628 97.4199 169.441 97.4199 169.254 97.4199C167.761 97.3266 166.361 97.0466 165.054 96.5799C163.748 96.1133 162.441 95.5533 161.134 94.8999C161.041 94.8999 160.948 94.8999 160.854 94.8999C160.854 94.8066 160.808 94.7599 160.714 94.7599C159.781 94.2933 158.941 93.7333 158.194 93.0799C157.541 92.4266 156.888 91.7733 156.234 91.1199C155.488 90.1866 154.974 89.2999 154.694 88.4599C154.321 87.7133 153.854 86.9199 153.294 86.0799C152.361 85.0533 151.661 83.7466 151.194 82.1599C150.914 81.4133 150.634 80.6666 150.354 79.9199C150.074 79.1733 149.841 78.38 149.654 77.54C149.561 77.26 149.468 76.9799 149.374 76.6999C149.281 76.3266 149.141 75.9533 148.954 75.58C148.768 75.1133 148.581 74.6 148.394 74.04C148.301 73.48 148.161 72.92 147.974 72.36C147.881 71.9866 147.741 71.38 147.554 70.54C147.461 69.6066 147.414 69.0466 147.414 68.86V62.8399C147.508 62.2799 147.601 61.7666 147.694 61.2999C147.788 60.7399 147.881 60.1799 147.974 59.6199L148.114 59.4799C148.114 59.5733 148.114 59.6199 148.114 59.6199C148.208 59.6199 148.254 59.6666 148.254 59.76C148.348 59.76 148.394 59.8066 148.394 59.9C148.488 59.9933 148.534 59.9466 148.534 59.76C148.534 59.2 148.488 58.7333 148.394 58.36C148.394 58.1733 148.348 57.9866 148.254 57.8C148.254 57.6133 148.441 57.4733 148.814 57.3799C148.908 57.3799 148.954 57.2399 148.954 56.9599L150.214 50.7999C150.308 50.3333 150.401 49.9133 150.494 49.54C150.588 49.0733 150.681 48.6533 150.774 48.2799L151.054 46.7399C150.961 46.9266 151.008 46.5999 151.194 45.7599C151.474 44.9199 151.661 44.3599 151.754 44.0799C151.941 43.6133 152.174 43.1466 152.454 42.6799C152.828 42.2133 153.061 41.8866 153.154 41.6999C153.901 40.8599 154.601 39.6933 155.254 38.1999L157.914 33.9999C158.288 33.6266 158.474 33.1599 158.474 32.5999C158.381 32.1333 158.521 31.6199 158.894 31.0599C159.174 30.4999 159.454 29.9399 159.734 29.3799C160.108 28.8199 160.481 28.2599 160.854 27.6999C161.321 26.9533 161.834 26.2066 162.394 25.4599C163.048 24.6199 163.654 23.8733 164.214 23.2199C164.401 22.9399 164.588 22.6599 164.774 22.3799C165.054 22.0999 165.381 21.9133 165.754 21.8199C165.941 21.8199 166.081 21.7733 166.174 21.6799C166.268 21.5866 166.361 21.4933 166.454 21.3999C168.321 19.4399 170.421 17.6199 172.754 15.9399C172.941 15.7533 173.128 15.5666 173.314 15.3799C173.501 15.1933 173.688 15.0533 173.874 14.9599C174.341 14.6799 174.854 14.5399 175.414 14.5399C175.881 14.5399 176.254 14.4933 176.534 14.3999C176.814 14.3999 177.234 14.3066 177.794 14.1199C178.448 13.9333 178.961 14.0266 179.334 14.3999C179.894 14.9599 180.828 15.1466 182.134 14.9599C182.974 14.8666 183.674 15.3333 184.234 16.3599C184.421 16.6399 184.561 16.9199 184.654 17.1999C184.841 17.4799 185.074 17.7133 185.354 17.9C185.634 18.4599 186.008 18.9733 186.474 19.4399C187.034 19.9066 187.501 20.3733 187.874 20.8399L189.694 23.3599C189.881 23.6399 190.068 23.9666 190.254 24.3399C190.534 24.6199 190.768 24.8999 190.954 25.1799C191.421 25.6466 191.701 26.1133 191.794 26.5799C191.981 27.0466 192.121 27.3733 192.214 27.5599C192.401 27.6533 192.541 28.0733 192.634 28.8199C192.728 29.1933 192.728 29.4266 192.634 29.5199C192.634 29.5199 192.821 29.5199 193.194 29.5199C193.568 29.5199 193.754 29.7533 193.754 30.2199C193.754 31.2466 193.568 32.1333 193.194 32.8799C193.008 33.1599 192.821 33.2999 192.634 33.2999C192.541 33.2999 192.401 33.3933 192.214 33.5799C191.934 34.0466 191.608 34.5133 191.234 34.9799C190.954 35.4466 190.628 35.9599 190.254 36.5199C189.974 36.9866 189.601 37.4066 189.134 37.7799C188.761 38.1533 188.341 38.5266 187.874 38.8999C187.128 39.6466 186.241 39.9266 185.214 39.7399C184.374 39.7399 183.768 39.6933 183.394 39.5999C183.114 39.5066 182.834 39.4133 182.554 39.3199C182.368 39.1333 182.134 38.9933 181.854 38.8999C181.668 38.8999 181.481 38.8066 181.294 38.6199C181.201 38.4333 181.108 38.2933 181.014 38.1999C180.921 38.0133 180.781 37.8733 180.594 37.7799C180.128 37.4999 179.754 37.1733 179.474 36.7999C179.194 36.3333 178.961 35.9133 178.774 35.5399C178.681 35.2599 178.634 34.9799 178.634 34.6999C178.634 34.4199 178.634 34.1866 178.634 33.9999C178.541 33.4399 178.448 32.8799 178.354 32.3199C178.354 31.7599 178.261 31.1999 178.074 30.6399C178.074 30.4533 177.841 30.3599 177.374 30.3599C176.814 30.7333 176.254 31.1066 175.694 31.4799C175.134 31.8533 174.621 32.3199 174.154 32.8799L169.814 38.0599C169.534 38.3399 169.254 38.6666 168.974 39.0399C168.788 39.3199 168.601 39.5999 168.414 39.8799C168.041 40.3466 167.668 40.8599 167.294 41.4199C167.014 41.8866 166.641 42.3533 166.174 42.8199C165.988 43.0066 165.848 43.1933 165.754 43.3799C165.474 44.0333 165.148 44.6399 164.774 45.1999C164.494 45.7599 164.214 46.4133 163.934 47.1599C163.468 48.0933 163.048 49.1199 162.674 50.2399C162.394 51.2666 162.161 52.3399 161.974 53.4599C161.881 54.86 161.601 56.2599 161.134 57.6599C161.041 58.1266 160.948 58.6399 160.854 59.1999C160.761 59.7599 160.668 60.3199 160.574 60.8799C160.481 61.7199 160.341 62.56 160.154 63.4C159.968 64.24 159.921 65.1266 160.014 66.0599C160.201 67.9266 160.481 69.6999 160.854 71.3799C161.134 72.3133 161.368 73.2466 161.554 74.18C161.834 75.0199 162.114 75.9066 162.394 76.8399C162.488 77.1199 162.581 77.4 162.674 77.68C162.768 77.96 162.861 78.2399 162.954 78.5199C163.514 79.8266 164.541 80.8533 166.034 81.5999C166.594 81.8799 167.201 82.0199 167.854 82.0199C168.414 82.0199 168.974 82.0666 169.534 82.1599C170.094 82.1599 170.654 82.1133 171.214 82.0199C173.828 81.7399 176.254 81.3199 178.494 80.7599C179.521 80.5733 180.501 80.2933 181.434 79.9199C182.368 79.5466 183.301 79.1733 184.234 78.7999C184.981 78.5199 185.681 78.1 186.334 77.54C187.081 76.98 187.828 76.42 188.574 75.86C189.414 75.2066 190.208 74.5533 190.954 73.9C191.701 73.2466 192.448 72.5933 193.194 71.94C193.941 71.2866 194.641 70.5866 195.294 69.8399C195.574 69.5599 195.994 69.2333 196.554 68.86C196.834 68.6733 197.114 68.4866 197.394 68.2999C197.674 68.1133 197.908 67.9266 198.094 67.7399C198.561 67.4599 198.981 67.18 199.354 66.9C199.821 66.62 200.334 66.4799 200.894 66.4799C201.174 66.2933 201.454 66.1999 201.734 66.1999C202.108 66.1066 202.434 66.0133 202.714 65.9199C203.554 65.6399 204.301 65.6399 204.954 65.9199C205.234 66.0133 205.514 66.1066 205.794 66.1999C206.074 66.2933 206.354 66.4333 206.634 66.6199C207.381 67.0866 208.081 67.8333 208.734 68.86C209.201 69.98 209.434 70.9599 209.434 71.7999V72.6399C209.434 73.8533 208.968 74.9266 208.034 75.86C207.008 77.1666 205.934 78.1933 204.814 78.9399C204.161 79.3133 203.508 79.8266 202.854 80.4799C201.921 81.2266 200.941 82.0199 199.914 82.8599C198.981 83.6999 198.001 84.4933 196.974 85.2399L196.414 85.7999C196.134 85.9866 195.854 86.2199 195.574 86.4999C195.294 86.7799 194.968 87.0133 194.594 87.1999C193.941 87.8533 193.194 88.4599 192.354 89.0199C191.514 89.4866 190.674 89.9533 189.834 90.4199C188.994 90.7933 188.201 91.3533 187.454 92.0999C187.174 92.3799 186.894 92.6599 186.614 92.9399C186.334 93.2199 186.008 93.4533 185.634 93.6399C184.421 94.2933 183.021 94.9466 181.434 95.5999C181.341 95.6933 181.201 95.7866 181.014 95.8799C180.828 95.9733 180.641 96.0666 180.454 96.16C179.894 96.44 179.288 96.6733 178.634 96.8599C178.074 96.9533 177.514 97.0466 176.954 97.1399C176.208 97.2333 175.461 97.2799 174.714 97.2799C173.968 97.3733 173.221 97.5133 172.474 97.6999Z" fill="#BDA2F2"/>
<path d="M107.918 99.8C106.985 99.7067 106.051 99.5667 105.118 99.38C104.278 99.2867 103.438 99.0533 102.598 98.68L99.0981 97.42C97.8847 96.9533 96.7647 96.44 95.7381 95.88C94.7114 95.2267 93.6847 94.5733 92.6581 93.92C92.1914 93.4533 91.7247 93.0333 91.2581 92.66C90.7914 92.1933 90.3247 91.7734 89.8581 91.4C89.1114 90.6534 88.3647 89.9067 87.6181 89.16C86.8714 88.32 86.1714 87.4333 85.5181 86.5L82.1581 81.32C81.3181 80.0133 80.5714 78.66 79.9181 77.26C79.2647 75.7667 78.7047 74.2733 78.2381 72.78C77.2114 69.98 76.6981 67.2267 76.6981 64.52V62.28C76.6981 59.9467 76.8381 57.66 77.1181 55.42C77.3047 53.5533 77.7247 51.8733 78.3781 50.38C78.7514 49.4467 79.0781 48.5133 79.3581 47.58C79.6381 46.6467 79.9647 45.76 80.3381 44.92L80.7581 43.94C80.9447 42.7267 81.3647 41.6533 82.0181 40.72C82.6714 39.6933 83.2314 38.7133 83.6981 37.78C84.0714 37.0333 84.4914 36.38 84.9581 35.82C85.4247 35.1667 85.8447 34.5133 86.2181 33.86C86.4047 33.58 86.6381 33.3467 86.9181 33.16C87.1981 32.88 87.4314 32.6 87.6181 32.32C87.8047 32.1333 87.9447 31.9 88.0381 31.62C88.2247 31.2467 88.3647 30.92 88.4581 30.64C88.6447 30.36 88.9714 29.9867 89.4381 29.52C89.9981 29.24 90.5114 28.5867 90.9781 27.56C91.1647 27.1867 91.3514 26.9067 91.5381 26.72C92.0981 26.2533 92.5647 25.6933 92.9381 25.04C93.4047 24.3867 93.9181 23.78 94.4781 23.22C94.8514 22.8467 95.0381 22.3333 95.0381 21.68C95.0381 21.2133 95.0381 20.7933 95.0381 20.42C95.1314 19.9533 95.1314 19.5333 95.0381 19.16C94.9447 18.6933 95.0847 18.2733 95.4581 17.9C95.6447 17.7133 95.7847 17.48 95.8781 17.2C95.9714 16.92 96.0647 16.64 96.1581 16.36C96.4381 15.4267 97.1847 14.6333 98.3981 13.98C98.5847 13.7933 98.8181 13.7 99.0981 13.7C99.4714 13.6067 99.7981 13.5133 100.078 13.42C100.731 13.14 101.478 13.0933 102.318 13.28C102.691 13.3733 103.018 13.42 103.298 13.42C103.578 13.3267 103.858 13.2333 104.138 13.14C104.511 12.9533 104.838 12.8133 105.118 12.72C105.491 12.6267 105.818 12.5333 106.098 12.44C107.405 11.9733 108.758 12.02 110.158 12.58C111.651 13.14 112.725 14.12 113.378 15.52C113.565 15.9867 113.751 16.4533 113.938 16.92C114.125 17.3867 114.265 17.8533 114.358 18.32C114.545 19.3467 114.498 20.2333 114.218 20.98C114.031 21.3533 113.938 21.5867 113.938 21.68C113.845 22.0533 113.938 22.38 114.218 22.66C114.405 22.94 114.638 23.1733 114.918 23.36C115.945 24.2933 116.925 25.2267 117.858 26.16C118.791 27 119.678 27.9333 120.518 28.96C121.265 29.7067 121.871 30.5 122.338 31.34C122.898 32.0867 123.411 32.9267 123.878 33.86C124.065 34.3267 124.298 34.84 124.578 35.4C124.858 35.8667 125.138 36.3333 125.418 36.8C125.885 37.64 126.258 38.5267 126.538 39.46C126.911 40.3933 127.285 41.3267 127.658 42.26V42.4C127.845 43.0533 127.985 43.7533 128.078 44.5C128.265 45.1533 128.545 45.8533 128.918 46.6C129.198 47.2533 129.431 47.9533 129.618 48.7C129.805 49.3533 129.991 50.0533 130.178 50.8C130.365 51.64 130.551 52.48 130.738 53.32C131.018 54.16 131.205 55 131.298 55.84C131.391 56.2133 131.485 56.5867 131.578 56.96C131.671 57.24 131.765 57.5667 131.858 57.94C132.045 58.78 132.231 59.62 132.418 60.46C132.605 61.3 132.745 62.14 132.838 62.98L133.258 63.96C133.445 64.52 133.631 65.2667 133.818 66.2C134.098 67.4133 134.238 68.6267 134.238 69.84C134.331 71.0533 134.331 72.3133 134.238 73.62C134.238 74.2733 134.191 74.7867 134.098 75.16C133.538 77.12 132.838 79.1267 131.998 81.18C131.625 81.8333 131.251 82.4867 130.878 83.14C130.505 83.7 130.131 84.3067 129.758 84.96L128.498 86.92C128.031 87.76 127.518 88.5067 126.958 89.16C126.025 90.6533 124.905 91.96 123.598 93.08C122.291 94.2 120.891 95.2734 119.398 96.3C116.131 98.82 112.305 99.9867 107.918 99.8ZM107.358 85.94C109.318 85.94 110.998 85.38 112.398 84.26C112.865 83.7934 113.331 83.3733 113.798 83C114.358 82.5333 114.825 82.0667 115.198 81.6C116.971 79.64 118.371 77.5867 119.398 75.44L119.818 74.04C120.005 72.36 120.005 70.68 119.818 69L118.978 64.38C118.698 63.1667 118.465 62 118.278 60.88C118.091 59.6667 117.811 58.5 117.438 57.38C117.158 56.7267 117.065 56.2133 117.158 55.84C117.251 55.3733 117.251 54.9067 117.158 54.44C117.065 53.9733 116.925 53.5067 116.738 53.04C116.458 51.8267 116.131 50.6133 115.758 49.4C115.385 48.1867 115.011 46.9733 114.638 45.76C114.545 45.48 114.451 45.2 114.358 44.92C114.265 44.64 114.171 44.36 114.078 44.08C113.425 42.7733 112.725 41.5133 111.978 40.3C111.231 39.0867 110.391 37.9667 109.458 36.94C108.991 36.38 108.478 35.8667 107.918 35.4C107.358 34.84 106.798 34.3267 106.238 33.86C106.145 33.6733 106.005 33.58 105.818 33.58C105.725 33.4867 105.585 33.3933 105.398 33.3C105.118 32.9267 104.745 32.9733 104.278 33.44C103.811 33.9067 103.298 34.42 102.738 34.98C102.271 35.54 101.805 36.1 101.338 36.66C100.871 37.3133 100.358 37.9667 99.7981 38.62C99.3314 39.2733 98.8647 39.9267 98.3981 40.58C97.7447 41.42 97.1381 42.26 96.5781 43.1C96.0181 43.94 95.4581 44.78 94.8981 45.62C92.9381 48.7933 91.3981 52.2933 90.2781 56.12C90.0914 56.68 89.9981 57.1 89.9981 57.38C89.9047 58.0333 89.8114 58.6867 89.7181 59.34C89.7181 59.9933 89.7181 60.6933 89.7181 61.44V62.56C89.8114 62.84 89.8581 63.12 89.8581 63.4C89.8581 63.68 89.9047 63.96 89.9981 64.24C89.9981 65.36 90.2781 66.5733 90.8381 67.88C91.5847 69.7467 92.4247 71.5667 93.3581 73.34C94.2914 75.1133 95.3647 76.7933 96.5781 78.38C96.8581 78.7533 97.1381 79.1267 97.4181 79.5C97.7914 79.8733 98.1181 80.2467 98.3981 80.62C99.2381 81.5534 100.125 82.3933 101.058 83.14C102.085 83.8867 103.111 84.54 104.138 85.1C105.258 85.66 106.331 85.94 107.358 85.94Z" fill="#BDA2F2"/>
<path d="M19.4391 98.96C18.7858 98.96 17.9925 98.7267 17.0591 98.26C16.5925 97.98 16.2191 97.6067 15.9391 97.14C15.8458 96.86 15.6125 96.86 15.2391 97.14C14.9591 97.3267 14.7258 97.3267 14.5391 97.14C14.2591 96.86 13.9791 96.6734 13.6991 96.58C13.3258 96.58 13.1391 96.44 13.1391 96.16C13.1391 95.88 13.0925 95.6467 12.9991 95.46C12.9991 95.18 12.9058 94.9467 12.7191 94.76C12.1591 94.5734 11.7858 94.1067 11.5991 93.36C11.5058 93.08 11.4125 92.8467 11.3191 92.66C11.2258 92.38 11.0858 92.1 10.8991 91.82C10.7125 91.4467 10.6191 91.12 10.6191 90.84C10.5258 90.56 10.4325 90.3267 10.3391 90.14C10.3391 89.86 10.2458 89.58 10.0591 89.3C9.96579 88.6467 9.77913 88.04 9.49913 87.48C9.21913 86.92 8.98579 86.3134 8.79913 85.66C8.61246 85.2867 8.51913 84.7733 8.51913 84.12C8.51913 82.44 8.79913 80.9 9.35913 79.5C9.82579 78.66 9.96579 77.82 9.77913 76.98C9.68579 76.6067 9.68579 76.2333 9.77913 75.86C9.96579 75.4867 10.0125 75.1133 9.91913 74.74C9.82579 74.3667 9.73246 74.04 9.63913 73.76C9.63913 73.48 9.63913 73.1533 9.63913 72.78C9.54579 72.5933 9.49913 72.36 9.49913 72.08C9.49913 71.52 9.49913 70.96 9.49913 70.4C9.49913 69.7467 9.40579 69.0933 9.21913 68.44C9.12579 68.16 9.07913 67.74 9.07913 67.18V62C8.98579 60.7867 8.84579 59.5733 8.65913 58.36C8.47246 57.1467 8.23913 55.9333 7.95913 54.72C7.95913 54.44 7.91246 54.16 7.81913 53.88C7.81913 53.6 7.81913 53.32 7.81913 53.04C7.81913 50.9867 7.49246 48.98 6.83913 47.02V45.76C7.02579 44.7333 6.93246 43.94 6.55913 43.38C6.46579 43.0067 6.41913 42.4933 6.41913 41.84V41.7C6.41913 40.7667 6.37246 39.8333 6.27913 38.9C6.27913 37.9667 6.32579 37.0333 6.41913 36.1C6.60579 34.42 6.60579 32.6467 6.41913 30.78C6.41913 30.0333 6.41913 29.2867 6.41913 28.54C6.41913 27.7933 6.37246 27.0933 6.27913 26.44V25.6C6.46579 25.1333 6.55913 24.7133 6.55913 24.34C6.55913 23.9667 6.55913 23.5933 6.55913 23.22C6.55913 22.1 6.51246 21.0267 6.41913 20C6.41913 18.88 6.32579 17.8067 6.13913 16.78C6.13913 16.5 6.13913 16.22 6.13913 15.94C6.13913 15.5667 6.09246 15.24 5.99913 14.96C5.99913 14.3067 5.76579 13.7467 5.29913 13.28L4.31913 12.44C3.38579 11.88 2.77913 10.9933 2.49913 9.78001C2.40579 9.59335 2.35913 9.45334 2.35913 9.36001C2.35913 9.17334 2.31246 8.98667 2.21913 8.8C2.03246 8.33334 2.12579 7.91334 2.49913 7.54C2.77913 7.16668 2.96579 6.79335 3.05913 6.42001C3.05913 6.14001 3.10579 5.90668 3.19913 5.72001C3.38579 5.44001 3.52579 5.16001 3.61913 4.88001C3.71246 4.60001 3.80579 4.27334 3.89913 3.90001C4.08579 3.62001 4.22579 3.52667 4.31913 3.62C4.97246 3.62 5.43913 3.52667 5.71913 3.34001C6.37246 2.87334 7.07246 2.78001 7.81913 3.06001C8.00579 3.15334 8.28579 3.10668 8.65913 2.92001C8.75246 2.92001 8.79913 2.87334 8.79913 2.78001C9.26579 2.31334 9.77913 2.08001 10.3391 2.08001C10.8991 1.98668 11.5058 1.98668 12.1591 2.08001C12.2525 2.08001 12.3458 2.12667 12.4391 2.22001C12.5325 2.22001 12.6258 2.22001 12.7191 2.22001C13.4658 2.40668 14.1658 2.59334 14.8191 2.78001C15.5658 2.87334 16.2658 2.87334 16.9191 2.78001C17.3858 2.78001 17.8525 2.82667 18.3191 2.92001C18.8791 3.01334 19.3925 3.06001 19.8591 3.06001C20.2325 3.06001 20.5591 3.10668 20.8391 3.20001C21.2125 3.29334 21.5391 3.38667 21.8191 3.48001C22.1925 3.57334 22.5191 3.71334 22.7991 3.90001C23.0791 3.99334 23.4058 4.04001 23.7791 4.04001C24.2458 4.13334 24.6191 4.22667 24.8991 4.32C25.2725 4.41334 25.6458 4.55334 26.0191 4.74001C27.2325 5.39334 28.4458 6.00001 29.6591 6.56001C30.2191 6.84001 30.7325 7.21335 31.1991 7.68001C31.8525 8.14668 32.4125 8.42668 32.8791 8.52001C32.9725 8.52001 33.0658 8.56667 33.1591 8.66001C33.2525 8.66001 33.3458 8.66001 33.4391 8.66001C33.5325 8.75334 33.6258 8.8 33.7191 8.8C33.8125 8.8 33.9058 8.84667 33.9991 8.94001C34.4658 9.40668 35.0258 9.78001 35.6791 10.06C36.4258 10.2467 37.0325 10.5733 37.4991 11.04C37.6858 11.2267 37.9658 11.4133 38.3391 11.6C39.0858 11.88 39.7391 12.3 40.2991 12.86C40.4858 13.0467 40.6258 13.14 40.7191 13.14C41.0925 13.14 41.5125 13.3733 41.9791 13.84L44.9191 16.92C45.2925 17.2933 45.5725 17.62 45.7591 17.9C46.2258 18.5533 46.7391 19.16 47.2991 19.72C47.8591 20.28 48.4191 20.84 48.9791 21.4C49.1658 21.5867 49.3525 21.82 49.5391 22.1C49.8191 22.2867 50.0058 22.52 50.0991 22.8C50.1925 22.9867 50.3325 23.1733 50.5191 23.36C50.7058 23.4533 50.8458 23.5933 50.9391 23.78C51.9658 24.9 52.9458 26.0667 53.8791 27.28C54.9058 28.4933 55.8391 29.7533 56.6791 31.06C57.1458 31.7133 57.5658 32.4133 57.9391 33.16C58.3125 33.9067 58.6391 34.6533 58.9191 35.4C59.1991 36.0533 59.4791 36.7067 59.7591 37.36C60.1325 38.0133 60.4591 38.6667 60.7391 39.32C61.0191 40.3467 61.3458 41.28 61.7191 42.12C62.0925 43.3333 62.4658 44.5 62.8391 45.62C63.2125 46.74 63.5391 47.9533 63.8191 49.26L64.2391 51.08C64.2391 51.8267 64.2391 52.62 64.2391 53.46C64.3325 54.2067 64.3791 55 64.3791 55.84C64.3791 56.2133 64.3325 56.54 64.2391 56.82C64.2391 57.1 64.1458 57.4267 63.9591 57.8C63.7725 58.36 63.6791 58.8733 63.6791 59.34C63.5858 60.2733 63.3525 61.16 62.9791 62C62.6991 62.84 62.3725 63.6333 61.9991 64.38C61.1591 65.8733 60.4125 67.3667 59.7591 68.86C59.5725 69.2333 59.3858 69.6067 59.1991 69.98C59.1058 70.26 58.9658 70.5867 58.7791 70.96L57.9391 72.64C57.2858 73.9467 56.4925 75.2533 55.5591 76.56C54.7191 77.7733 53.7858 78.94 52.7591 80.06C52.3858 80.5267 51.9191 80.9933 51.3591 81.46C50.8925 81.8333 50.4258 82.2533 49.9591 82.72C49.0258 83.56 48.0925 84.4 47.1591 85.24C46.2258 85.9867 45.2458 86.7333 44.2191 87.48C43.2858 88.1333 42.3058 88.74 41.2791 89.3C40.3458 89.86 39.3191 90.3267 38.1991 90.7C37.6391 90.7933 37.0791 91.0733 36.5191 91.54C35.9591 91.9133 35.3525 92.2867 34.6991 92.66C34.1391 93.0333 33.5325 93.4533 32.8791 93.92C32.5991 94.0133 32.3191 94.1533 32.0391 94.34C31.7591 94.4333 31.4325 94.5267 31.0591 94.62C30.7791 94.7134 30.4525 94.8067 30.0791 94.9C29.7991 94.9934 29.5191 95.0867 29.2391 95.18C28.8658 95.2733 28.4925 95.4133 28.1191 95.6C27.8391 95.7867 27.5591 96.02 27.2791 96.3C26.6258 96.7667 25.9258 97.14 25.1791 97.42C24.4325 97.7933 23.6858 98.2133 22.9391 98.68C22.7525 98.7733 22.4258 98.82 21.9591 98.82C21.6791 98.9133 21.3991 98.9133 21.1191 98.82C20.8391 98.82 20.5591 98.82 20.2791 98.82V98.96H19.4391ZM25.0391 83.28C25.9725 83.28 26.7658 83.0933 27.4191 82.72C28.1658 82.44 28.8658 82.1133 29.5191 81.74C30.1725 81.3667 30.7791 80.9467 31.3391 80.48L33.0191 78.8C33.9525 78.0533 34.7925 77.26 35.5391 76.42C36.3791 75.58 37.2658 74.8333 38.1991 74.18C38.3858 73.9933 38.4791 73.9 38.4791 73.9C38.8525 73.5267 39.1791 73.2 39.4591 72.92C39.8325 72.5467 40.1591 72.1733 40.4391 71.8C40.6258 71.6133 40.8591 71.38 41.1391 71.1C41.4191 70.82 41.6058 70.5867 41.6991 70.4C42.0725 69.7467 42.5858 69.1867 43.2391 68.72C43.7058 68.44 43.9858 68.16 44.0791 67.88C44.2658 67.4133 44.4991 66.9467 44.7791 66.48C45.1525 66.0133 45.5258 65.5933 45.8991 65.22C46.3658 64.66 46.8325 63.82 47.2991 62.7L47.8591 61.3C48.4191 59.9933 48.6991 58.78 48.6991 57.66C48.7925 57.38 48.8391 56.96 48.8391 56.4C48.9325 55 48.8391 53.5067 48.5591 51.92C48.4658 51.4533 48.3725 50.9867 48.2791 50.52C48.1858 50.0533 48.1391 49.6333 48.1391 49.26C48.0458 48.8867 47.9525 48.56 47.8591 48.28C47.8591 47.9067 47.7658 47.58 47.5791 47.3C47.3925 46.9267 47.2525 46.5533 47.1591 46.18C47.0658 45.8067 46.9725 45.4333 46.8791 45.06C46.8791 44.4067 46.7858 43.8467 46.5991 43.38C46.4125 42.82 46.2258 42.26 46.0391 41.7C45.7591 41.14 45.4791 40.58 45.1991 40.02C44.9191 39.3667 44.6858 38.7133 44.4991 38.06L44.3591 37.5C44.0791 37.1267 43.8458 36.7533 43.6591 36.38C43.5658 35.9133 43.4258 35.4933 43.2391 35.12C42.8658 34.28 42.4925 33.44 42.1191 32.6C41.8391 31.76 41.4658 30.9667 40.9991 30.22C40.5325 29.38 40.0191 28.54 39.4591 27.7C38.9925 26.86 38.3858 26.1133 37.6391 25.46C35.4925 23.1267 33.0191 21.0267 30.2191 19.16C28.5391 17.9467 26.8591 17.1533 25.1791 16.78C24.5258 16.5933 23.7791 16.4533 22.9391 16.36C22.0991 16.1733 21.3058 16.0333 20.5591 15.94C20.2791 15.94 20.0458 16.0333 19.8591 16.22C19.3925 16.5933 19.1591 17.06 19.1591 17.62C19.1591 18.2733 19.1125 18.9733 19.0191 19.72C19.0191 20.3733 19.0191 21.0733 19.0191 21.82C19.2058 23.1267 19.1591 24.2 18.8791 25.04C18.7858 25.4133 18.6925 25.7867 18.5991 26.16C18.5991 26.5333 18.6458 26.9533 18.7391 27.42C18.9258 27.98 18.8791 28.4933 18.5991 28.96C18.3191 29.52 18.3191 30.1267 18.5991 30.78C18.9725 31.5267 19.0658 32.46 18.8791 33.58C18.5991 34.7 18.5991 35.82 18.8791 36.94C18.9725 37.3133 19.0191 37.6867 19.0191 38.06C19.1125 38.4333 19.1125 38.8533 19.0191 39.32C19.0191 40.3467 19.0658 41.3733 19.1591 42.4C19.3458 43.4267 19.4858 44.4533 19.5791 45.48C19.5791 45.6667 19.6725 45.9467 19.8591 46.32V48.56C19.8591 48.7467 19.8125 48.98 19.7191 49.26C19.7191 49.4467 19.7658 49.6333 19.8591 49.82C20.0458 50.5667 20.1858 51.36 20.2791 52.2C20.4658 52.9467 20.6525 53.6933 20.8391 54.44C20.8391 54.6267 20.8858 54.86 20.9791 55.14C21.0725 55.3267 21.1191 55.56 21.1191 55.84C21.1191 56.4933 21.1658 57.1467 21.2591 57.8C21.3525 58.4533 21.4458 59.1533 21.5391 59.9C21.8191 62.5133 22.2391 65.1733 22.7991 67.88C23.0791 69 23.2191 70.1667 23.2191 71.38C23.2191 71.66 23.2191 71.9867 23.2191 72.36C23.2191 72.64 23.2658 72.92 23.3591 73.2C23.5458 73.8533 23.6391 74.5067 23.6391 75.16C23.6391 75.8133 23.6391 76.4667 23.6391 77.12C23.6391 77.3067 23.5925 77.54 23.4991 77.82C23.4991 78.1 23.5458 78.3333 23.6391 78.52C23.8258 78.9867 23.9191 79.4533 23.9191 79.92C23.9191 80.2933 23.9191 80.7133 23.9191 81.18C23.9191 81.5533 24.0125 82.02 24.1991 82.58C24.1991 83.0467 24.4791 83.28 25.0391 83.28Z" fill="#BDA2F2"/>
<path d="M240.813 110.5C246.704 110.5 251.615 114.42 255.645 119.803C259.101 124.419 261.676 125.5 263.271 125.5C264.865 125.5 267.441 124.42 270.897 119.803C272.387 117.813 275.208 117.408 277.197 118.897C279.187 120.387 279.592 123.208 278.103 125.197C274.073 130.58 269.162 134.5 263.271 134.5C257.379 134.5 252.469 130.58 248.439 125.197C244.983 120.58 242.407 119.5 240.813 119.5C239.218 119.5 236.642 120.58 233.186 125.197C229.156 130.58 224.246 134.5 218.355 134.5C212.463 134.5 207.552 130.58 203.522 125.197C200.066 120.58 197.49 119.5 195.896 119.5C194.301 119.5 191.726 120.581 188.27 125.197C184.24 130.58 179.329 134.5 173.438 134.5C167.546 134.5 162.635 130.58 158.605 125.197C155.15 120.581 152.574 119.5 150.98 119.5C149.385 119.5 146.809 120.58 143.353 125.197C139.323 130.58 134.412 134.5 128.521 134.5C122.629 134.5 117.719 130.58 113.689 125.197C110.233 120.58 107.657 119.5 106.063 119.5C104.468 119.5 101.892 120.58 98.4356 125.197C94.4058 130.58 89.4959 134.5 83.6045 134.5C77.7129 134.5 72.8023 130.58 68.7725 125.197C65.3163 120.58 62.74 119.5 61.1455 119.5C59.551 119.5 56.9755 120.581 53.5195 125.197C49.4897 130.58 44.5791 134.5 38.6875 134.5C32.7959 134.5 27.8854 130.58 23.8555 125.197C20.3995 120.581 17.824 119.5 16.2295 119.5C14.635 119.5 12.0588 120.58 8.60255 125.197C7.11311 127.187 4.29222 127.592 2.30275 126.103C0.3134 124.613 -0.0918661 121.792 1.39748 119.803C5.42735 114.42 10.3379 110.5 16.2295 110.5C22.1209 110.5 27.0308 114.42 31.0606 119.803C34.5168 124.42 37.0931 125.5 38.6875 125.5C40.282 125.5 42.8583 124.42 46.3145 119.803C50.3442 114.42 55.2542 110.5 61.1455 110.5C67.0371 110.5 71.9477 114.42 75.9776 119.803C79.4338 124.42 82.01 125.5 83.6045 125.5C85.199 125.5 87.7745 124.419 91.2305 119.803C95.2604 114.42 100.171 110.5 106.063 110.5C111.954 110.5 116.865 114.42 120.895 119.803C124.351 124.419 126.926 125.5 128.521 125.5C130.115 125.5 132.691 124.42 136.147 119.803C140.177 114.42 145.088 110.5 150.98 110.5C156.871 110.5 161.781 114.42 165.811 119.803C169.267 124.42 171.843 125.5 173.438 125.5C175.032 125.5 177.608 124.42 181.064 119.803C185.094 114.42 190.004 110.5 195.896 110.5C201.787 110.5 206.698 114.42 210.728 119.803C214.184 124.42 216.76 125.5 218.355 125.5C219.949 125.5 222.525 124.419 225.98 119.803C230.01 114.42 234.921 110.5 240.813 110.5Z" fill="#633CB1"/>
<path d="M510.312 110.5C516.204 110.5 521.115 114.42 525.145 119.803C528.601 124.419 531.176 125.5 532.771 125.5C534.365 125.5 536.941 124.42 540.397 119.803C541.887 117.813 544.708 117.408 546.697 118.897C548.687 120.387 549.092 123.208 547.603 125.197C543.573 130.58 538.662 134.5 532.771 134.5C526.879 134.5 521.969 130.58 517.939 125.197C514.483 120.58 511.907 119.5 510.312 119.5C508.718 119.5 506.142 120.58 502.686 125.197C498.656 130.58 493.746 134.5 487.854 134.5C481.963 134.5 477.052 130.58 473.022 125.197C469.566 120.58 466.99 119.5 465.396 119.5C463.801 119.5 461.226 120.581 457.77 125.197C453.74 130.58 448.829 134.5 442.938 134.5C437.046 134.5 432.135 130.58 428.105 125.197C424.65 120.581 422.074 119.5 420.479 119.5C418.885 119.5 416.309 120.58 412.853 125.197C408.823 130.58 403.912 134.5 398.021 134.5C392.129 134.5 387.219 130.58 383.189 125.197C379.733 120.58 377.157 119.5 375.562 119.5C373.968 119.5 371.392 120.58 367.936 125.197C363.906 130.58 358.996 134.5 353.104 134.5C347.213 134.5 342.302 130.58 338.272 125.197C334.816 120.58 332.24 119.5 330.646 119.5C329.051 119.5 326.476 120.581 323.02 125.197C318.99 130.58 314.079 134.5 308.188 134.5C302.296 134.5 297.385 130.58 293.355 125.197C289.9 120.581 287.324 119.5 285.729 119.5C284.135 119.5 281.559 120.58 278.103 125.197C274.073 130.58 269.162 134.5 263.271 134.5C257.379 134.5 252.469 130.58 248.439 125.197C244.983 120.58 242.407 119.5 240.813 119.5C239.218 119.5 236.642 120.58 233.186 125.197C229.156 130.58 224.246 134.5 218.355 134.5C212.463 134.5 207.552 130.58 203.522 125.197C200.066 120.58 197.49 119.5 195.896 119.5C194.301 119.5 191.726 120.581 188.27 125.197C184.24 130.58 179.329 134.5 173.438 134.5C167.546 134.5 162.635 130.58 158.605 125.197C155.15 120.581 152.574 119.5 150.98 119.5C149.385 119.5 146.809 120.58 143.353 125.197C139.323 130.58 134.412 134.5 128.521 134.5C122.629 134.5 117.719 130.58 113.689 125.197C110.233 120.58 107.657 119.5 106.063 119.5C104.468 119.5 101.892 120.58 98.4356 125.197C94.4058 130.58 89.4959 134.5 83.6045 134.5C77.7129 134.5 72.8023 130.58 68.7725 125.197C65.3163 120.58 62.74 119.5 61.1455 119.5C59.551 119.5 56.9755 120.581 53.5195 125.197C49.4897 130.58 44.5791 134.5 38.6875 134.5C32.7959 134.5 27.8854 130.58 23.8555 125.197C20.3995 120.581 17.824 119.5 16.2295 119.5C14.635 119.5 12.0588 120.58 8.60255 125.197C7.11311 127.187 4.29222 127.592 2.30275 126.103C0.3134 124.613 -0.0918661 121.792 1.39748 119.803C5.42735 114.42 10.3379 110.5 16.2295 110.5C22.1209 110.5 27.0308 114.42 31.0606 119.803C34.5168 124.42 37.0931 125.5 38.6875 125.5C40.282 125.5 42.8583 124.42 46.3145 119.803C50.3442 114.42 55.2542 110.5 61.1455 110.5C67.0371 110.5 71.9477 114.42 75.9776 119.803C79.4338 124.42 82.01 125.5 83.6045 125.5C85.199 125.5 87.7745 124.419 91.2305 119.803C95.2604 114.42 100.171 110.5 106.063 110.5C111.954 110.5 116.865 114.42 120.895 119.803C124.351 124.419 126.926 125.5 128.521 125.5C130.115 125.5 132.691 124.42 136.147 119.803C140.177 114.42 145.088 110.5 150.98 110.5C156.871 110.5 161.781 114.42 165.811 119.803C169.267 124.42 171.843 125.5 173.438 125.5C175.032 125.5 177.608 124.42 181.064 119.803C185.094 114.42 190.004 110.5 195.896 110.5C201.787 110.5 206.698 114.42 210.728 119.803C214.184 124.42 216.76 125.5 218.355 125.5C219.949 125.5 222.525 124.419 225.98 119.803C230.01 114.42 234.921 110.5 240.813 110.5C246.704 110.5 251.615 114.42 255.645 119.803C259.101 124.419 261.676 125.5 263.271 125.5C264.865 125.5 267.441 124.42 270.897 119.803C274.927 114.42 279.838 110.5 285.729 110.5C291.621 110.5 296.531 114.42 300.561 119.803C304.017 124.42 306.593 125.5 308.188 125.5C309.782 125.5 312.358 124.42 315.814 119.803C319.844 114.42 324.754 110.5 330.646 110.5C336.537 110.5 341.448 114.42 345.478 119.803C348.934 124.42 351.51 125.5 353.104 125.5C354.699 125.5 357.275 124.419 360.73 119.803C364.76 114.42 369.671 110.5 375.562 110.5C381.454 110.5 386.365 114.42 390.395 119.803C393.851 124.419 396.426 125.5 398.021 125.5C399.615 125.5 402.191 124.42 405.647 119.803C409.677 114.42 414.588 110.5 420.479 110.5C426.371 110.5 431.281 114.42 435.311 119.803C438.767 124.42 441.343 125.5 442.938 125.5C444.532 125.5 447.108 124.42 450.564 119.803C454.594 114.42 459.504 110.5 465.396 110.5C471.287 110.5 476.198 114.42 480.228 119.803C483.684 124.42 486.26 125.5 487.854 125.5C489.449 125.5 492.025 124.419 495.48 119.803C499.51 114.42 504.421 110.5 510.312 110.5Z" fill="#633CB1"/>
</svg>
